<svg width="162" height="40" viewBox="0 0 162 40" fill="none" xmlns="http://www.w3.org/2000/svg">
<path d="M50.2508 14.0079L56.8212 30.1183H58.1091L64.6795 14.0079V30.1183H67.7282V9.85545H63.3917L57.5046 24.4152L51.6174 9.85545H47.2809V30.1183H50.3296V14.0079H50.2508ZM22.6812 18.8962L18.6601 18.0026C17.2146 17.6873 16.4787 16.5046 16.4787 15.3482C16.4787 13.3771 18.1607 12.2996 20.0004 12.2996C21.8139 12.2996 23.7587 13.3246 24.4158 15.6373L26.9914 14.6386C26.1241 11.1958 23.0228 9.54008 20.0267 9.54008C16.6627 9.54008 13.4037 11.59 13.4037 15.4271C13.4037 17.8187 15.0332 20.184 17.9767 20.841L21.5248 21.6294C23.312 21.9974 24.1004 23.18 24.1004 24.3627C24.1004 26.4915 22.1556 27.7267 20.0793 27.7267C18.2133 27.7267 16.2159 26.7017 15.48 24.3627L12.7992 25.4665C14.0082 28.9356 17.2409 30.4862 20.1844 30.4862C24.7312 30.4862 27.1754 27.2799 27.1754 24.205C27.1754 21.8397 25.7562 19.5532 22.6812 18.8962ZM20.0004 0C8.96209 0 0 8.96189 0 20C0 31.0381 8.96209 40 20.0004 40C31.0125 40 40.0009 31.0381 40.0009 20C39.9746 8.98817 31.0125 0 20.0004 0ZM20.0004 37.3193C10.4076 37.3193 2.57561 29.5401 2.57561 20C2.57561 10.4336 10.3813 2.68068 20.0004 2.68068C29.5933 2.68068 37.4253 10.4599 37.4253 20C37.399 29.5664 29.5933 37.3193 20.0004 37.3193ZM126.494 9.82917H122.736L114.247 19.8949V9.82917H111.198V30.092H114.247V23.4428L116.166 21.2878L123.393 30.092H127.151L118.137 19.4218L126.494 9.82917ZM129.779 30.092H143.393V27.4113H132.828V21.1038H143.183V18.4231H132.828V12.5099H143.393V9.82917H129.779V30.092ZM107.466 16.0578C107.466 12.3259 104.812 9.82917 100.975 9.82917H92.4331V30.092H95.4818V22.2865H99.2926L104.128 30.092H107.65L102.446 21.9711C105.022 21.6557 107.466 19.7109 107.466 16.0578ZM95.4818 19.6058V12.4836H100.58C102.762 12.4836 104.339 13.9028 104.339 16.0315C104.339 18.1603 102.762 19.5795 100.58 19.5795H95.4818V19.6058ZM145.864 9.82917V12.5099H152.145V30.092H155.168V12.5099H161.423V9.82917H145.864ZM90.0151 30.092L81.9729 9.82917H78.1621L70.1198 30.092H73.4313L75.0608 25.887H84.9953L86.6248 30.092H90.0151ZM75.9544 23.2063L80.0281 12.4836L84.128 23.2063H75.9544Z" fill="white"/>
</svg>
