<svg width="220" height="40" viewBox="0 0 220 40" fill="none" xmlns="http://www.w3.org/2000/svg">
<path d="M57.8147 12.2025C60.2293 12.2025 62.2324 13.461 63.3025 15.1573L65.8818 13.7893C64.2903 11.409 61.7934 9.49385 57.8147 9.49385C52.025 9.49385 47.3877 13.762 47.3877 19.9726C47.3877 26.1833 52.025 30.4514 57.8147 30.4514C61.8208 30.4514 64.2629 28.5362 65.8818 26.1559L63.3025 24.788C62.2324 26.4843 60.2293 27.7428 57.8147 27.7428C53.6988 27.7428 50.5158 24.487 50.5158 19.9726C50.5158 15.4309 53.6988 12.2025 57.8147 12.2025ZM20.0581 0C9.0001 0 0 8.97401 0 20C0 31.026 9.0001 40 20.0581 40C31.1162 40 40.1163 31.026 40.1163 20C40.1163 8.97401 31.1436 0 20.0581 0ZM20.0581 37.3461C10.4269 37.3461 2.57929 29.5759 2.57929 20C2.57929 10.4514 10.4269 2.6539 20.0581 2.6539C29.6894 2.6539 37.537 10.4241 37.537 20C37.537 29.5759 29.7168 37.3461 20.0581 37.3461ZM183.871 12.5308H190.182V30.1231H193.228V12.5308H199.511V9.84952H183.871V12.5308ZM22.7746 18.9056L18.7411 18.0027C17.2868 17.6744 16.5459 16.5253 16.5459 15.3488C16.5459 13.3789 18.2197 12.2845 20.0581 12.2845C21.8691 12.2845 23.8173 13.3242 24.4759 15.6224L27.0552 14.6101C26.1771 11.1628 23.0765 9.52121 20.0581 9.52121C16.6831 9.52121 13.4178 11.5732 13.4178 15.4036C13.4178 17.7839 15.0368 20.1642 18.0002 20.8208L21.5399 21.6142C23.3234 21.9973 24.1192 23.1464 24.1192 24.3502C24.1192 26.4843 22.171 27.7155 20.0856 27.7155C18.2197 27.7155 16.2166 26.6758 15.4758 24.3502L12.7867 25.472C13.9941 28.9466 17.2319 30.4788 20.1953 30.4788C24.7503 30.4788 27.2198 27.2777 27.2198 24.186C27.2747 21.8605 25.8478 19.5622 22.7746 18.9056ZM215.975 9.84952L210.048 18.9056L204.066 9.84952H200.554L208.511 21.6416V30.1231H211.557V21.6416L219.487 9.84952H215.975ZM177.615 30.1231H180.661V9.84952H177.615V30.1231ZM170.069 25.0342L159.011 9.82216H155.883V30.0958H158.929V14.528L170.179 30.0958H173.115V9.82216H170.069V25.0342ZM78.3393 9.52121C72.2752 9.52121 68.1044 13.9808 68.1044 20C68.1044 26.0191 72.2752 30.4788 78.3393 30.4788C84.4034 30.4788 88.5742 26.0191 88.5742 20C88.5742 13.9808 84.4034 9.52121 78.3393 9.52121ZM78.3393 27.7702C73.9764 27.7702 71.2325 24.4323 71.2325 20C71.2325 15.5404 73.9764 12.2298 78.3393 12.2298C82.6472 12.2298 85.4461 15.5404 85.4461 20C85.4186 24.4323 82.6198 27.7702 78.3393 27.7702ZM148.227 22.1067C148.227 25.5814 146.334 27.7975 142.767 27.7975C139.2 27.7975 137.279 25.5814 137.279 22.1067V9.84952H134.206V22.1888C134.206 27.1683 137.059 30.4788 142.767 30.4788C148.474 30.4788 151.3 27.1956 151.3 22.1614V9.84952H148.227V22.1067ZM119.635 24.4049L113.077 9.84952H108.687L102.129 24.4049L96.2023 9.84952H91.8394V30.1231H94.9126V14.0082L101.498 30.1231H102.788L109.373 14.0356V30.1231H112.446V14.0356L119.032 30.1231H120.321L126.907 14.0082V30.1231H129.953V9.84952H125.59L119.635 24.4049Z" fill="white"/>
</svg>
