<svg width="40" height="40" viewBox="0 0 40 40" fill="none" xmlns="http://www.w3.org/2000/svg">
<path d="M20 0C8.97921 0 0 8.9603 0 20C0 31.0208 8.96031 40 20 40C31.0208 40 40 31.0397 40 20C39.9811 8.97921 31.0208 0 20 0ZM20 37.3157C10.397 37.3157 2.58979 29.5463 2.58979 19.9811C2.58979 10.4348 10.397 2.6465 20 2.6465C29.603 2.6465 37.4102 10.4159 37.4102 19.9811C37.4102 29.5463 29.603 37.3157 20 37.3157ZM22.6843 18.8847L18.6768 17.9773C17.2401 17.656 16.5028 16.4839 16.5028 15.3308C16.5028 13.3648 18.1853 12.2873 20.0189 12.2873C21.8336 12.2873 23.7618 13.327 24.4423 15.6333L27.0132 14.6314C26.1437 11.1909 23.0435 9.54631 20.0378 9.54631C16.6919 9.54631 13.4216 11.5879 13.4216 15.4442C13.4216 17.8261 15.0473 20.189 17.9962 20.8507L21.5312 21.6446C23.3081 22.0227 24.1021 23.1758 24.1021 24.3856C24.1021 26.5028 22.155 27.7505 20.0945 27.7505C18.242 27.7505 16.2382 26.7108 15.5009 24.3856L12.8166 25.5009C14.0076 28.9792 17.259 30.5104 20.2079 30.5104C24.7637 30.5104 27.2023 27.2968 27.2023 24.2155C27.1834 21.8336 25.7467 19.5463 22.6843 18.8847Z" fill="white"/>
</svg>
