<svg width="211" height="40" viewBox="0 0 211 40" fill="none" xmlns="http://www.w3.org/2000/svg">
<path d="M22.7107 18.9091L18.6777 18.0165C17.2562 17.6859 16.4959 16.5289 16.4959 15.3719C16.4959 13.4215 18.1818 12.3306 20 12.3306C21.8182 12.3306 23.7686 13.3554 24.4298 15.6694L27.0083 14.6446C26.1157 11.2066 23.0413 9.55372 20.0331 9.55372C16.6942 9.55372 13.3884 11.6033 13.3884 15.438C13.3884 17.8182 15.0083 20.1983 17.9835 20.8595L21.5207 21.6529C23.3058 22.0165 24.0992 23.2066 24.0992 24.3967C24.0992 26.5124 22.1488 27.7686 20.0661 27.7686C18.2149 27.7686 16.1984 26.7438 15.4711 24.3967L12.7934 25.5207C13.9835 28.9917 17.2231 30.5455 20.1983 30.5455C24.7603 30.5455 27.2066 27.3388 27.2066 24.2645C27.2066 21.8512 25.7521 19.5702 22.7107 18.9091ZM20 0C8.95868 0 0 8.99174 0 20C0 31.0083 8.99174 40 20 40C31.0413 40 40 31.0083 40 20C40 8.99174 31.0413 0 20 0ZM20 37.3884C10.3802 37.3884 2.57852 29.6198 2.57852 20.0331C2.57852 10.4793 10.4132 2.67769 20 2.67769C29.6198 2.67769 37.4215 10.4463 37.4215 20.0331C37.4215 29.5868 29.6198 37.3884 20 37.3884ZM60.8926 27.4711H50.3141V21.157H60.6942V18.4793H50.3141V12.562H60.8926V9.8843H47.2727V30.1818H60.8926V27.4711ZM71.9339 9.85124H64.6942V30.1488H71.9339C78.2479 30.1488 82.4463 25.8843 82.4463 20.0331C82.4463 14.1818 78.2479 9.85124 71.9339 9.85124ZM71.9339 27.4711H67.7355V12.5289H71.9339C76.6942 12.5289 79.3388 15.8347 79.3388 20C79.3058 24.0992 76.5951 27.4711 71.9339 27.4711ZM179.636 9.52066C173.587 9.52066 169.421 13.9835 169.421 20C169.421 26.0165 173.587 30.4793 179.636 30.4793C185.686 30.4793 189.851 26.0165 189.851 20C189.851 13.9835 185.686 9.52066 179.636 9.52066ZM179.636 27.8017C175.273 27.8017 172.562 24.4628 172.562 20C172.562 15.5372 175.306 12.1983 179.636 12.1983C183.934 12.1983 186.711 15.5041 186.711 20C186.744 24.4628 183.934 27.8017 179.636 27.8017ZM132.992 9.85124L124.926 30.1488H128.264L129.917 25.9504H139.868L141.521 30.1488H144.86L136.793 9.85124H132.992ZM130.81 23.2397L134.876 12.4959L138.975 23.2397H130.81ZM143.934 12.5289H150.215V30.1488H153.256V12.5289H159.537V9.85124H143.934V12.5289ZM116.066 12.2314C118.479 12.2314 120.463 13.4876 121.554 15.1736L124.132 13.8182C122.545 11.438 120.066 9.52066 116.066 9.52066C110.281 9.52066 105.653 13.7851 105.653 20C105.653 26.2479 110.281 30.4793 116.066 30.4793C120.066 30.4793 122.512 28.562 124.132 26.1818L121.554 24.8264C120.496 26.5455 118.479 27.7686 116.066 27.7686C111.967 27.7686 108.793 24.5289 108.793 19.9669C108.793 15.438 111.934 12.2314 116.066 12.2314ZM207.736 9.85124V25.0578L196.694 9.85124H193.554V30.1488H196.595V14.5785L207.835 30.1488H210.777V9.85124H207.736ZM162.711 30.1488H165.752V9.85124H162.711V30.1488ZM99.5041 22.1157C99.5041 25.5868 97.6198 27.8017 94.0496 27.8017C90.4793 27.8017 88.562 25.5868 88.562 22.1157V9.85124H85.5207V22.2149C85.5207 27.2066 88.3636 30.5124 94.0827 30.5124C99.7686 30.5124 102.612 27.2397 102.612 22.1818V9.85124H99.5372V22.1157H99.5041Z" fill="white"/>
</svg>
