<!-- Generated by IcoMoon.io -->
<svg version="1.1" xmlns="http://www.w3.org/2000/svg" width="32" height="32" viewBox="0 0 32 32">
<title></title>
<g id="icomoon-ignore">
</g>
<path fill="#e62739" d="M1 16c0-8.284 6.716-15 15-15s15 6.716 15 15c0 8.284-6.716 15-15 15s-15-6.716-15-15z"></path>
<path fill="#fff" d="M11.598 16.671l5.614 5.628c0.19 0.176 0.409 0.264 0.658 0.264s0.468-0.088 0.658-0.264c0.19-0.191 0.285-0.41 0.285-0.66s-0.095-0.469-0.285-0.66l-4.956-4.969 4.956-4.969c0.19-0.191 0.285-0.41 0.285-0.66s-0.095-0.469-0.285-0.66c-0.102-0.103-0.201-0.176-0.296-0.22s-0.216-0.066-0.362-0.066c-0.146 0-0.267 0.022-0.362 0.066s-0.194 0.117-0.296 0.22l-5.614 5.628c-0.19 0.191-0.285 0.41-0.285 0.66s0.095 0.469 0.285 0.66z"></path>
</svg>
