<svg width="132" height="24" viewBox="0 0 132 24" fill="none" xmlns="http://www.w3.org/2000/svg">
<path d="M34.6888 7.32148C36.1376 7.32148 37.3394 8.07661 37.9815 9.09439L39.5291 8.2736C38.5742 6.84542 37.076 5.69631 34.6888 5.69631C31.215 5.69631 28.4326 8.25718 28.4326 11.9836C28.4326 15.71 31.215 18.2709 34.6888 18.2709C37.0925 18.2709 38.5577 17.1217 39.5291 15.6936L37.9815 14.8728C37.3394 15.8906 36.1376 16.6457 34.6888 16.6457C32.2193 16.6457 30.3095 14.6922 30.3095 11.9836C30.3095 9.25855 32.2193 7.32148 34.6888 7.32148ZM12.0349 0C5.40006 0 0 5.38441 0 12C0 18.6156 5.40006 24 12.0349 24C18.6697 24 24.0698 18.6156 24.0698 12C24.0698 5.38441 18.6862 0 12.0349 0ZM12.0349 22.4077C6.25617 22.4077 1.54758 17.7456 1.54758 12C1.54758 6.27086 6.25617 1.59234 12.0349 1.59234C17.8136 1.59234 22.5222 6.25445 22.5222 12C22.5222 17.7456 17.8301 22.4077 12.0349 22.4077ZM110.323 7.51847H114.109V18.0739H115.937V7.51847H119.707V5.90971H110.323V7.51847ZM13.6648 11.3434L11.2446 10.8016C10.3721 10.6047 9.92755 9.91518 9.92755 9.2093C9.92755 8.02736 10.9318 7.37072 12.0349 7.37072C13.1215 7.37072 14.2904 7.99453 14.6855 9.37346L16.2331 8.76607C15.7063 6.69767 13.8459 5.71272 12.0349 5.71272C10.0099 5.71272 8.0507 6.94391 8.0507 9.24214C8.0507 10.6703 9.02205 12.0985 10.8001 12.4925L12.9239 12.9685C13.9941 13.1984 14.4715 13.8878 14.4715 14.6101C14.4715 15.8906 13.3026 16.6293 12.0513 16.6293C10.9318 16.6293 9.72998 16.0055 9.28547 14.6101L7.67204 15.2832C8.39643 17.368 10.3391 18.2873 12.1172 18.2873C14.8502 18.2873 16.3319 16.3666 16.3319 14.5116C16.3648 13.1163 15.5087 11.7373 13.6648 11.3434ZM129.585 5.90971L126.029 11.3434L122.44 5.90971H120.332L125.107 12.985V18.0739H126.934V12.985L131.692 5.90971H129.585ZM106.569 18.0739H108.396V5.90971H106.569V18.0739ZM102.041 15.0205L95.4065 5.8933H93.5297V18.0575H95.3571V8.71683L102.107 18.0575H103.869V5.8933H102.041V15.0205ZM47.0036 5.71272C43.3651 5.71272 40.8626 8.38851 40.8626 12C40.8626 15.6115 43.3651 18.2873 47.0036 18.2873C50.642 18.2873 53.1445 15.6115 53.1445 12C53.1445 8.38851 50.642 5.71272 47.0036 5.71272ZM47.0036 16.6621C44.3858 16.6621 42.7395 14.6594 42.7395 12C42.7395 9.32421 44.3858 7.33789 47.0036 7.33789C49.5883 7.33789 51.2676 9.32421 51.2676 12C51.2512 14.6594 49.5719 16.6621 47.0036 16.6621ZM88.9363 13.264C88.9363 15.3488 87.8004 16.6785 85.6601 16.6785C83.5198 16.6785 82.3674 15.3488 82.3674 13.264V5.90971H80.5234V13.3133C80.5234 16.301 82.2357 18.2873 85.6601 18.2873C89.0845 18.2873 90.7803 16.3174 90.7803 13.2969V5.90971H88.9363V13.264ZM71.7813 14.643L67.8465 5.90971H65.2123L61.2775 14.643L57.7214 5.90971H55.1037V18.0739H56.9476V8.40493L60.8988 18.0739H61.6726L65.6239 8.42134V18.0739H67.4678V8.42134L71.4191 18.0739H72.1929L76.1441 8.40493V18.0739H77.9716V5.90971H75.3539L71.7813 14.643Z" fill="white"/>
</svg>
