<svg width="37" height="36" viewBox="0 0 37 36" fill="none" xmlns="http://www.w3.org/2000/svg">
<path d="M18.5 0C8.55664 0 0.5 8.05664 0.5 18C0.5 27.9434 8.55664 36 18.5 36C28.4434 36 36.5 27.9434 36.5 18C36.5 17.2734 36.4473 16.5586 36.3594 15.8496C35.7617 16.2598 35.0352 16.5 34.25 16.5C32.6328 16.5 31.2676 15.4688 30.7402 14.0391C29.8027 14.6367 28.6953 15 27.5 15C24.1836 15 21.5 12.3164 21.5 9C21.5 7.89844 21.8164 6.87891 22.3379 5.98828C22.3086 5.99414 22.2793 6 22.25 6C20.1758 6 18.5 4.32422 18.5 2.25C18.5 1.41211 18.7812 0.650391 19.2441 0.0292962C18.998 0.0175782 18.752 0 18.5 0ZM29.75 0C28.5078 0 27.5 1.00781 27.5 2.25C27.5 3.49219 28.5078 4.5 29.75 4.5C30.9922 4.5 32 3.49219 32 2.25C32 1.00781 30.9922 0 29.75 0ZM15.5762 3.28125C15.875 5.21484 17 6.87891 18.5703 7.91016C18.5234 8.26758 18.5 8.63672 18.5 9C18.5 13.9629 22.5371 18 27.5 18C28.2441 18 28.9883 17.9062 29.7031 17.7188C30.7285 18.6562 32.0234 19.2773 33.4297 19.4531C32.6973 27.0469 26.2812 33 18.5 33C10.2266 33 3.5 26.2734 3.5 18C3.5 10.7285 8.70313 4.64648 15.5762 3.28125ZM27.5 7.5C26.6738 7.5 26 8.17383 26 9C26 9.82617 26.6738 10.5 27.5 10.5C28.3262 10.5 29 9.82617 29 9C29 8.17383 28.3262 7.5 27.5 7.5ZM15.5 9C14.6738 9 14 9.67383 14 10.5C14 11.3262 14.6738 12 15.5 12C16.3262 12 17 11.3262 17 10.5C17 9.67383 16.3262 9 15.5 9ZM35 9C34.1738 9 33.5 9.67383 33.5 10.5C33.5 11.3262 34.1738 12 35 12C35.8262 12 36.5 11.3262 36.5 10.5C36.5 9.67383 35.8262 9 35 9ZM11 13.5C9.3418 13.5 8 14.8418 8 16.5C8 18.1582 9.3418 19.5 11 19.5C12.6582 19.5 14 18.1582 14 16.5C14 14.8418 12.6582 13.5 11 13.5ZM18.5 16.5C17.6738 16.5 17 17.1738 17 18C17 18.8262 17.6738 19.5 18.5 19.5C19.3262 19.5 20 18.8262 20 18C20 17.1738 19.3262 16.5 18.5 16.5ZM13.25 22.5C12.0078 22.5 11 23.5078 11 24.75C11 25.9922 12.0078 27 13.25 27C14.4922 27 15.5 25.9922 15.5 24.75C15.5 23.5078 14.4922 22.5 13.25 22.5ZM23.75 24C22.5078 24 21.5 25.0078 21.5 26.25C21.5 27.4922 22.5078 28.5 23.75 28.5C24.9922 28.5 26 27.4922 26 26.25C26 25.0078 24.9922 24 23.75 24Z" fill="#2C2C2C"/>
</svg>
