<svg width="127" height="24" viewBox="0 0 127 24" fill="none" xmlns="http://www.w3.org/2000/svg">
<path d="M13.6264 11.3455L11.2066 10.8099C10.3537 10.6116 9.89753 9.91736 9.89753 9.22314C9.89753 8.05289 10.9091 7.39834 12 7.39834C13.0909 7.39834 14.2612 8.01322 14.6579 9.40165L16.205 8.78677C15.6694 6.72397 13.8248 5.73223 12.0198 5.73223C10.0165 5.73223 8.03306 6.96198 8.03306 9.26281C8.03306 10.6909 9.00496 12.119 10.7901 12.5157L12.9124 12.9917C13.9835 13.2099 14.4595 13.924 14.4595 14.638C14.4595 15.9074 13.2893 16.6612 12.0397 16.6612C10.9289 16.6612 9.71901 16.0463 9.28265 14.638L7.67604 15.3124C8.39009 17.395 10.3339 18.3273 12.119 18.3273C14.8562 18.3273 16.324 16.4033 16.324 14.5587C16.324 13.1107 15.4512 11.7421 13.6264 11.3455ZM12 0C5.37521 0 0 5.39504 0 12C0 18.605 5.39504 24 12 24C18.6248 24 24 18.605 24 12C24 5.39504 18.6248 0 12 0ZM12 22.4331C6.2281 22.4331 1.54711 17.7719 1.54711 12.0198C1.54711 6.2876 6.24793 1.60661 12 1.60661C17.7719 1.60661 22.4529 6.26777 22.4529 12.0198C22.4529 17.7521 17.7719 22.4331 12 22.4331ZM36.5355 16.4826H30.1884V12.6942H36.4165V11.0876H30.1884V7.53719H36.5355V5.93058H28.3636V18.1091H36.5355V16.4826ZM43.1603 5.91074H38.8165V18.0893H43.1603C46.9488 18.0893 49.4678 15.5306 49.4678 12.0198C49.4678 8.50909 46.9488 5.91074 43.1603 5.91074ZM43.1603 16.4826H40.6413V7.51735H43.1603C46.0165 7.51735 47.6033 9.50083 47.6033 12C47.5835 14.4595 45.957 16.4826 43.1603 16.4826ZM107.782 5.71239C104.152 5.71239 101.653 8.39008 101.653 12C101.653 15.6099 104.152 18.2876 107.782 18.2876C111.412 18.2876 113.911 15.6099 113.911 12C113.911 8.39008 111.412 5.71239 107.782 5.71239ZM107.782 16.681C105.164 16.681 103.537 14.6777 103.537 12C103.537 9.32231 105.183 7.31901 107.782 7.31901C110.36 7.31901 112.026 9.30248 112.026 12C112.046 14.6777 110.36 16.681 107.782 16.681ZM79.795 5.91074L74.9554 18.0893H76.9587L77.9504 15.5702H83.9207L84.9124 18.0893H86.9157L82.076 5.91074H79.795ZM78.4859 13.9438L80.9256 7.49752L83.3851 13.9438H78.4859ZM86.3603 7.51735H90.1289V18.0893H91.9537V7.51735H95.7223V5.91074H86.3603V7.51735ZM69.6397 7.33884C71.0876 7.33884 72.2777 8.09256 72.9322 9.10413L74.4793 8.29091C73.5273 6.86281 72.0397 5.71239 69.6397 5.71239C66.1686 5.71239 63.3917 8.27108 63.3917 12C63.3917 15.7488 66.1686 18.2876 69.6397 18.2876C72.0397 18.2876 73.5074 17.1372 74.4793 15.7091L72.9322 14.8959C72.2975 15.9273 71.0876 16.6612 69.6397 16.6612C67.1802 16.6612 65.276 14.7174 65.276 11.9802C65.276 9.26281 67.1603 7.33884 69.6397 7.33884ZM124.641 5.91074V15.0347L118.017 5.91074H116.132V18.0893H117.957V8.74711L124.701 18.0893H126.466V5.91074H124.641ZM97.6264 18.0893H99.4512V5.91074H97.6264V18.0893ZM59.7025 13.2694C59.7025 15.3521 58.5719 16.681 56.4298 16.681C54.2876 16.681 53.1372 15.3521 53.1372 13.2694V5.91074H51.3124V13.3289C51.3124 16.324 53.0182 18.3074 56.4496 18.3074C59.8612 18.3074 61.5669 16.3438 61.5669 13.3091V5.91074H59.7223V13.2694H59.7025Z" fill="white"/>
</svg>
