<svg width="46" height="19" viewBox="0 0 46 19" fill="none" xmlns="http://www.w3.org/2000/svg">
<path fill-rule="evenodd" clip-rule="evenodd" d="M0.799316 17.9999V0.543945H5.07132V8.9668L9.48217 0.543945H13.4553V17.9999H9.18332V9.34352L4.6782 17.9999H0.799316ZM10.1833 5.25595V16.9999H12.4553V1.54395H10.0873L4.07132 13.0319V1.54395H1.79932V16.9999H4.07132L10.1833 5.25595ZM15.1383 14.1439H16.1383C16.3122 14.1439 16.4296 14.1076 16.5525 14.0088C16.7012 13.8895 16.9286 13.6191 17.1744 13.0072C17.674 11.7634 18.1168 9.45481 18.3721 5.29227C18.3721 5.29176 18.3722 5.29126 18.3722 5.29076L18.6514 0.543945H29.3303V17.9999H25.0583V4.55995H22.5139L22.4483 5.54271C22.4483 5.5434 22.4483 5.54409 22.4482 5.54478C22.1273 10.6457 21.4655 13.8111 20.444 15.7198C19.9188 16.7012 19.2762 17.3939 18.5004 17.8277C17.7293 18.259 16.9162 18.3839 16.1383 18.3839H15.1383V14.1439ZM21.4503 5.47995L21.5783 3.55995H26.0583V16.9999H28.3303V1.54395H19.5943L19.3703 5.35194C18.8583 13.7039 17.5783 15.1439 16.1383 15.1439V17.3839C16.4837 17.3839 16.8175 17.3554 17.1383 17.2841C19.314 16.8004 20.8926 14.3483 21.4503 5.47995ZM32.5493 17.9999V0.543945H36.8213V8.96681L41.2322 0.543945H45.2053V17.9999H40.9333V9.34352L36.4282 17.9999H32.5493ZM41.9333 5.25595V16.9999H44.2053V1.54395H41.8373L35.8213 13.0319V1.54395H33.5493V16.9999H35.8213L41.9333 5.25595Z" fill="#A1A1A1"/>
</svg>
