<svg width="48" height="48" viewBox="0 0 48 48" fill="none" xmlns="http://www.w3.org/2000/svg">
<circle cx="24" cy="24" r="22.5" stroke="#4F4F4F" stroke-width="3"/>
<path d="M24 1.5C29.9674 1.5 35.6903 3.87053 39.9099 8.09009C44.1295 12.3097 46.5 18.0326 46.5 24C46.5 29.9674 44.1295 35.6903 39.9099 39.9099C35.6904 44.1295 29.9674 46.5 24 46.5" stroke="#E62739" stroke-width="3" stroke-linecap="round"/>
<path fill-rule="evenodd" clip-rule="evenodd" d="M33.0783 15.2354H34.5971C35.5696 15.2354 36.358 16.0238 36.358 16.9963V19.9555C36.358 20.4418 35.9638 20.836 35.4776 20.836H12.8805C12.3942 20.836 12 20.4417 12 19.9555V16.9963C12 16.0238 12.7883 15.2354 13.7609 15.2354H15.2677C15.0085 14.8253 14.8375 14.365 14.7886 13.8783C14.6323 12.3218 15.4523 10.926 16.8475 10.3073C18.1298 9.73897 19.5708 9.97052 20.6105 10.912L24.155 15.2355L27.7353 10.9123C28.7734 9.97079 30.215 9.73833 31.4978 10.307C32.8934 10.9256 33.7132 12.321 33.5574 13.8775C33.5086 14.3646 33.3375 14.8251 33.0783 15.2354ZM21.7623 15.2354V14.9419C21.7623 14.9369 21.7625 14.9319 21.7627 14.9269C21.7628 14.9233 21.763 14.9196 21.763 14.916L19.4287 12.2169C18.8884 11.7279 18.1759 11.6325 17.5326 11.9298C17.0642 12.1463 16.702 12.574 16.5816 13.0758C16.3083 14.2152 17.1696 15.2354 18.2639 15.2354H21.7623ZM30.0006 15.2355C30.918 15.2355 31.7446 14.5589 31.8102 13.6438C31.8714 12.7897 31.3797 12.0777 30.5425 11.8279C29.959 11.6539 29.3278 11.8448 28.8768 12.2536C28.4638 12.628 28.0457 13.1667 27.6445 13.6834C27.2748 14.1598 26.9194 14.6176 26.5959 14.911C26.5959 14.9157 26.5961 14.9204 26.5962 14.9251C26.5964 14.9307 26.5966 14.9364 26.5966 14.942V15.2355H30.0006ZM34.9577 35.2392V23.5H25.5068V37.0001H33.1968C34.1694 37.0001 34.9577 36.2117 34.9577 35.2392ZM22.805 37.0001V23.5H13.355V35.2392C13.355 36.2117 14.1433 37.0001 15.1158 37.0001H22.805Z" fill="#4F4F4F"/>
</svg>
