<svg width="29" height="26" viewBox="0 0 29 26" fill="none" xmlns="http://www.w3.org/2000/svg">
<path fill-rule="evenodd" clip-rule="evenodd" d="M26.2147 0.521483C26.1905 0.391489 26.1084 0.279603 25.9916 0.217575C25.8749 0.155548 25.7362 0.150151 25.6149 0.202915L15.4819 4.61312C15.3291 4.67959 15.2279 4.82762 15.2215 4.99406C15.215 5.1605 15.3044 5.31595 15.4515 5.39409L19.8558 7.7337L15.3284 15.6384L9.25831 11.8447C8.86544 11.5991 8.39069 11.5209 7.9398 11.6273C7.4889 11.7337 7.09928 12.0161 6.8577 12.4114L0.327128 23.098C-0.172655 23.9158 0.0851846 24.984 0.903029 25.4838C1.72087 25.9836 2.78902 25.7257 3.28881 24.9079L8.9053 15.7171L15.0183 19.5376C15.4184 19.7876 15.9031 19.864 16.3607 19.7491C16.8184 19.6342 17.2095 19.3379 17.444 18.9284L22.9226 9.36282L27.6032 11.8492C27.7503 11.9273 27.9291 11.9143 28.0634 11.8158C28.1977 11.7173 28.2637 11.5505 28.2333 11.3868L26.2147 0.521483Z" fill="white"/>
</svg>
