<svg width="142" height="32" viewBox="0 0 142 32" fill="none" xmlns="http://www.w3.org/2000/svg">
<path d="M128.364 7.48985V9.6949H133.555V24.2345H136.071V9.6949H141.262V7.48985H128.364ZM50.2685 19.5258L45.399 7.48985H41.8043V24.2345H44.3079V10.9238L49.7402 24.2345H50.7968L56.275 10.9238V24.2345H58.7901V7.48985H55.1265L50.2685 19.5258ZM16.5265 0.00182728C12.2159 -0.0596494 8.05662 1.58933 4.95918 4.58775C1.86175 7.58617 0.0785509 11.6897 0 16C0.0785509 20.3103 1.86175 24.4138 4.95918 27.4122C8.05662 30.4107 12.2159 32.0597 16.5265 31.9982C20.839 32.0627 25.0012 30.4151 28.1012 27.4163C31.2011 24.4176 32.9859 20.3123 33.0644 16C32.9859 11.6877 31.2011 7.5824 28.1012 4.58365C25.0012 1.5849 20.839 -0.0627168 16.5265 0.00182728ZM16.5265 29.862C12.7815 29.9266 9.16378 28.5037 6.46627 25.9052C3.76876 23.3068 2.2116 19.7447 2.13615 16C2.2116 12.2553 3.76876 8.69324 6.46627 6.09476C9.16378 3.49628 12.7815 2.07338 16.5265 2.13798C20.2734 2.0703 23.8941 3.49183 26.5941 6.09064C29.2941 8.68945 30.8528 12.2532 30.9283 16C30.8498 19.7458 29.2901 23.3078 26.5908 25.9059C23.8915 28.5041 20.2725 29.9267 16.5265 29.862ZM18.5478 14.9319L15.3435 14.2084C14.8541 14.1124 14.4133 13.8489 14.0968 13.4633C13.7804 13.0777 13.608 12.594 13.6094 12.0952C13.6233 11.7478 13.7081 11.4069 13.8587 11.0935C14.0092 10.78 14.2222 10.5007 14.4847 10.2727C14.7472 10.0446 15.0535 9.87268 15.3849 9.76739C15.7163 9.66211 16.0657 9.62572 16.4116 9.66045C17.2106 9.64912 17.9905 9.9052 18.6272 10.388C19.264 10.8707 19.7211 11.5525 19.9259 12.3249L21.9817 11.521C21.654 10.314 20.9248 9.25472 19.9144 8.51776C18.9039 7.78079 17.6725 7.41013 16.4231 7.46688C13.7816 7.46688 11.1516 9.0977 11.1516 12.1641C11.1687 13.1917 11.5405 14.1818 12.204 14.9667C12.8675 15.7515 13.7819 16.2829 14.7923 16.4709L17.6175 17.1025C18.1647 17.1598 18.6732 17.4115 19.0505 17.8119C19.4277 18.2124 19.6487 18.735 19.6733 19.2846C19.6446 19.6734 19.5382 20.0525 19.3605 20.3995C19.1828 20.7466 18.9374 21.0544 18.6386 21.305C18.3399 21.5555 17.994 21.7436 17.6214 21.8582C17.2487 21.9728 16.8569 22.0115 16.469 21.972C15.6491 21.9839 14.8477 21.7279 14.1865 21.2429C13.5252 20.7578 13.0404 20.0703 12.8054 19.2846L10.6693 20.1689C11.1122 21.3626 11.9197 22.3866 12.9771 23.0957C14.0346 23.8048 15.2885 24.163 16.5609 24.1197C17.2593 24.1744 17.9615 24.0866 18.6249 23.8616C19.2883 23.6366 19.8991 23.2791 20.42 22.8108C20.941 22.3424 21.3613 21.7731 21.6554 21.1373C21.9495 20.5015 22.1113 19.8126 22.131 19.1124C22.1294 18.103 21.7677 17.1273 21.1108 16.361C20.4539 15.5946 19.545 15.0878 18.5478 14.9319ZM114.066 24.2345H125.321V22.0295H116.581V16.8039H125.183V14.5989H116.627V9.6949H125.367V7.48985H114.112L114.066 24.2345ZM93.6232 12.635C93.6462 11.9333 93.5211 11.2347 93.256 10.5846C92.9909 9.93457 92.5918 9.34768 92.0847 8.86222C91.5775 8.37676 90.9738 8.00364 90.3128 7.76717C89.6518 7.5307 88.9483 7.43621 88.2484 7.48985H81.1853V24.2345H83.7004V17.7801H86.8357L90.8324 24.2345H93.738L89.4542 17.5389C90.644 17.4086 91.7387 16.8279 92.514 15.916C93.2892 15.0042 93.686 13.8302 93.6232 12.635ZM83.7004 15.5751V9.6949H87.9153C88.3014 9.6949 88.6837 9.77095 89.0404 9.91871C89.3971 10.0665 89.7212 10.283 89.9942 10.556C90.2673 10.829 90.4838 11.1532 90.6316 11.5099C90.7793 11.8666 90.8554 12.2489 90.8554 12.635C90.8554 13.0211 90.7793 13.4034 90.6316 13.7601C90.4838 14.1168 90.2673 14.4409 89.9942 14.7139C89.7212 14.9869 89.3971 15.2035 89.0404 15.3513C88.6837 15.499 88.3014 15.5751 87.9153 15.5751H83.7004ZM110.345 7.53578H107.233L100.548 15.4602L107.784 24.2805H110.896L103.443 15.4717L110.345 7.53578ZM98.0333 7.53578V24.2345H100.548V7.48985L98.0333 7.53578ZM68.3913 7.53578L61.7302 24.2345H64.498L66.3126 19.8244H73.548L75.42 24.2805H78.1878L71.5266 7.48985L68.3913 7.53578ZM67.2429 17.5734L69.9303 10.6826L72.6177 17.5734H67.2429Z" fill="white"/>
</svg>
