<svg width="97" height="24" viewBox="0 0 97 24" fill="none" xmlns="http://www.w3.org/2000/svg">
<path d="M30.1505 8.40473L34.0927 18.071H34.8654L38.8077 8.40473V18.071H40.6369V5.91327H38.035L34.5027 14.6491L30.9705 5.91327H28.3686V18.071H30.1978V8.40473H30.1505ZM13.6087 11.3377L11.196 10.8016C10.3287 10.6124 9.88721 9.90276 9.88721 9.20894C9.88721 8.02628 10.8964 7.37976 12.0003 7.37976C13.0883 7.37976 14.2552 7.99474 14.6495 9.38239L16.1948 8.78318C15.6745 6.71747 13.8137 5.72405 12.016 5.72405C9.99759 5.72405 8.04223 6.95401 8.04223 9.25624C8.04223 10.6912 9.01991 12.1104 10.786 12.5046L12.9149 12.9777C13.9872 13.1984 14.4602 13.908 14.4602 14.6176C14.4602 15.8949 13.2933 16.636 12.0476 16.636C10.928 16.636 9.72952 16.021 9.28798 14.6176L7.67954 15.2799C8.40491 17.3614 10.3445 18.2917 12.1106 18.2917C14.8387 18.2917 16.3052 16.3679 16.3052 14.523C16.3052 13.1038 15.4537 11.7319 13.6087 11.3377ZM12.0003 0C5.37726 0 0 5.37713 0 12C0 18.6229 5.37726 24 12.0003 24C18.6075 24 24.0005 18.6229 24.0005 12C23.9848 5.3929 18.6075 0 12.0003 0ZM12.0003 22.3916C6.24455 22.3916 1.54537 17.724 1.54537 12C1.54537 6.26018 6.22879 1.60841 12.0003 1.60841C17.756 1.60841 22.4552 6.27595 22.4552 12C22.4394 17.7398 17.756 22.3916 12.0003 22.3916ZM75.8966 5.8975H73.6416L68.5482 11.9369V5.8975H66.719V18.0552H68.5482V14.0657L69.6993 12.7727L74.0358 18.0552H76.2908L70.882 11.6531L75.8966 5.8975ZM77.8677 18.0552H86.0361V16.4468H79.6969V12.6623H85.9099V11.0539H79.6969V7.50591H86.0361V5.8975H77.8677V18.0552ZM64.4797 9.63469C64.4797 7.39553 62.8871 5.8975 60.5848 5.8975H55.4598V18.0552H57.2891V13.3719H59.5756L62.4771 18.0552H64.5901L61.4679 13.1827C63.0132 12.9934 64.4797 11.8265 64.4797 9.63469ZM57.2891 11.7635V7.49015H60.3482C61.6571 7.49015 62.6032 8.34166 62.6032 9.61892C62.6032 10.8962 61.6571 11.7477 60.3482 11.7477H57.2891V11.7635ZM87.5184 5.8975V7.50591H91.2872V18.0552H93.1006V7.50591H96.8537V5.8975H87.5184ZM54.0091 18.0552L49.1837 5.8975H46.8972L42.0719 18.0552H44.0588L45.0365 15.5322H50.9972L51.9749 18.0552H54.0091ZM45.5726 13.9238L48.0168 7.49015L50.4768 13.9238H45.5726Z" fill="white"/>
</svg>
