<svg width="54" height="24" viewBox="0 0 54 24" fill="none" xmlns="http://www.w3.org/2000/svg">
<path d="M12 0C5.38753 0 0 5.37618 0 12C0 18.6125 5.37618 24 12 24C18.6125 24 24 18.6238 24 12C23.9887 5.38753 18.6125 0 12 0ZM12 22.3894C6.23819 22.3894 1.55388 17.7278 1.55388 11.9887C1.55388 6.26087 6.23819 1.5879 12 1.5879C17.7618 1.5879 22.4461 6.24953 22.4461 11.9887C22.4461 17.7278 17.7618 22.3894 12 22.3894ZM13.6106 11.3308L11.2061 10.7864C10.344 10.5936 9.9017 9.89036 9.9017 9.19849C9.9017 8.0189 10.9112 7.3724 12.0113 7.3724C13.1002 7.3724 14.2571 7.99622 14.6654 9.37996L16.2079 8.77883C15.6862 6.71455 13.8261 5.72779 12.0227 5.72779C10.0151 5.72779 8.05293 6.95274 8.05293 9.26654C8.05293 10.6957 9.02835 12.1134 10.7977 12.5104L12.9187 12.9868C13.9849 13.2136 14.4613 13.9055 14.4613 14.6314C14.4613 15.9017 13.293 16.6503 12.0567 16.6503C10.9452 16.6503 9.74291 16.0265 9.30057 14.6314L7.68998 15.3006C8.40454 17.3875 10.3554 18.3062 12.1248 18.3062C14.8582 18.3062 16.3214 16.3781 16.3214 14.5293C16.31 13.1002 15.448 11.7278 13.6106 11.3308ZM46.8091 18.0567H48.6352V12.9754L53.3762 5.89792H51.2665L47.7278 11.3308L44.155 5.89792H42.0567L46.8091 12.9754V18.0567ZM30.1475 8.39319L34.0832 18.0567H34.8544L38.7902 8.39319V18.0567H40.6163V5.89792H38.0076L34.4688 14.6314L30.9301 5.89792H28.3214V18.0567H30.1475V8.39319Z" fill="#E62739"/>
</svg>
