<svg width="15" height="21" viewBox="0 0 15 21" fill="none" xmlns="http://www.w3.org/2000/svg">
<path d="M5.42146 16.9971H9.45545V21H5.42146V16.9971ZM9.45545 13.7147V14.9956H5.42146V11.9935C5.42146 11.433 5.61644 10.9594 6.00639 10.5724C6.39634 10.1855 6.87369 9.992 7.43846 9.992C8.24526 9.992 8.93775 9.71847 9.51596 9.1714C10.0942 8.62433 10.4102 7.95719 10.4639 7.16995C10.5177 6.38271 10.2891 5.68887 9.77817 5.08844C9.26719 4.488 8.61504 4.13441 7.82168 4.02766C7.02833 3.92092 6.30894 4.09438 5.6635 4.54804C5.01806 5.00171 4.61467 5.61548 4.45331 6.38938L0.5 5.62883C0.74204 4.50801 1.20594 3.51396 1.89172 2.64666C2.57751 1.77936 3.43136 1.11222 4.45331 0.645206C5.47525 0.178198 6.55097 -0.0352894 7.68049 0.00474047C8.81001 0.0447692 9.86557 0.331641 10.8472 0.865365C11.8288 1.39909 12.6356 2.12628 13.2676 3.04695C13.8996 3.96763 14.2895 4.98836 14.4374 6.10918C14.5853 7.23 14.471 8.31077 14.0945 9.35153C13.718 10.3923 13.1264 11.2996 12.3196 12.0735C11.5128 12.8474 10.5581 13.3945 9.45545 13.7147Z" fill="white"/>
</svg>
