<svg width="119" height="20" viewBox="0 0 119 20" fill="none" xmlns="http://www.w3.org/2000/svg">
<path d="M0.468894 9.2006C0.061159 8.79286 -0.0806606 8.19899 0.043433 7.41898C0.149799 7.13534 0.327073 6.89158 0.57526 6.68772C0.823446 6.48385 1.08936 6.35533 1.373 6.30214H1.47936L6.69126 5.77032L8.79198 0.983879L8.89834 0.877514C9.23517 0.292501 9.71381 0 10.3343 0C10.6356 0 10.9016 0.0930684 11.132 0.279209C11.3625 0.465349 11.5043 0.744555 11.5575 1.11684L11.6638 1.2232L13.7646 5.98305L18.9765 6.54147H19.0828C19.6856 6.64783 20.1243 7.00238 20.3991 7.60512C20.6739 8.20786 20.5719 8.77513 20.0933 9.30696C19.8806 9.50197 19.6501 9.71026 19.4019 9.93186C19.1537 10.1535 18.8745 10.4016 18.5643 10.6764C18.2541 10.9512 18.0192 11.1595 17.8596 11.3013C16.9378 12.2231 16.3528 12.7727 16.1046 12.95L17.1948 18.0555C17.3189 18.8533 17.0973 19.4117 16.5301 19.7308C16.0869 20.0499 15.5373 20.0853 14.8814 19.8371L14.775 19.7308L10.2279 17.178L5.68079 19.7308L5.57443 19.8371C5.43261 19.908 5.21102 19.9435 4.90965 19.9435C4.55509 19.9435 4.26259 19.8283 4.03213 19.5978C3.46485 19.2787 3.24325 18.7292 3.36735 17.9491L4.45759 12.8436L0.468894 9.2006Z" fill="#E62739"/>
<path d="M25.0187 9.2006C24.611 8.79286 24.4691 8.19899 24.5932 7.41898C24.6996 7.13534 24.8769 6.89158 25.1251 6.68772C25.3733 6.48385 25.6392 6.35533 25.9228 6.30214H26.0292L31.2411 5.77032L33.3418 0.983879L33.4481 0.877514C33.785 0.292501 34.2636 0 34.8841 0C35.1854 0 35.4514 0.0930684 35.6818 0.279209C35.9123 0.465349 36.0541 0.744555 36.1073 1.11684L36.2136 1.2232L38.3144 5.98305L43.5263 6.54147H43.6326C44.2354 6.64783 44.6741 7.00238 44.9489 7.60512C45.2237 8.20786 45.1217 8.77513 44.6431 9.30696C44.4304 9.50197 44.1999 9.71026 43.9517 9.93186C43.7035 10.1535 43.4243 10.4016 43.1141 10.6764C42.8039 10.9512 42.569 11.1595 42.4094 11.3013C41.4876 12.2231 40.9026 12.7727 40.6544 12.95L41.7446 18.0555C41.8687 18.8533 41.6471 19.4117 41.0799 19.7308C40.6367 20.0499 40.0871 20.0853 39.4312 19.8371L39.3248 19.7308L34.7777 17.178L30.2306 19.7308L30.1242 19.8371C29.9824 19.908 29.7608 19.9435 29.4594 19.9435C29.1049 19.9435 28.8124 19.8283 28.5819 19.5978C28.0147 19.2787 27.7931 18.7292 27.9172 17.9491L29.0074 12.8436L25.0187 9.2006Z" fill="#E62739"/>
<path d="M49.5675 9.2006C49.1598 8.79286 49.018 8.19899 49.1421 7.41898C49.2484 7.13534 49.4257 6.89158 49.6739 6.68772C49.9221 6.48385 50.188 6.35533 50.4716 6.30214H50.578L55.7899 5.77032L57.8906 0.983879L57.997 0.877514C58.3338 0.292501 58.8124 0 59.4329 0C59.7343 0 60.0002 0.0930684 60.2306 0.279209C60.4611 0.465349 60.6029 0.744555 60.6561 1.11684L60.7625 1.2232L62.8632 5.98305L68.0751 6.54147H68.1815C68.7842 6.64783 69.2229 7.00238 69.4977 7.60512C69.7725 8.20786 69.6706 8.77513 69.1919 9.30696C68.9792 9.50197 68.7487 9.71026 68.5005 9.93186C68.2524 10.1535 67.9732 10.4016 67.6629 10.6764C67.3527 10.9512 67.1178 11.1595 66.9583 11.3013C66.0364 12.2231 65.4514 12.7727 65.2032 12.95L66.2935 18.0555C66.4176 18.8533 66.196 19.4117 65.6287 19.7308C65.1855 20.0499 64.6359 20.0853 63.98 19.8371L63.8737 19.7308L59.3265 17.178L54.7794 19.7308L54.6731 19.8371C54.5312 19.908 54.3096 19.9435 54.0083 19.9435C53.6537 19.9435 53.3612 19.8283 53.1308 19.5978C52.5635 19.2787 52.3419 18.7292 52.466 17.9491L53.5562 12.8436L49.5675 9.2006Z" fill="#E62739"/>
<path d="M74.1173 9.2006C73.7096 8.79286 73.5678 8.19899 73.6919 7.41898C73.7982 7.13534 73.9755 6.89158 74.2237 6.68772C74.4719 6.48385 74.7378 6.35533 75.0214 6.30214H75.1278L80.3397 5.77032L82.4404 0.983879L82.5468 0.877514C82.8836 0.292501 83.3622 0 83.9827 0C84.2841 0 84.55 0.0930684 84.7805 0.279209C85.0109 0.465349 85.1527 0.744555 85.2059 1.11684L85.3123 1.2232L87.413 5.98305L92.6249 6.54147H92.7313C93.334 6.64783 93.7728 7.00238 94.0475 7.60512C94.3223 8.20786 94.2204 8.77513 93.7417 9.30696C93.529 9.50197 93.2985 9.71026 93.0504 9.93186C92.8022 10.1535 92.523 10.4016 92.2127 10.6764C91.9025 10.9512 91.6676 11.1595 91.5081 11.3013C90.5862 12.2231 90.0012 12.7727 89.753 12.95L90.8433 18.0555C90.9674 18.8533 90.7458 19.4117 90.1785 19.7308C89.7353 20.0499 89.1858 20.0853 88.5298 19.8371L88.4235 19.7308L83.8763 17.178L79.3292 19.7308L79.2229 19.8371C79.081 19.908 78.8595 19.9435 78.5581 19.9435C78.2035 19.9435 77.911 19.8283 77.6806 19.5978C77.1133 19.2787 76.8917 18.7292 77.0158 17.9491L78.106 12.8436L74.1173 9.2006Z" fill="#E62739"/>
<path d="M98.6662 9.2006C98.2584 8.79286 98.1166 8.19899 98.2407 7.41898C98.3471 7.13534 98.5243 6.89158 98.7725 6.68772C99.0207 6.48385 99.2866 6.35533 99.5703 6.30214H99.6766L104.889 5.77032L106.989 0.983879L107.096 0.877514C107.432 0.292501 107.911 0 108.532 0C108.833 0 109.099 0.0930684 109.329 0.279209C109.56 0.465349 109.702 0.744555 109.755 1.11684L109.861 1.2232L111.962 5.98305L117.174 6.54147H117.28C117.883 6.64783 118.322 7.00238 118.596 7.60512C118.871 8.20786 118.769 8.77513 118.291 9.30696C118.078 9.50197 117.847 9.71026 117.599 9.93186C117.351 10.1535 117.072 10.4016 116.762 10.6764C116.451 10.9512 116.216 11.1595 116.057 11.3013C115.135 12.2231 114.55 12.7727 114.302 12.95L115.392 18.0555C115.516 18.8533 115.295 19.4117 114.727 19.7308C114.284 20.0499 113.735 20.0853 113.079 19.8371L112.972 19.7308L108.425 17.178L103.878 19.7308L103.772 19.8371C103.63 19.908 103.408 19.9435 103.107 19.9435C102.752 19.9435 102.46 19.8283 102.229 19.5978C101.662 19.2787 101.441 18.7292 101.565 17.9491L102.655 12.8436L98.6662 9.2006Z" fill="#E62739"/>
</svg>
