<svg width="119" height="20" viewBox="0 0 119 20" fill="none" xmlns="http://www.w3.org/2000/svg">
<path d="M15.6073 20C15.414 20 15.1417 19.9198 14.7902 19.7594L10.2828 17.1658L5.749 19.7594C5.08123 20.0802 4.49255 20.0535 3.98294 19.6791C3.40303 19.2692 3.18338 18.7077 3.32396 17.9947L4.37833 12.8075C3.95658 12.4153 3.31518 11.8271 2.45411 11.0428C1.59304 10.2585 0.951636 9.67023 0.529888 9.27807C0.0378473 8.74331 -0.11152 8.15508 0.0817819 7.51337C0.292656 6.87165 0.75833 6.48841 1.47882 6.36364L6.61886 5.80214L8.78031 0.989305C9.14934 0.329765 9.65016 0 10.2828 0C10.933 0 11.4338 0.329765 11.7853 0.989305L13.9203 5.80214L19.0867 6.39037C19.7897 6.49733 20.2465 6.87165 20.4574 7.51337C20.6683 8.17291 20.5189 8.76114 20.0093 9.27807L16.1609 12.8342L17.2152 17.9947C17.3031 18.4938 17.1889 18.9528 16.8726 19.3717C16.5563 19.7906 16.1345 20 15.6073 20ZM6.64522 12.6738C6.62764 12.7273 6.57492 12.9813 6.48706 13.4358C6.3992 13.8904 6.28058 14.492 6.13121 15.2406C5.98184 15.9893 5.84565 16.6488 5.72264 17.2192L9.72924 14.9198C10.0983 14.7237 10.4585 14.7237 10.81 14.9198L14.8166 17.2192L13.894 12.6471C13.8061 12.2371 13.9203 11.8895 14.2367 11.6043L17.637 8.4492L13.0505 7.94118C12.6287 7.8877 12.3388 7.6738 12.1806 7.29947L10.2828 3.04813L8.38492 7.29947C8.20919 7.6738 7.91046 7.8877 7.48871 7.94118L2.92857 8.4492L6.32891 11.6043C6.62764 11.8717 6.73308 12.2282 6.64522 12.6738Z" fill="#E62739"/>
<path d="M40.1571 20C39.9638 20 39.6915 19.9198 39.34 19.7594L34.8326 17.1658L30.2988 19.7594C29.631 20.0802 29.0424 20.0535 28.5327 19.6791C27.9528 19.2692 27.7332 18.7077 27.8738 17.9947L28.9281 12.8075C28.5064 12.4153 27.865 11.8271 27.0039 11.0428C26.1428 10.2585 25.5014 9.67023 25.0797 9.27807C24.5877 8.74331 24.4383 8.15508 24.6316 7.51337C24.8425 6.87165 25.3081 6.48841 26.0286 6.36364L31.1687 5.80214L33.3301 0.989305C33.6991 0.329765 34.2 0 34.8326 0C35.4828 0 35.9836 0.329765 36.3351 0.989305L38.4701 5.80214L43.6365 6.39037C44.3395 6.49733 44.7964 6.87165 45.0072 7.51337C45.2181 8.17291 45.0687 8.76114 44.5591 9.27807L40.7107 12.8342L41.765 17.9947C41.8529 18.4938 41.7387 18.9528 41.4224 19.3717C41.1061 19.7906 40.6843 20 40.1571 20ZM31.195 12.6738C31.1774 12.7273 31.1247 12.9813 31.0369 13.4358C30.949 13.8904 30.8304 14.492 30.681 15.2406C30.5316 15.9893 30.3955 16.6488 30.2724 17.2192L34.279 14.9198C34.6481 14.7237 35.0083 14.7237 35.3598 14.9198L39.3664 17.2192L38.4438 12.6471C38.3559 12.2371 38.4701 11.8895 38.7865 11.6043L42.1868 8.4492L37.6003 7.94118C37.1785 7.8877 36.8886 7.6738 36.7304 7.29947L34.8326 3.04813L32.9347 7.29947C32.759 7.6738 32.4603 7.8877 32.0385 7.94118L27.4784 8.4492L30.8787 11.6043C31.1774 11.8717 31.2829 12.2282 31.195 12.6738Z" fill="#E62739"/>
<path d="M64.706 20C64.5127 20 64.2403 19.9198 63.8888 19.7594L59.3814 17.1658L54.8476 19.7594C54.1799 20.0802 53.5912 20.0535 53.0816 19.6791C52.5017 19.2692 52.282 18.7077 52.4226 17.9947L53.477 12.8075C53.0552 12.4153 52.4138 11.8271 51.5527 11.0428C50.6917 10.2585 50.0503 9.67023 49.6285 9.27807C49.1365 8.74331 48.9871 8.15508 49.1804 7.51337C49.3913 6.87165 49.857 6.48841 50.5775 6.36364L55.7175 5.80214L57.8789 0.989305C58.248 0.329765 58.7488 0 59.3814 0C60.0316 0 60.5324 0.329765 60.8839 0.989305L63.019 5.80214L68.1854 6.39037C68.8883 6.49733 69.3452 6.87165 69.5561 7.51337C69.7669 8.17291 69.6176 8.76114 69.1079 9.27807L65.2595 12.8342L66.3139 17.9947C66.4017 18.4938 66.2875 18.9528 65.9712 19.3717C65.6549 19.7906 65.2332 20 64.706 20ZM55.7438 12.6738C55.7263 12.7273 55.6736 12.9813 55.5857 13.4358C55.4978 13.8904 55.3792 14.492 55.2298 15.2406C55.0805 15.9893 54.9443 16.6488 54.8213 17.2192L58.8279 14.9198C59.1969 14.7237 59.5571 14.7237 59.9086 14.9198L63.9152 17.2192L62.9926 12.6471C62.9048 12.2371 63.019 11.8895 63.3353 11.6043L66.7356 8.4492L62.1491 7.94118C61.7274 7.8877 61.4374 7.6738 61.2793 7.29947L59.3814 3.04813L57.4836 7.29947C57.3078 7.6738 57.0091 7.8877 56.5873 7.94118L52.0272 8.4492L55.4275 11.6043C55.7263 11.8717 55.8317 12.2282 55.7438 12.6738Z" fill="#E62739"/>
<path d="M89.2558 20C89.0625 20 88.7901 19.9198 88.4386 19.7594L83.9312 17.1658L79.3974 19.7594C78.7297 20.0802 78.141 20.0535 77.6314 19.6791C77.0515 19.2692 76.8318 18.7077 76.9724 17.9947L78.0268 12.8075C77.605 12.4153 76.9636 11.8271 76.1025 11.0428C75.2415 10.2585 74.6001 9.67023 74.1783 9.27807C73.6863 8.74331 73.5369 8.15508 73.7302 7.51337C73.9411 6.87165 74.4068 6.48841 75.1273 6.36364L80.2673 5.80214L82.4287 0.989305C82.7978 0.329765 83.2986 0 83.9312 0C84.5814 0 85.0822 0.329765 85.4337 0.989305L87.5688 5.80214L92.7352 6.39037C93.4381 6.49733 93.895 6.87165 94.1059 7.51337C94.3167 8.17291 94.1674 8.76114 93.6577 9.27807L89.8093 12.8342L90.8637 17.9947C90.9515 18.4938 90.8373 18.9528 90.521 19.3717C90.2047 19.7906 89.783 20 89.2558 20ZM80.2937 12.6738C80.2761 12.7273 80.2234 12.9813 80.1355 13.4358C80.0476 13.8904 79.929 14.492 79.7796 15.2406C79.6303 15.9893 79.4941 16.6488 79.3711 17.2192L83.3777 14.9198C83.7467 14.7237 84.1069 14.7237 84.4584 14.9198L88.465 17.2192L87.5424 12.6471C87.4546 12.2371 87.5688 11.8895 87.8851 11.6043L91.2854 8.4492L86.6989 7.94118C86.2772 7.8877 85.9872 7.6738 85.8291 7.29947L83.9312 3.04813L82.0334 7.29947C81.8576 7.6738 81.5589 7.8877 81.1371 7.94118L76.577 8.4492L79.9773 11.6043C80.2761 11.8717 80.3815 12.2282 80.2937 12.6738Z" fill="#E62739"/>
<path d="M113.805 20C113.611 20 113.339 19.9198 112.987 19.7594L108.48 17.1658L103.946 19.7594C103.279 20.0802 102.69 20.0535 102.18 19.6791C101.6 19.2692 101.381 18.7077 101.521 17.9947L102.576 12.8075C102.154 12.4153 101.512 11.8271 100.651 11.0428C99.7903 10.2585 99.1489 9.67023 98.7272 9.27807C98.2351 8.74331 98.0857 8.15508 98.279 7.51337C98.4899 6.87165 98.9556 6.48841 99.6761 6.36364L104.816 5.80214L106.978 0.989305C107.347 0.329765 107.847 0 108.48 0C109.13 0 109.631 0.329765 109.983 0.989305L112.118 5.80214L117.284 6.39037C117.987 6.49733 118.444 6.87165 118.655 7.51337C118.866 8.17291 118.716 8.76114 118.207 9.27807L114.358 12.8342L115.413 17.9947C115.5 18.4938 115.386 18.9528 115.07 19.3717C114.754 19.7906 114.332 20 113.805 20ZM104.842 12.6738C104.825 12.7273 104.772 12.9813 104.684 13.4358C104.596 13.8904 104.478 14.492 104.328 15.2406C104.179 15.9893 104.043 16.6488 103.92 17.2192L107.927 14.9198C108.296 14.7237 108.656 14.7237 109.007 14.9198L113.014 17.2192L112.091 12.6471C112.003 12.2371 112.118 11.8895 112.434 11.6043L115.834 8.4492L111.248 7.94118C110.826 7.8877 110.536 7.6738 110.378 7.29947L108.48 3.04813L106.582 7.29947C106.406 7.6738 106.108 7.8877 105.686 7.94118L101.126 8.4492L104.526 11.6043C104.825 11.8717 104.93 12.2282 104.842 12.6738Z" fill="#E62739"/>
</svg>
