<svg width="34" height="32" viewBox="0 0 34 32" fill="none" xmlns="http://www.w3.org/2000/svg">
<path d="M16.9942 0.00182728C12.6837 -0.0596494 8.52439 1.58933 5.42695 4.58775C2.32952 7.58617 0.546324 11.6897 0.467773 16C0.546324 20.3103 2.32952 24.4138 5.42695 27.4122C8.52439 30.4107 12.6837 32.0597 16.9942 31.9982C21.3068 32.0627 25.469 30.4151 28.5689 27.4163C31.6689 24.4176 33.4537 20.3123 33.5322 16C33.4537 11.6877 31.6689 7.5824 28.5689 4.58365C25.469 1.5849 21.3068 -0.0627168 16.9942 0.00182728ZM16.9942 29.862C13.2493 29.9266 9.63155 28.5037 6.93404 25.9052C4.23653 23.3068 2.67937 19.7447 2.60393 16C2.67937 12.2553 4.23653 8.69324 6.93404 6.09476C9.63155 3.49628 13.2493 2.07338 16.9942 2.13798C20.7411 2.0703 24.3619 3.49183 27.0619 6.09064C29.7619 8.68945 31.3206 12.2532 31.396 16C31.3176 19.7458 29.7579 23.3078 27.0586 25.9059C24.3592 28.5041 20.7403 29.9267 16.9942 29.862ZM19.0155 14.9319L15.8113 14.2084C15.3218 14.1124 14.881 13.8489 14.5646 13.4633C14.2482 13.0777 14.0758 12.594 14.0771 12.0952C14.0911 11.7478 14.1759 11.4069 14.3264 11.0935C14.477 10.78 14.69 10.5007 14.9525 10.2727C15.2149 10.0446 15.5213 9.87268 15.8527 9.76739C16.184 9.66211 16.5334 9.62572 16.8794 9.66045C17.6784 9.64912 18.4583 9.9052 19.095 10.388C19.7318 10.8707 20.1889 11.5525 20.3937 12.3249L22.4495 11.521C22.1218 10.314 21.3926 9.25472 20.3821 8.51776C19.3717 7.78079 18.1403 7.41013 16.8909 7.46688C14.2494 7.46688 11.6194 9.0977 11.6194 12.1641C11.6365 13.1917 12.0083 14.1818 12.6718 14.9667C13.3353 15.7515 14.2496 16.283 15.2601 16.4709L18.0853 17.1025C18.6325 17.1598 19.141 17.4115 19.5182 17.8119C19.8955 18.2124 20.1165 18.735 20.141 19.2846C20.1123 19.6734 20.006 20.0525 19.8283 20.3995C19.6506 20.7466 19.4051 21.0544 19.1064 21.305C18.8077 21.5555 18.4618 21.7436 18.0892 21.8582C17.7165 21.9728 17.3247 22.0115 16.9368 21.972C16.1169 21.9839 15.3154 21.7279 14.6542 21.2429C13.993 20.7578 13.5081 20.0703 13.2732 19.2846L11.137 20.1689C11.58 21.3626 12.3874 22.3866 13.4449 23.0957C14.5024 23.8048 15.7562 24.163 17.0287 24.1197C17.7271 24.1744 18.4293 24.0866 19.0927 23.8616C19.7561 23.6366 20.3668 23.2791 20.8878 22.8108C21.4087 22.3424 21.8291 21.7731 22.1232 21.1373C22.4173 20.5015 22.5791 19.8126 22.5988 19.1124C22.5972 18.103 22.2354 17.1273 21.5785 16.361C20.9217 15.5946 20.0128 15.0878 19.0155 14.9319Z" fill="#E62739"/>
</svg>
