<svg width="57" height="56" viewBox="0 0 57 56" fill="none" xmlns="http://www.w3.org/2000/svg">
<path d="M28.5824 0.00319775C21.1752 -0.104386 14.0279 2.78133 8.70536 8.02857C3.38278 13.2758 0.318574 20.457 0.183594 28C0.318574 35.543 3.38278 42.7242 8.70536 47.9714C14.0279 53.2187 21.1752 56.1044 28.5824 55.9968C35.9929 56.1098 43.1453 53.2264 48.4721 47.9786C53.799 42.7308 56.8659 35.5465 57.0009 28C56.8659 20.4535 53.799 13.2692 48.4721 8.02139C43.1453 2.77358 35.9929 -0.109754 28.5824 0.00319775ZM28.5824 52.2585C22.1472 52.3716 15.9305 49.8815 11.2951 45.3342C6.65976 40.7868 3.98397 34.5533 3.85432 28C3.98397 21.4467 6.65976 15.2132 11.2951 10.6658C15.9305 6.11849 22.1472 3.62841 28.5824 3.74146C35.021 3.62303 41.2427 6.11071 45.8824 10.6586C50.522 15.2065 53.2006 21.4432 53.3302 28C53.1954 34.5551 50.5152 40.7886 45.8768 45.3354C41.2383 49.8822 35.0195 52.3716 28.5824 52.2585ZM32.0558 26.1309L26.5497 24.8647C25.7085 24.6966 24.9511 24.2356 24.4073 23.5609C23.8635 22.8861 23.5674 22.0395 23.5697 21.1666C23.5936 20.5586 23.7394 19.962 23.998 19.4136C24.2567 18.8651 24.6228 18.3763 25.0738 17.9772C25.5249 17.5781 26.0513 17.2772 26.6207 17.0929C27.1901 16.9087 27.7905 16.845 28.385 16.9058C29.758 16.886 31.0981 17.3341 32.1923 18.179C33.2865 19.0238 34.072 20.2169 34.424 21.5686L37.9565 20.1617C37.3934 18.0495 36.1404 16.1958 34.4041 14.9061C32.6677 13.6164 30.5517 12.9677 28.4048 13.067C23.8657 13.067 19.3464 15.921 19.3464 21.2872C19.3758 23.0855 20.0146 24.8181 21.1547 26.1917C22.2948 27.5652 23.8661 28.4952 25.6024 28.824L30.4572 29.9294C31.3975 30.0296 32.2713 30.4701 32.9196 31.1709C33.5679 31.8717 33.9476 32.7862 33.9898 33.7481C33.9405 34.4285 33.7577 35.0919 33.4524 35.6992C33.147 36.3065 32.7252 36.8452 32.2119 37.2837C31.6986 37.7221 31.1042 38.0513 30.4639 38.2518C29.8235 38.4523 29.1502 38.5201 28.4837 38.4511C27.0747 38.4718 25.6976 38.0238 24.5613 37.175C23.4251 36.3262 22.5919 35.123 22.1882 33.7481L18.5175 35.2956C19.2787 37.3846 20.6661 39.1765 22.4833 40.4174C24.3004 41.6584 26.455 42.2853 28.6416 42.2094C29.8417 42.3053 31.0483 42.1516 32.1883 41.7579C33.3283 41.3641 34.3778 40.7384 35.273 39.9189C36.1682 39.0993 36.8904 38.1029 37.3959 36.9903C37.9013 35.8777 38.1793 34.672 38.2131 33.4466C38.2104 31.6802 37.5887 29.9728 36.46 28.6317C35.3312 27.2905 33.7694 26.4037 32.0558 26.1309Z" fill="white"/>
</svg>
