<svg width="18" height="25" viewBox="0 0 18 25" fill="none" xmlns="http://www.w3.org/2000/svg">
<path d="M12.3727 11.201L7.34068 10.1161C6.57197 9.97217 5.87972 9.57722 5.38277 8.99909C4.88581 8.42096 4.61515 7.69571 4.61724 6.94782C4.6391 6.42693 4.77233 5.91582 5.00874 5.4459C5.24514 4.97598 5.57972 4.55719 5.99191 4.21528C6.4041 3.87337 6.88519 3.61555 7.4056 3.4577C7.926 3.29984 8.47473 3.24528 9.01804 3.29736C10.2728 3.28038 11.4976 3.66431 12.4976 4.38814C13.4975 5.11197 14.2154 6.13415 14.5371 7.29221L17.7655 6.08686C17.2509 4.27724 16.1058 2.68905 14.5189 1.5841C12.932 0.479154 10.9981 -0.0765852 9.03607 0.00849983C4.88778 0.00849983 0.757516 2.45362 0.757516 7.05114C0.784383 8.59182 1.36824 10.0763 2.4102 11.2531C3.45217 12.4298 4.88816 13.2266 6.47495 13.5083L10.9118 14.4554C11.7712 14.5412 12.5697 14.9186 13.1622 15.519C13.7547 16.1194 14.1018 16.9029 14.1403 17.727C14.0952 18.31 13.9282 18.8784 13.6491 19.3986C13.37 19.9189 12.9846 20.3805 12.5155 20.7561C12.0463 21.1318 11.5031 21.4138 10.9179 21.5856C10.3327 21.7574 9.71734 21.8154 9.10822 21.7563C7.82053 21.7741 6.56193 21.3903 5.52353 20.663C4.48513 19.9358 3.72365 18.905 3.35471 17.727L0 19.0529C0.695637 20.8426 1.96368 22.3778 3.62438 23.441C5.28507 24.5042 7.25416 25.0413 9.25251 24.9763C10.3493 25.0584 11.4521 24.9268 12.4939 24.5894C13.5357 24.2521 14.4949 23.716 15.313 23.0138C16.1311 22.3117 16.7912 21.458 17.2531 20.5048C17.715 19.5516 17.9691 18.5186 18 17.4687C17.9975 15.9554 17.4294 14.4925 16.3978 13.3435C15.3662 12.1945 13.9389 11.4347 12.3727 11.201Z" fill="#E62739"/>
</svg>
