<svg width="39" height="40" viewBox="0 0 39 40" fill="none" xmlns="http://www.w3.org/2000/svg">
<path d="M19.4932 0.502227C14.4089 0.427302 9.5029 2.437 5.84943 6.09132C2.19596 9.74565 0.092652 14.7469 0 20C0.092652 25.2531 2.19596 30.2544 5.84943 33.9087C9.5029 37.563 14.4089 39.5727 19.4932 39.4978C24.5799 39.5764 29.4894 37.5684 33.1458 33.9137C36.8022 30.259 38.9074 25.2556 39 20C38.9074 14.7444 36.8022 9.74105 33.1458 6.08632C29.4894 2.4316 24.5799 0.423564 19.4932 0.502227ZM19.4932 36.8943C15.076 36.9731 10.8088 35.2389 7.62706 32.072C4.44531 28.9051 2.60862 24.5639 2.51962 20C2.60862 15.4361 4.44531 11.0949 7.62706 7.92799C10.8088 4.76109 15.076 3.02693 19.4932 3.10566C23.9128 3.02318 28.1834 4.75567 31.3681 7.92297C34.5528 11.0903 36.3914 15.4336 36.4804 20C36.3878 24.5651 34.5482 28.9064 31.3643 32.0729C28.1804 35.2394 23.9117 36.9731 19.4932 36.8943ZM21.8774 18.6983L18.0979 17.8165C17.5206 17.6994 17.0007 17.3784 16.6274 16.9084C16.2542 16.4385 16.0509 15.849 16.0524 15.241C16.0689 14.8176 16.1689 14.4021 16.3465 14.0202C16.524 13.6382 16.7753 13.2978 17.0849 13.0198C17.3945 12.7419 17.7558 12.5323 18.1467 12.404C18.5376 12.2757 18.9497 12.2313 19.3578 12.2737C20.3002 12.2599 21.2201 12.572 21.9711 13.1603C22.7222 13.7487 23.2614 14.5796 23.503 15.521L25.9277 14.5412C25.5412 13.0702 24.6811 11.7792 23.4893 10.881C22.2974 9.98284 20.845 9.53109 19.3713 9.60026C16.2556 9.60026 13.1535 11.5878 13.1535 15.325C13.1737 16.5774 13.6122 17.7841 14.3948 18.7406C15.1774 19.6972 16.2559 20.3448 17.4477 20.5739L20.7801 21.3437C21.4256 21.4134 22.0253 21.7203 22.4703 22.2083C22.9153 22.6964 23.176 23.3333 23.2049 24.0031C23.1711 24.477 23.0456 24.939 22.836 25.3619C22.6264 25.7849 22.3369 26.1601 21.9846 26.4654C21.6322 26.7707 21.2242 27 20.7847 27.1396C20.3452 27.2793 19.883 27.3265 19.4255 27.2784C18.4584 27.2929 17.5131 26.9809 16.7331 26.3897C15.9532 25.7986 15.3813 24.9607 15.1042 24.0031L12.5846 25.0809C13.107 26.5357 14.0594 27.7836 15.3067 28.6479C16.554 29.5121 18.033 29.9487 19.5339 29.8959C20.3576 29.9626 21.1859 29.8556 21.9684 29.5814C22.7509 29.3071 23.4712 28.8714 24.0857 28.3006C24.7002 27.7299 25.196 27.036 25.5429 26.2611C25.8898 25.4862 26.0807 24.6466 26.1039 23.7932C26.102 22.563 25.6753 21.3739 24.9005 20.4399C24.1257 19.5059 23.0537 18.8883 21.8774 18.6983Z" fill="white"/>
</svg>
