<svg width="29" height="28" viewBox="0 0 29 28" fill="none" xmlns="http://www.w3.org/2000/svg">
<path d="M4.56452 4.12097C7.31184 1.37364 10.6236 0 14.5 0C18.3764 0 21.6787 1.36423 24.4073 4.09274C27.1358 6.82125 28.5 10.1236 28.5 14C28.5 17.8764 27.1358 21.1787 24.4073 23.9073C21.6787 26.6358 18.3764 28 14.5 28C10.6236 28 7.32125 26.6358 4.59274 23.9073C1.86423 21.1787 0.5 17.8764 0.5 14C0.5 10.1236 1.85483 6.83066 4.56452 4.12097ZM6.48387 22.0161C8.70431 24.1989 11.3763 25.2903 14.5 25.2903C17.6237 25.2903 20.2863 24.1895 22.4879 21.9879C24.6895 19.7863 25.7903 17.1237 25.7903 14C25.7903 10.8763 24.6895 8.21372 22.4879 6.0121C20.2863 3.81047 17.6237 2.70968 14.5 2.70968C11.3763 2.70968 8.71372 3.81047 6.5121 6.0121C4.31047 8.21372 3.20968 10.8763 3.20968 14C3.20968 17.1237 4.30106 19.7957 6.48387 22.0161ZM20.4839 16.7661C20.7473 16.6532 20.9919 16.6909 21.2177 16.879C21.4435 17.0672 21.5188 17.3118 21.4435 17.6129C21.2554 18.8925 20.4368 19.965 18.9879 20.8306C17.539 21.6962 16.043 22.129 14.5 22.129C13.5215 22.129 12.5242 21.9409 11.5081 21.5645C10.4919 21.1882 9.60753 20.6425 8.85484 19.9274C8.10215 19.2124 7.66935 18.4409 7.55645 17.6129C7.48118 17.3118 7.55645 17.0672 7.78226 16.879C8.00807 16.6909 8.25269 16.6532 8.51613 16.7661C10.0591 17.2554 12.0538 17.5 14.5 17.5C16.9462 17.5 18.9409 17.2554 20.4839 16.7661ZM11.2258 12.5887C10.8871 12.9274 10.4731 13.0968 9.98387 13.0968C9.49462 13.0968 9.07124 12.918 8.71371 12.5605C8.35618 12.203 8.17742 11.7796 8.17742 11.2903C8.17742 10.8011 8.35618 10.3777 8.71371 10.0202C9.07124 9.66263 9.49462 9.48387 9.98387 9.48387C10.4731 9.48387 10.8965 9.66263 11.254 10.0202C11.6116 10.3777 11.7903 10.8011 11.7903 11.2903C11.7903 11.7796 11.6022 12.2124 11.2258 12.5887ZM20.2581 12.5887C19.9194 12.9274 19.5054 13.0968 19.0161 13.0968C18.5269 13.0968 18.1035 12.918 17.746 12.5605C17.3884 12.203 17.2097 11.7796 17.2097 11.2903C17.2097 10.8011 17.3884 10.3777 17.746 10.0202C18.1035 9.66263 18.5269 9.48387 19.0161 9.48387C19.5054 9.48387 19.9288 9.66263 20.2863 10.0202C20.6438 10.3777 20.8226 10.8011 20.8226 11.2903C20.8226 11.7796 20.6344 12.2124 20.2581 12.5887Z" fill="white"/>
</svg>
