<svg width="83" height="20" viewBox="0 0 83 20" fill="none" xmlns="http://www.w3.org/2000/svg">
    <g clip-path="url(#clip0)">
        <path d="M43.1248 5.37746H40.4551L38.5658 8.69088H37.5934L37.5623 1.52002H35.035V14.4708H37.5623L37.5934 10.9163H38.5596L41.0683 14.4708H43.8682L40.5974 9.76034L43.1248 5.37746Z" fill="white"/>
        <path d="M62.2528 9.64254C61.7394 9.31095 61.1827 9.05098 60.5988 8.86985L60.0412 8.65965L59.8927 8.60401C59.5458 8.47421 59.1803 8.3382 59.1679 7.98583C59.1648 7.88146 59.1878 7.77796 59.2357 7.68501C59.2832 7.59205 59.3538 7.51262 59.4405 7.45422C59.6235 7.32833 59.838 7.25556 60.0599 7.24403C60.5438 7.21068 61.0236 7.35342 61.4102 7.64584L61.4783 7.68913L62.8287 6.1375L62.7606 6.08186C62.5925 5.9323 62.41 5.79977 62.2155 5.68622C61.8671 5.48738 61.4886 5.34744 61.0945 5.27204C60.5267 5.15151 59.9399 5.15151 59.3724 5.27204C58.8236 5.34452 58.303 5.55751 57.861 5.89021C57.5782 6.11092 57.342 6.38501 57.1655 6.69684C56.9893 7.00871 56.8762 7.35218 56.8327 7.70765C56.7553 8.34918 56.9184 8.99661 57.2911 9.52512C57.7858 10.072 58.4329 10.4594 59.1493 10.6378L59.2608 10.6749L59.5147 10.7615C60.4316 11.0705 60.6917 11.1942 60.8403 11.3797C60.9096 11.4729 60.9484 11.5851 60.9518 11.7011C60.9518 12.14 60.4129 12.3193 60.0474 12.4305C59.792 12.4784 59.5294 12.4735 59.2758 12.4161C59.0221 12.3587 58.7832 12.25 58.5734 12.0967C58.2337 11.8701 57.9431 11.5779 57.7184 11.2375C57.5761 11.3858 56.176 12.7644 56.2008 12.7891L56.2443 12.8509C56.9187 13.6937 57.8638 14.2788 58.9202 14.5076C59.1614 14.5542 59.4057 14.5852 59.6512 14.6003H59.9051C60.7396 14.6178 61.5569 14.3639 62.2341 13.8771C62.6922 13.5538 63.0434 13.1019 63.2439 12.5789C63.3657 12.2278 63.4086 11.8543 63.3701 11.4848C63.3315 11.1152 63.2125 10.7586 63.0207 10.44C62.8249 10.1223 62.5629 9.85038 62.2528 9.64254Z" fill="white"/>
        <path d="M70.4167 9.64266C69.9055 9.3111 69.3513 9.0511 68.7692 8.86993L68.2055 8.65977L68.0631 8.60413C67.7101 8.47429 67.3508 8.33829 67.3322 7.98595C67.3337 7.88177 67.3598 7.77945 67.4083 7.68711C67.4568 7.59481 67.5261 7.51507 67.6109 7.45431C67.794 7.32841 68.0084 7.25568 68.2303 7.24414C68.7142 7.21192 69.1935 7.35453 69.5807 7.64595L69.6426 7.68922L70.9929 6.13759L70.9311 6.08195C70.7617 5.93093 70.5771 5.79831 70.3797 5.68634C70.0335 5.48771 69.6568 5.34774 69.2646 5.27215C68.695 5.15147 68.1063 5.15147 67.5367 5.27215C66.9884 5.34678 66.4682 5.55951 66.025 5.89033C65.7406 6.10893 65.5023 6.3815 65.3235 6.69234C65.1452 7.00318 65.0299 7.34615 64.9845 7.7016C64.9034 8.34334 65.0668 8.99207 65.4429 9.51903C65.9377 10.0659 66.5847 10.4533 67.3011 10.6318L67.4064 10.6689L67.6604 10.7554C68.5834 11.0645 68.8435 11.1881 68.9921 11.3736C69.0636 11.4653 69.1008 11.5789 69.0974 11.695C69.0974 12.1339 68.5647 12.3132 68.1993 12.4245C67.9429 12.4725 67.679 12.4676 67.4245 12.4103C67.1699 12.3529 66.9297 12.2441 66.719 12.0907C66.3821 11.8607 66.0921 11.5692 65.864 11.2314C65.7279 11.3797 64.3278 12.7583 64.3464 12.783L64.3959 12.8448C65.0706 13.6876 66.0157 14.2727 67.072 14.5015C67.3132 14.5485 67.5575 14.5795 67.803 14.5943H68.0569C68.8914 14.6117 69.7088 14.3579 70.386 13.871C70.8441 13.5477 71.1952 13.0958 71.3957 12.5728C71.5172 12.2217 71.5604 11.8482 71.5219 11.4787C71.4833 11.1091 71.3643 10.7525 71.1726 10.4339C70.9792 10.1201 70.7216 9.85047 70.4167 9.64266Z" fill="white"/>
        <path d="M51.4249 5.37736V6.26755H51.3137C50.6219 5.57627 49.6845 5.18531 48.7059 5.17954C48.1057 5.16772 47.5096 5.28214 46.9571 5.51541C46.4042 5.74865 45.9066 6.0955 45.497 6.53335C44.6709 7.45654 44.228 8.65893 44.2582 9.89625C44.2262 11.1543 44.6681 12.3786 45.497 13.3271C45.897 13.7653 46.3865 14.1124 46.9328 14.3449C47.4789 14.5774 48.0687 14.6899 48.6623 14.6747C49.6426 14.6564 50.5852 14.2954 51.3258 13.6548H51.4249V14.4522H54.0514V5.37736H51.4249ZM51.5551 9.94569C51.5816 10.677 51.3367 11.3923 50.8674 11.9548C50.6427 12.2061 50.3651 12.405 50.0547 12.5374C49.7445 12.6699 49.4085 12.7327 49.0713 12.7213C48.7441 12.7268 48.4196 12.6585 48.1225 12.5215C47.8254 12.3845 47.5631 12.1823 47.3555 11.9301C46.8918 11.3559 46.654 10.6328 46.6864 9.89625C46.6652 9.1818 46.9076 8.4845 47.3676 7.93664C47.5796 7.68817 47.8437 7.48951 48.1415 7.35484C48.4392 7.2202 48.763 7.15286 49.0897 7.1577C49.425 7.14731 49.7582 7.21121 50.0655 7.34482C50.3729 7.47844 50.647 7.67846 50.8674 7.93043C51.3367 8.49536 51.5813 9.21254 51.5551 9.94569Z" fill="white"/>
        <path d="M79.993 5.37727V6.26743H79.8815C79.1912 5.57767 78.2567 5.18684 77.2799 5.17945C76.6791 5.16829 76.0824 5.28302 75.5286 5.51619C74.9751 5.74937 74.4763 6.09585 74.0651 6.53327C73.239 7.45645 72.7962 8.65882 72.8263 9.89616C72.7943 11.1542 73.2362 12.3785 74.0651 13.327C74.4651 13.7652 74.9546 14.1123 75.5006 14.3448C76.047 14.5774 76.6369 14.6899 77.2305 14.6747C78.2107 14.6563 79.153 14.2953 79.8939 13.6547H79.993V14.4521H82.6195V5.37727H79.993ZM80.1233 9.9456C80.1525 10.6774 79.9073 11.3937 79.4355 11.9547C79.2108 12.206 78.9332 12.4049 78.6228 12.5374C78.3123 12.6698 77.9767 12.7326 77.6391 12.7212C77.3119 12.7267 76.9877 12.6584 76.6906 12.5214C76.3935 12.3844 76.1312 12.1822 75.9233 11.93C75.4599 11.3559 75.2218 10.6328 75.2545 9.89616C75.2333 9.18171 75.4758 8.48441 75.9357 7.93652C76.1477 7.68808 76.4118 7.48939 76.7096 7.35475C77.0073 7.22008 77.3311 7.15278 77.6578 7.15762C77.9931 7.14719 78.3263 7.21112 78.6337 7.34473C78.941 7.47835 79.2148 7.67837 79.4355 7.93035C79.9073 8.49381 80.1522 9.21201 80.1233 9.9456Z" fill="white"/>
        <path d="M17.7829 0C12.3304 0 7.99316 4.39033 7.99316 9.77C7.99316 15.2115 12.3924 19.54 17.7829 19.54C23.1735 19.54 27.5727 15.1497 27.5727 9.77C27.5727 4.39033 23.1735 0 17.7829 0ZM17.7829 13.3565C15.8002 13.3565 14.1273 11.6869 14.1273 9.70816C14.1273 7.72944 15.8002 6.05988 17.7829 6.05988C19.7657 6.05988 21.4386 7.72944 21.4386 9.70816C21.3767 11.7487 19.7657 13.3565 17.7829 13.3565Z" fill="white"/>
        <path d="M7.93096 2.78271V17.0049H4.46115L0 2.78271H7.93096Z" fill="white"/>
    </g>
    <defs>
        <clipPath id="clip0">
            <rect width="82.6692" height="19.54" fill="white"/>
        </clipPath>
    </defs>
</svg>
