<svg width="86" height="81" viewBox="0 0 86 81" fill="none" xmlns="http://www.w3.org/2000/svg">
<path fill-rule="evenodd" clip-rule="evenodd" d="M82.6925 59.4714C84.8161 55.2217 86 50.4939 86 45.5122C86 27.0039 69.6584 12 49.5 12C29.3416 12 13 27.0039 13 45.5122C13 64.0204 29.3416 79.0243 49.5 79.0243C57.6604 79.0243 65.1953 76.5656 71.2739 72.4109C72.629 73.4061 74.0581 74.6214 75.4688 75.821C78.558 78.4481 81.5589 81 83.5 81C84.5 81 84.2145 79.5696 84 79C81.197 71.5569 81.2098 65.3246 82.6925 59.4714Z" fill="#FCE4E6"/>
<path d="M72.6925 50.4714L70.4562 49.3539C70.3759 49.5145 70.3132 49.6833 70.2691 49.8574L72.6925 50.4714ZM61.2739 63.4109L62.7537 61.3959C61.8983 60.7677 60.7394 60.7481 59.8632 61.347L61.2739 63.4109ZM65.4688 66.821L63.8492 68.7255H63.8493L65.4688 66.821ZM74 70L76.3396 69.1189L76.3396 69.1189L74 70ZM73.5 36.5122C73.5 41.0918 72.4128 45.4383 70.4562 49.3539L74.9289 51.5889C77.2194 47.0051 78.5 41.8959 78.5 36.5122H73.5ZM39.5 5.5C58.483 5.5 73.5 19.5813 73.5 36.5122H78.5C78.5 16.4265 60.8338 0.5 39.5 0.5V5.5ZM5.5 36.5122C5.5 19.5813 20.517 5.5 39.5 5.5V0.5C18.1662 0.5 0.5 16.4265 0.5 36.5122H5.5ZM39.5 67.5243C20.517 67.5243 5.5 53.443 5.5 36.5122H0.5C0.5 56.5978 18.1662 72.5243 39.5 72.5243V67.5243ZM59.8632 61.347C54.1991 65.2183 47.1556 67.5243 39.5 67.5243V72.5243C48.1652 72.5243 56.1916 69.9128 62.6846 65.4749L59.8632 61.347ZM67.0884 64.9166C65.6943 63.731 64.1944 62.4539 62.7537 61.3959L59.7941 65.4259C61.0636 66.3582 62.4219 67.5117 63.8492 68.7255L67.0884 64.9166ZM73.5 69.5C73.5285 69.5 73.3569 69.499 72.915 69.2934C72.4964 69.0987 71.9761 68.7873 71.3496 68.3483C70.0861 67.4629 68.6594 66.2525 67.0884 64.9166L63.8493 68.7255C65.3674 70.0166 66.9857 71.3957 68.4802 72.443C69.2328 72.9704 70.0197 73.4611 70.8062 73.827C71.5695 74.182 72.5009 74.5 73.5 74.5V69.5ZM71.6604 70.881C71.6598 70.8796 71.6659 70.896 71.6748 70.9275C71.6834 70.9579 71.6917 70.9922 71.6982 71.0261C71.7147 71.1119 71.7063 71.1212 71.7103 71.0576C71.712 71.0313 71.7297 70.6559 72.052 70.2389C72.2299 70.0088 72.4741 69.8035 72.7729 69.6661C73.0638 69.5323 73.3249 69.5 73.5 69.5V74.5C74.4273 74.5 75.3682 74.1247 76.0083 73.2963C76.5516 72.5932 76.6721 71.8247 76.7006 71.3696C76.7574 70.4601 76.5166 69.5888 76.3396 69.1189L71.6604 70.881ZM70.2691 49.8574C68.6659 56.186 68.6703 62.9411 71.6604 70.8811L76.3396 69.1189C73.7238 62.1727 73.7536 56.4632 75.116 51.0853L70.2691 49.8574Z" fill="#E62739"/>
<path d="M28.5312 31.5312C27.1554 31.5312 25.836 30.9847 24.8631 30.0119C23.8903 29.039 23.3438 27.7196 23.3438 26.3438C23.3438 25.6558 23.617 24.9961 24.1034 24.5097C24.5899 24.0233 25.2496 23.75 25.9375 23.75C26.6254 23.75 27.2851 24.0233 27.7716 24.5097C28.258 24.9961 28.5312 25.6558 28.5312 26.3438C28.5312 25.6558 28.8045 24.9961 29.2909 24.5097C29.7774 24.0233 30.4371 23.75 31.125 23.75C31.8129 23.75 32.4726 24.0233 32.9591 24.5097C33.4455 24.9961 33.7188 25.6558 33.7188 26.3438C33.7188 27.7196 33.1722 29.039 32.1994 30.0119C31.2265 30.9847 29.9071 31.5312 28.5312 31.5312Z" fill="#E62739"/>
<path d="M49.2812 31.5312C47.9054 31.5312 46.586 30.9847 45.6131 30.0119C44.6403 29.039 44.0938 27.7196 44.0938 26.3438C44.0938 25.6558 44.367 24.9961 44.8534 24.5097C45.3399 24.0233 45.9996 23.75 46.6875 23.75C47.3754 23.75 48.0351 24.0233 48.5216 24.5097C49.008 24.9961 49.2812 25.6558 49.2812 26.3438C49.2812 25.6558 49.5545 24.9961 50.0409 24.5097C50.5274 24.0233 51.1871 23.75 51.875 23.75C52.5629 23.75 53.2226 24.0233 53.7091 24.5097C54.1955 24.9961 54.4688 25.6558 54.4688 26.3438C54.4688 27.7196 53.9222 29.039 52.9494 30.0119C51.9765 30.9847 50.6571 31.5312 49.2812 31.5312Z" fill="#E62739"/>
<path d="M38.9062 54.875C30.3209 54.875 23.3438 49.065 23.3438 41.9062V39.3125C23.3438 38.6246 23.617 37.9649 24.1034 37.4784C24.5899 36.992 25.2496 36.7188 25.9375 36.7188H51.875C52.5629 36.7188 53.2226 36.992 53.7091 37.4784C54.1955 37.9649 54.4688 38.6246 54.4688 39.3125V41.9062C54.4688 49.065 47.4916 54.875 38.9062 54.875ZM28.5312 41.9062C28.5312 46.1859 33.1741 49.6875 38.9062 49.6875C44.6384 49.6875 49.2812 46.1859 49.2812 41.9062H28.5312Z" fill="#E62739"/>
<path d="M64.6594 5.39925C65.2312 4.54868 66.0035 3.85177 66.9081 3.36991C67.8127 2.88805 68.8219 2.63602 69.8469 2.63602C70.8718 2.63602 71.881 2.88805 72.7857 3.36991C73.6903 3.85177 74.4625 4.54868 75.0344 5.39925C77.0316 8.45988 74.8788 13.1805 72.4406 15.7743L64.6594 23.5555L56.8781 15.7743C54.44 13.1805 52.2872 8.45988 54.2844 5.39925C54.8562 4.54868 55.6285 3.85177 56.5331 3.36991C57.4377 2.88805 58.4469 2.63602 59.4719 2.63602C60.4968 2.63602 61.506 2.88805 62.4107 3.36991C63.3153 3.85177 64.0875 4.54868 64.6594 5.39925Z" fill="white"/>
<path d="M65.7267 28.0715C65.0462 28.0686 64.3942 27.7985 63.911 27.3193L56.1298 19.538C52.6801 15.9846 50.5273 10.019 53.1989 5.92084C53.9269 4.76966 54.923 3.81203 56.102 3.12994C57.281 2.44785 58.6077 2.06161 59.9685 2.00427C62.038 1.94104 64.0678 2.58106 65.7267 3.8199C67.3856 2.58106 69.4153 1.94104 71.4848 2.00427C72.8478 2.05465 74.1781 2.43498 75.3618 3.11263C76.5454 3.79028 77.5469 4.74502 78.2804 5.8949C80.8742 10.019 78.7732 15.9586 75.3754 19.4861L67.5942 27.2674C67.3531 27.5203 67.0634 27.7219 66.7425 27.8601C66.4216 27.9982 66.0761 28.0701 65.7267 28.0715ZM60.3057 7.19177H60.176C59.6503 7.22299 59.1399 7.38079 58.6883 7.65176C58.2367 7.92273 57.8572 8.29882 57.5823 8.74802C56.5188 10.3821 57.9195 13.9355 59.8648 15.9068L65.7267 21.8205L71.6923 15.8549C73.6117 13.8577 75.0123 10.3821 73.9489 8.72209C73.6739 8.27289 73.2945 7.89679 72.8429 7.62582C72.3912 7.35486 71.8808 7.19705 71.3551 7.16584C70.6713 7.16465 69.997 7.32636 69.3881 7.63758C68.7792 7.9488 68.2531 8.40058 67.8535 8.95552C67.6115 9.27276 67.2995 9.52986 66.9418 9.70684C66.5842 9.88381 66.1905 9.97588 65.7915 9.97588C65.3925 9.97588 64.9988 9.88381 64.6412 9.70684C64.2835 9.52986 63.9715 9.27276 63.7295 8.95552C63.3335 8.4174 62.8184 7.97817 62.2244 7.6722C61.6305 7.36623 60.9738 7.2018 60.3057 7.19177Z" fill="#E62739"/>
</svg>
