<svg width="86" height="81" viewBox="0 0 86 81" fill="none" xmlns="http://www.w3.org/2000/svg">
<path fill-rule="evenodd" clip-rule="evenodd" d="M82.6925 59.4714C84.8161 55.2217 86 50.4939 86 45.5122C86 27.0039 69.6584 12 49.5 12C29.3416 12 13 27.0039 13 45.5122C13 64.0204 29.3416 79.0243 49.5 79.0243C57.6604 79.0243 65.1953 76.5656 71.2739 72.4109C72.629 73.4061 74.0581 74.6214 75.4688 75.821C78.558 78.4481 81.5589 81 83.5 81C84.5 81 84.2145 79.5696 84 79C81.197 71.5569 81.2098 65.3246 82.6925 59.4714Z" fill="#FCE4E6"/>
<path d="M72.6925 50.4714L70.4562 49.3539C70.3759 49.5145 70.3132 49.6833 70.2691 49.8574L72.6925 50.4714ZM61.2739 63.4109L62.7537 61.3959C61.8983 60.7677 60.7394 60.7481 59.8632 61.347L61.2739 63.4109ZM65.4688 66.821L63.8492 68.7255H63.8493L65.4688 66.821ZM74 70L76.3396 69.1189L76.3396 69.1189L74 70ZM73.5 36.5122C73.5 41.0918 72.4128 45.4383 70.4562 49.3539L74.9289 51.5889C77.2194 47.0051 78.5 41.8959 78.5 36.5122H73.5ZM39.5 5.5C58.483 5.5 73.5 19.5813 73.5 36.5122H78.5C78.5 16.4265 60.8338 0.5 39.5 0.5V5.5ZM5.5 36.5122C5.5 19.5813 20.517 5.5 39.5 5.5V0.5C18.1662 0.5 0.5 16.4265 0.5 36.5122H5.5ZM39.5 67.5243C20.517 67.5243 5.5 53.443 5.5 36.5122H0.5C0.5 56.5978 18.1662 72.5243 39.5 72.5243V67.5243ZM59.8632 61.347C54.1991 65.2183 47.1556 67.5243 39.5 67.5243V72.5243C48.1652 72.5243 56.1916 69.9128 62.6846 65.4749L59.8632 61.347ZM67.0884 64.9166C65.6943 63.731 64.1944 62.4539 62.7537 61.3959L59.7941 65.4259C61.0636 66.3582 62.4219 67.5117 63.8492 68.7255L67.0884 64.9166ZM73.5 69.5C73.5285 69.5 73.3569 69.499 72.915 69.2934C72.4964 69.0987 71.9761 68.7873 71.3496 68.3483C70.0861 67.4629 68.6594 66.2525 67.0884 64.9166L63.8493 68.7255C65.3674 70.0166 66.9857 71.3957 68.4802 72.443C69.2328 72.9704 70.0197 73.4611 70.8062 73.827C71.5695 74.182 72.5009 74.5 73.5 74.5V69.5ZM71.6604 70.881C71.6598 70.8796 71.6659 70.896 71.6748 70.9275C71.6834 70.9579 71.6917 70.9922 71.6982 71.0261C71.7147 71.1119 71.7063 71.1212 71.7103 71.0576C71.712 71.0313 71.7297 70.6559 72.052 70.2389C72.2299 70.0088 72.4741 69.8035 72.7729 69.6661C73.0638 69.5323 73.3249 69.5 73.5 69.5V74.5C74.4273 74.5 75.3682 74.1247 76.0083 73.2963C76.5516 72.5932 76.6721 71.8247 76.7006 71.3696C76.7574 70.4601 76.5166 69.5888 76.3396 69.1189L71.6604 70.881ZM70.2691 49.8574C68.6659 56.186 68.6703 62.9411 71.6604 70.8811L76.3396 69.1189C73.7238 62.1727 73.7536 56.4632 75.116 51.0853L70.2691 49.8574Z" fill="#E62739"/>
<path d="M43.75 43.75C33.6863 43.75 32.7525 44.165 31.5594 42.9978C30.9849 44.1841 30.7211 45.4968 30.7928 46.8129C30.8645 48.129 31.2693 49.4053 31.9693 50.5221C32.6693 51.6389 33.6415 52.5596 34.7948 53.1978C35.948 53.836 37.2445 54.1708 38.5625 54.1708C39.8806 54.1708 41.177 53.836 42.3302 53.1978C43.4835 52.5596 44.4557 51.6389 45.1557 50.5221C45.8557 49.4053 46.2605 48.129 46.3322 46.8129C46.4039 45.4968 46.1402 44.1841 45.5656 42.9978C45.0825 43.477 44.4304 43.7471 43.75 43.75Z" fill="#F7F7F5"/>
<path d="M38.5625 35.9688C36.5105 35.9688 34.5046 36.5772 32.7985 37.7173C31.0923 38.8573 29.7625 40.4776 28.9773 42.3734C28.192 44.2692 27.9865 46.3553 28.3869 48.3678C28.7872 50.3804 29.7753 52.229 31.2263 53.68C32.6772 55.1309 34.5259 56.1191 36.5384 56.5194C38.551 56.9197 40.6371 56.7143 42.5328 55.929C44.4286 55.1437 46.049 53.8139 47.189 52.1078C48.329 50.4016 48.9375 48.3957 48.9375 46.3437C48.9375 43.5921 47.8444 40.9532 45.8987 39.0075C43.953 37.0618 41.3141 35.9688 38.5625 35.9688ZM38.5625 51.5312C37.6546 51.5258 36.764 51.2821 35.9797 50.8246C35.1954 50.3671 34.545 49.7117 34.0934 48.924C33.6418 48.1363 33.4048 47.2439 33.4062 46.336C33.4076 45.428 33.6473 44.5363 34.1013 43.75H43.0238C43.4777 44.5363 43.7174 45.428 43.7188 46.336C43.7202 47.2439 43.4832 48.1363 43.0316 48.924C42.58 49.7117 41.9296 50.3671 41.1453 50.8246C40.3611 51.2821 39.4704 51.5258 38.5625 51.5312Z" fill="#E62739"/>
<path d="M28.1875 33.375C27.1615 33.375 26.1586 33.0708 25.3055 32.5007C24.4524 31.9307 23.7875 31.1206 23.3949 30.1727C23.0022 29.2248 22.8995 28.1817 23.0997 27.1755C23.2998 26.1692 23.7939 25.2449 24.5194 24.5194C25.2449 23.7939 26.1692 23.2998 27.1755 23.0997C28.1817 22.8995 29.2248 23.0022 30.1727 23.3949C31.1206 23.7875 31.9307 24.4524 32.5008 25.3055C33.0708 26.1586 33.375 27.1615 33.375 28.1875C33.375 29.5633 32.8285 30.8828 31.8556 31.8556C30.8828 32.8285 29.5633 33.375 28.1875 33.375Z" fill="#E62739"/>
<path d="M48.9375 33.375C47.9115 33.375 46.9086 33.0708 46.0555 32.5007C45.2024 31.9307 44.5375 31.1206 44.1449 30.1727C43.7522 29.2248 43.6495 28.1817 43.8497 27.1755C44.0498 26.1692 44.5439 25.2449 45.2694 24.5194C45.9949 23.7939 46.9192 23.2998 47.9255 23.0997C48.9317 22.8995 49.9748 23.0022 50.9227 23.3949C51.8706 23.7875 52.6807 24.4524 53.2507 25.3055C53.8208 26.1586 54.125 27.1615 54.125 28.1875C54.125 29.5633 53.5785 30.8828 52.6056 31.8556C51.6328 32.8285 50.3133 33.375 48.9375 33.375Z" fill="#E62739"/>
<circle cx="70" cy="15" r="13" fill="#E62739"/>
<path d="M68.908 18.2204L68.8371 17.9544C68.752 17.635 68.7111 17.2913 68.7111 16.926C68.7111 16.2214 68.8692 15.6083 69.211 15.1143L69.2152 15.1082C69.5384 14.6606 69.9992 14.1835 70.5871 13.6764C71.1153 13.2153 71.4927 12.8136 71.7324 12.4708L71.737 12.4642C71.9586 12.1619 72.0778 11.7814 72.0778 11.2993C72.0778 10.846 71.9331 10.4971 71.6461 10.2211L71.6414 10.2167L71.637 10.212C71.3675 9.93345 70.9679 9.77025 70.3885 9.77025C70.0484 9.77025 69.7699 9.84631 69.5411 9.98497L69.5311 9.99103C69.2766 10.1334 69.0832 10.2987 68.9416 10.4827C68.7939 10.6779 68.7163 10.8307 68.684 10.9433L68.5653 11.357L66 9.98171L66.1794 9.64517C66.3858 9.25779 66.5999 8.90272 66.8219 8.58061L66.8275 8.57248C67.0982 8.20165 67.551 7.85653 68.1425 7.5256C68.7828 7.16742 69.5752 7 70.5013 7C71.3477 7 72.1148 7.17722 72.7948 7.54094C73.4836 7.88927 74.0286 8.38152 74.417 9.02035C74.8052 9.64549 75 10.341 75 11.0976C75 11.7703 74.8933 12.3707 74.6665 12.8873C74.4516 13.3769 74.1857 13.7966 73.8654 14.14C73.576 14.4502 73.2006 14.7966 72.7426 15.1785C72.2469 15.5904 71.9044 15.9224 71.7014 16.1764C71.5353 16.3842 71.4452 16.6459 71.4452 16.9865C71.4452 17.2433 71.4572 17.5217 71.4815 17.8219L71.5138 18.2204H68.908Z" fill="white"/>
<path d="M69.1121 22.4893L69.1064 22.4829C68.7927 22.1298 68.6358 21.6953 68.6358 21.2014C68.6358 20.6977 68.7908 20.2582 69.1122 19.9136C69.4427 19.5592 69.8571 19.3827 70.332 19.3827C70.7965 19.3827 71.2025 19.5607 71.5302 19.9105C71.8643 20.2533 72.0282 20.6936 72.0282 21.2014C72.0282 21.7009 71.8613 22.1374 71.5331 22.4893L71.5272 22.4956C71.1979 22.8319 70.7927 23 70.332 23C69.8622 23 69.4497 22.8341 69.1181 22.4955L69.1121 22.4893Z" fill="white"/>
</svg>
