<svg width="86" height="81" viewBox="0 0 86 81" fill="none" xmlns="http://www.w3.org/2000/svg">
<path fill-rule="evenodd" clip-rule="evenodd" d="M82.6925 59.4714C84.8161 55.2217 86 50.4939 86 45.5122C86 27.0039 69.6584 12 49.5 12C29.3416 12 13 27.0039 13 45.5122C13 64.0204 29.3416 79.0243 49.5 79.0243C57.6604 79.0243 65.1953 76.5656 71.2739 72.4109C72.629 73.4061 74.0581 74.6214 75.4688 75.821C78.558 78.4481 81.5589 81 83.5 81C84.5 81 84.2145 79.5696 84 79C81.197 71.5569 81.2098 65.3246 82.6925 59.4714Z" fill="#FCE4E6"/>
<path d="M72.6925 50.4714L70.4562 49.3539C70.3759 49.5145 70.3132 49.6833 70.2691 49.8574L72.6925 50.4714ZM61.2739 63.4109L62.7537 61.3959C61.8983 60.7677 60.7394 60.7481 59.8632 61.347L61.2739 63.4109ZM65.4688 66.821L63.8492 68.7255H63.8493L65.4688 66.821ZM74 70L76.3396 69.1189L76.3396 69.1189L74 70ZM73.5 36.5122C73.5 41.0918 72.4128 45.4383 70.4562 49.3539L74.9289 51.5889C77.2194 47.0051 78.5 41.8959 78.5 36.5122H73.5ZM39.5 5.5C58.483 5.5 73.5 19.5813 73.5 36.5122H78.5C78.5 16.4265 60.8338 0.5 39.5 0.5V5.5ZM5.5 36.5122C5.5 19.5813 20.517 5.5 39.5 5.5V0.5C18.1662 0.5 0.5 16.4265 0.5 36.5122H5.5ZM39.5 67.5243C20.517 67.5243 5.5 53.443 5.5 36.5122H0.5C0.5 56.5978 18.1662 72.5243 39.5 72.5243V67.5243ZM59.8632 61.347C54.1991 65.2183 47.1556 67.5243 39.5 67.5243V72.5243C48.1652 72.5243 56.1916 69.9128 62.6846 65.4749L59.8632 61.347ZM67.0884 64.9166C65.6943 63.731 64.1944 62.4539 62.7537 61.3959L59.7941 65.4259C61.0636 66.3582 62.4219 67.5117 63.8492 68.7255L67.0884 64.9166ZM73.5 69.5C73.5285 69.5 73.3569 69.499 72.915 69.2934C72.4964 69.0987 71.9761 68.7873 71.3496 68.3483C70.0861 67.4629 68.6594 66.2525 67.0884 64.9166L63.8493 68.7255C65.3674 70.0166 66.9857 71.3957 68.4802 72.443C69.2328 72.9704 70.0197 73.4611 70.8062 73.827C71.5695 74.182 72.5009 74.5 73.5 74.5V69.5ZM71.6604 70.881C71.6598 70.8796 71.6659 70.896 71.6748 70.9275C71.6834 70.9579 71.6917 70.9922 71.6982 71.0261C71.7147 71.1119 71.7063 71.1212 71.7103 71.0576C71.712 71.0313 71.7297 70.6559 72.052 70.2389C72.2299 70.0088 72.4741 69.8035 72.7729 69.6661C73.0638 69.5323 73.3249 69.5 73.5 69.5V74.5C74.4273 74.5 75.3682 74.1247 76.0083 73.2963C76.5516 72.5932 76.6721 71.8247 76.7006 71.3696C76.7574 70.4601 76.5166 69.5888 76.3396 69.1189L71.6604 70.881ZM70.2691 49.8574C68.6659 56.186 68.6703 62.9411 71.6604 70.8811L76.3396 69.1189C73.7238 62.1727 73.7536 56.4632 75.116 51.0853L70.2691 49.8574Z" fill="#E62739"/>
<path d="M48.8333 33.3333C47.8115 33.3333 46.8125 33.0303 45.9629 32.4626C45.1132 31.8949 44.451 31.088 44.0599 30.1439C43.6689 29.1998 43.5666 28.1609 43.7659 27.1587C43.9653 26.1565 44.4574 25.2359 45.1799 24.5133C45.9025 23.7907 46.8231 23.2986 47.8254 23.0993C48.8276 22.8999 49.8664 23.0022 50.8105 23.3933C51.7546 23.7843 52.5615 24.4466 53.1293 25.2962C53.697 26.1459 54 27.1448 54 28.1667C54 29.537 53.4556 30.8511 52.4867 31.8201C51.5178 32.789 50.2036 33.3333 48.8333 33.3333Z" fill="#E62739"/>
<path d="M28.1667 33.3333C27.1448 33.3333 26.1459 33.0303 25.2962 32.4626C24.4466 31.8949 23.7843 31.088 23.3933 30.1439C23.0022 29.1998 22.8999 28.1609 23.0993 27.1587C23.2986 26.1565 23.7907 25.2359 24.5133 24.5133C25.2359 23.7907 26.1565 23.2986 27.1587 23.0993C28.1609 22.8999 29.1998 23.0022 30.1439 23.3933C31.0879 23.7843 31.8949 24.4466 32.4626 25.2962C33.0303 26.1459 33.3333 27.1448 33.3333 28.1667C33.3333 29.537 32.789 30.8511 31.8201 31.8201C30.8511 32.789 29.537 33.3333 28.1667 33.3333Z" fill="#E62739"/>
<path d="M38.5 54C29.9492 54 23 48.2133 23 41.0833C23 40.3982 23.2722 39.7411 23.7566 39.2566C24.2411 38.7722 24.8982 38.5 25.5833 38.5C26.2685 38.5 26.9256 38.7722 27.41 39.2566C27.8945 39.7411 28.1667 40.3982 28.1667 41.0833C28.1667 45.3458 32.7908 48.8333 38.5 48.8333C44.2092 48.8333 48.8333 45.3458 48.8333 41.0833C48.8333 40.3982 49.1055 39.7411 49.59 39.2566C50.0744 38.7722 50.7315 38.5 51.4167 38.5C52.1018 38.5 52.7589 38.7722 53.2434 39.2566C53.7278 39.7411 54 40.3982 54 41.0833C54 48.2133 47.0508 54 38.5 54Z" fill="#E62739"/>
</svg>
