<svg width="31" height="24" viewBox="0 0 31 24" fill="none" xmlns="http://www.w3.org/2000/svg">
<path fill-rule="evenodd" clip-rule="evenodd" d="M4 0C1.79086 0 0 1.79086 0 4V20C0 22.2091 1.79086 24 4 24H27C29.2091 24 31 22.2091 31 20V4C31 1.79086 29.2091 0 27 0H4ZM16.6828 12C16.6828 15.4957 14.0079 18 10.3323 18C6.67484 18 4 15.4957 4 12C4 8.50435 6.67484 6 10.3323 6C14.0079 6 16.6828 8.50435 16.6828 12ZM6.65665 12C6.65665 14.1565 8.09415 15.8087 10.3323 15.8087C12.5704 15.8087 14.0261 14.1565 14.0261 12C14.0261 9.82609 12.5704 8.1913 10.3323 8.1913C8.09415 8.1913 6.65665 9.82609 6.65665 12ZM23.4699 17.7913V8.36522H27V6.1913H17.3196V8.36522H20.8679V17.7913H23.4699Z" fill="white"/>
</svg>
