<svg width="17" height="10" viewBox="0 0 17 10" fill="none" xmlns="http://www.w3.org/2000/svg">
<path d="M16.8412 1.63213C17.043 1.44371 17.0539 1.12732 16.8655 0.925442C16.6771 0.723567 16.3607 0.712657 16.1588 0.901074L16.8412 1.63213ZM8.5 8.73327L8.15884 9.0988C8.35094 9.27809 8.64906 9.27809 8.84116 9.0988L8.5 8.73327ZM0.841159 0.901073C0.639284 0.712656 0.322889 0.723566 0.134472 0.925442C-0.0539455 1.12732 -0.0430355 1.44371 0.15884 1.63213L0.841159 0.901073ZM16.1588 0.901074L8.15884 8.36774L8.84116 9.0988L16.8412 1.63213L16.1588 0.901074ZM8.84116 8.36774L0.841159 0.901073L0.15884 1.63213L8.15884 9.0988L8.84116 8.36774Z" fill="#4F4F4F"/>
</svg>
