<svg width="17" height="9" viewBox="0 0 17 9" fill="none" xmlns="http://www.w3.org/2000/svg">
<path d="M16.3412 1.36553C16.543 1.17711 16.5539 0.860716 16.3655 0.658841C16.1771 0.456966 15.8607 0.446055 15.6588 0.634472L16.3412 1.36553ZM8 8.46667L7.65884 8.83219C7.85094 9.01149 8.14906 9.01149 8.34116 8.83219L8 8.46667ZM0.341159 0.634472C0.139284 0.446055 -0.177111 0.456966 -0.365528 0.658841C-0.553946 0.860716 -0.543036 1.17711 -0.34116 1.36553L0.341159 0.634472ZM15.6588 0.634472L7.65884 8.10114L8.34116 8.83219L16.3412 1.36553L15.6588 0.634472ZM8.34116 8.10114L0.341159 0.634472L-0.34116 1.36553L7.65884 8.83219L8.34116 8.10114Z" fill="white"/>
</svg>
