<svg width="5" height="10" viewBox="0 0 5 10" fill="none" xmlns="http://www.w3.org/2000/svg">
<path d="M1.41603 0.22265C1.26285 -0.00711447 0.952414 -0.0692014 0.72265 0.0839749C0.492886 0.237151 0.430799 0.547586 0.583975 0.77735L1.41603 0.22265ZM4 5L4.41603 5.27735C4.52799 5.1094 4.52799 4.8906 4.41603 4.72265L4 5ZM0.583975 9.22265C0.430799 9.45241 0.492886 9.76285 0.72265 9.91603C0.952414 10.0692 1.26285 10.0071 1.41603 9.77735L0.583975 9.22265ZM0.583975 0.77735L3.58397 5.27735L4.41603 4.72265L1.41603 0.22265L0.583975 0.77735ZM3.58397 4.72265L0.583975 9.22265L1.41603 9.77735L4.41603 5.27735L3.58397 4.72265Z" fill="#4F4F4F"/>
</svg>
