<svg width="9" height="18" viewBox="0 0 9 18" fill="none" xmlns="http://www.w3.org/2000/svg">
<path d="M1.36553 0.658841C1.17711 0.456966 0.860716 0.446055 0.658841 0.634472C0.456966 0.822889 0.446055 1.13928 0.634472 1.34116L1.36553 0.658841ZM8.46667 9L8.83219 9.34116C9.01149 9.14906 9.01149 8.85094 8.83219 8.65884L8.46667 9ZM0.634472 16.6588C0.446055 16.8607 0.456966 17.1771 0.658841 17.3655C0.860716 17.5539 1.17711 17.543 1.36553 17.3412L0.634472 16.6588ZM0.634472 1.34116L8.10114 9.34116L8.83219 8.65884L1.36553 0.658841L0.634472 1.34116ZM8.10114 8.65884L0.634472 16.6588L1.36553 17.3412L8.83219 9.34116L8.10114 8.65884Z" fill="#2C2C2C"/>
</svg>
