<svg width="22" height="20" viewBox="0 0 22 20" fill="none" xmlns="http://www.w3.org/2000/svg">
<path fill-rule="evenodd" clip-rule="evenodd" d="M10.4996 0C13.2489 0 15.7477 1.12298 17.5593 2.93253L19.0665 1.42526C19.5587 0.933055 20.3568 0.933055 20.849 1.42526C21.3412 1.91746 21.3412 2.71555 20.849 3.20775L19.117 4.93983C21.4424 8.87643 20.7801 13.8473 17.5634 17.0641C13.6488 20.9787 7.35052 20.9786 3.43594 17.0641C-0.478646 13.1495 -0.478646 6.85115 3.43594 2.93657C5.24785 1.12466 7.74818 0 10.4996 0ZM6.76033 10.1786C6.26813 9.68637 6.26813 8.88828 6.76033 8.39608C7.25253 7.90387 8.05063 7.90387 8.54283 8.39608L10.3192 10.1725L15.7767 4.71503C12.8462 1.78897 8.1466 1.79082 5.21826 4.71906C2.28842 7.64891 2.28842 12.3517 5.21826 15.2815C8.14819 18.2114 12.8509 18.2114 15.7807 15.2815C18.0086 13.0536 18.6252 9.67158 17.2548 6.80182L11.2104 12.8462C10.7182 13.3384 9.9201 13.3384 9.4279 12.8462L6.76033 10.1786Z" fill="#3EBD6B"/>
</svg>
