<svg width="22" height="22" viewBox="0 0 22 22" fill="none" xmlns="http://www.w3.org/2000/svg">
<path fill-rule="evenodd" clip-rule="evenodd" d="M19.9032 21.506C20.2937 21.8965 20.9268 21.8965 21.3174 21.506C21.7079 21.1154 21.7079 20.4823 21.3174 20.0918L12.2194 10.9938L21.3174 1.8958C21.7079 1.50527 21.7079 0.872106 21.3174 0.481582C20.9268 0.0910576 20.2937 0.0910581 19.9032 0.481582L10.8052 9.57956L1.70711 0.481492C1.31658 0.0909675 0.683417 0.0909676 0.292893 0.481492C-0.0976313 0.872016 -0.0976308 1.50518 0.292893 1.89571L9.39096 10.9938L0.292893 20.0918C-0.0976311 20.4824 -0.097631 21.1155 0.292893 21.5061C0.683417 21.8966 1.31658 21.8966 1.70711 21.5061L10.8052 12.408L19.9032 21.506Z" fill="white"/>
</svg>
