<svg width="40" height="40" viewBox="0 0 40 40" fill="none" xmlns="http://www.w3.org/2000/svg">
<circle cx="20" cy="20" r="19" stroke="#E62739" stroke-width="2"/>
<path fill-rule="evenodd" clip-rule="evenodd" d="M14.4279 13.0141C14.0374 12.6236 13.4042 12.6236 13.0137 13.0141C12.6232 13.4046 12.6232 14.0378 13.0137 14.4283L18.5859 20.0005L13.0141 25.5723C12.6236 25.9628 12.6236 26.596 13.0141 26.9865C13.4047 27.377 14.0378 27.377 14.4283 26.9865L20.0001 21.4147L25.5718 26.9865C25.9623 27.377 26.5955 27.377 26.986 26.9865C27.3765 26.596 27.3765 25.9628 26.986 25.5723L21.4143 20.0005L26.9864 14.4283C27.3769 14.0378 27.3769 13.4046 26.9864 13.0141C26.5959 12.6236 25.9627 12.6236 25.5722 13.0141L20.0001 18.5863L14.4279 13.0141Z" fill="#E62739"/>
</svg>
