<svg width="32" height="32" viewBox="0 0 32 32" fill="none" xmlns="http://www.w3.org/2000/svg">
<path fill-rule="evenodd" clip-rule="evenodd" d="M16 30C23.732 30 30 23.732 30 16C30 8.26801 23.732 2 16 2C8.26801 2 2 8.26801 2 16C2 23.732 8.26801 30 16 30ZM16 32C24.8366 32 32 24.8366 32 16C32 7.16344 24.8366 0 16 0C7.16344 0 0 7.16344 0 16C0 24.8366 7.16344 32 16 32Z" fill="black"/>
<path d="M15.9991 14.3256L19.3489 10.9759C19.8106 10.5141 20.5632 10.5158 21.0241 10.9767C21.485 11.4376 21.4867 12.1902 21.025 12.652L17.6753 16.0017L21.0275 19.3539C21.4968 19.8232 21.4909 20.5665 21.0283 21.0291C20.5665 21.4909 19.8223 21.4976 19.353 21.0283L16.0008 17.6761L12.6528 21.0241C12.191 21.4859 11.4468 21.4926 10.9775 21.0233C10.5166 20.5624 10.5149 19.8098 10.9767 19.348L14.3247 16L10.9725 12.6478C10.5032 12.1785 10.5099 11.4343 10.9717 10.9725C11.4343 10.5099 12.1776 10.504 12.6469 10.9734L15.9991 14.3256Z" fill="black"/>
</svg>
