<svg width="29" height="18" viewBox="0 0 29 18" fill="none" xmlns="http://www.w3.org/2000/svg">
<path d="M-5.1288e-07 7.00006L0.999999 7.00006C2.104 7.00006 3 7.89806 3 9.00006C3 10.1021 2.104 11.0001 1 11.0001L-3.26378e-07 11.0001L0 18.0001L28.0726 18.0001L28.0726 11.0001L27.0726 11.0001C25.9686 11.0001 25.0726 10.1021 25.0726 9.00006C25.0726 7.89806 25.9686 7.00006 27.0726 7.00006L28.0726 7.00006L28.0726 6.17921e-05L-8.39259e-07 5.91278e-05L-5.1288e-07 7.00006ZM2 12.8741C3.722 12.4281 5 10.8601 5 9.00006C5 7.14006 3.722 5.57206 2 5.12606L2 2.00006L14 2.00006L14 9.00006L14 16.0001L2 16.0001L2 12.8741ZM26.0726 5.12606C24.3506 5.57006 23.0726 7.13806 23.0726 9.00006C23.0726 10.8621 24.3506 12.4281 26.0726 12.8741L26.0726 16.0001L14 16.0001L14 9.00006L14 2.00006L26.0726 2.00006L26.0726 5.12606Z" fill="#4F4F4F"/>
<path d="M8.0004 6.36893C8.0004 7.76319 9.03485 8.87261 10.669 8.87261C12.3181 8.87261 13.3676 7.76319 13.3676 6.36893C13.3676 4.95967 12.3181 3.83527 10.669 3.83527C9.03485 3.83527 8.0004 4.95967 8.0004 6.36893ZM10.1972 13.9849H11.6514L18.053 3.9852H16.5838L10.1972 13.9849ZM11.5385 6.36893C11.5385 7.01359 11.1487 7.28345 10.669 7.28345C10.2042 7.28345 9.82943 7.01359 9.82943 6.36893C9.82943 5.69429 10.2042 5.42443 10.669 5.42443C11.1487 5.42443 11.5385 5.69429 11.5385 6.36893ZM14.8172 11.6612C14.8172 13.0554 15.8517 14.1648 17.4858 14.1648C19.12 14.1648 20.1694 13.0554 20.1694 11.6612C20.1694 10.2519 19.12 9.12749 17.4858 9.12749C15.8517 9.12749 14.8172 10.2519 14.8172 11.6612ZM18.3554 11.6612C18.3554 12.3208 17.9656 12.5757 17.4858 12.5757C17.0061 12.5757 16.6313 12.3208 16.6313 11.6612C16.6313 10.9865 17.0061 10.7167 17.4858 10.7167C17.9656 10.7167 18.3554 10.9865 18.3554 11.6612Z" fill="#4F4F4F"/>
</svg>
