<svg width="24" height="24" viewBox="0 0 24 24" fill="none" xmlns="http://www.w3.org/2000/svg">
<path d="M3 0V5H2V7H5V2H21V22H5V19H3V24H23V0H3ZM3 8V10H2V12H5V8H3ZM3 13.5V15.5H2V17.5H5V13.5H3Z" fill="#2C2C2C"/>
<path fill-rule="evenodd" clip-rule="evenodd" d="M15.4942 6.33844L14.9639 5.80811L14.4335 6.33844L8.48437 12.2876C8.17654 12.5954 7.99449 13.007 7.97379 13.4418L7.90308 14.9267C7.85398 15.9578 8.70331 16.8071 9.73433 16.758L11.2193 16.6873C11.6541 16.6666 12.0656 16.4845 12.3735 16.1767L18.3226 10.2275L18.853 9.69719L18.3226 9.16686L15.4942 6.33844ZM14.08 8.81331L14.9639 7.92943L16.7316 9.69719L15.8478 10.5811L14.08 8.81331ZM13.3729 9.52042L9.54503 13.3483C9.50105 13.3922 9.47505 13.451 9.47209 13.5131L9.40138 14.9981C9.39437 15.1454 9.5157 15.2667 9.66299 15.2597L11.1479 15.189C11.21 15.186 11.2688 15.16 11.3128 15.116L15.1406 11.2882L13.3729 9.52042Z" fill="#2C2C2C"/>
</svg>
