<svg width="22" height="21" viewBox="0 0 22 21" fill="none" xmlns="http://www.w3.org/2000/svg">
<path d="M11.3703 13.1941C15.1758 13.1941 18.8418 12.6467 21.8657 11.6789V5.29556H16.4692V2.31406C16.4692 1.45383 15.7992 0.75 14.9804 0.75H7.76025C6.94146 0.75 6.27154 1.45383 6.27154 2.31406V5.29556H0.875V11.6789C3.88962 12.6467 7.55555 13.1941 11.3703 13.1941ZM8.59764 3.19385H14.1431V5.29556H8.59764V3.19385Z" fill="white"/>
<path d="M13.0172 15.1001V16.0776C13.0172 16.3904 12.7753 16.6446 12.4776 16.6446H10.2631C9.96538 16.6446 9.72347 16.3904 9.72347 16.0776V15.1001C6.55068 14.973 3.51745 14.4842 0.875 13.7022V20.1246H21.875V13.712C19.2419 14.494 16.2179 14.9828 13.0172 15.1001Z" fill="white"/>
</svg>
