<svg width="16" height="24" viewBox="0 0 16 24" fill="none" xmlns="http://www.w3.org/2000/svg">
<path d="M4.16078 24C1.5015 15.2088 7.12048 11.999 7.12048 11.999C6.32471 16.8858 8.73731 21.0747 8.73731 21.0747C9.71459 20.7788 12.2271 18.6663 12.2271 18.6663C12.2271 20.3446 11.2429 23.9979 11.2429 23.9979C11.2429 23.9979 14.6884 21.3251 15.7731 16.8858C16.8563 12.4465 13.7098 7.98974 13.7098 7.98974C13.8994 11.1318 12.8398 14.2221 10.764 16.583C10.8679 16.4627 10.955 16.3291 11.0219 16.1844C11.3948 15.4361 11.9936 13.4913 11.643 8.98767C11.1495 2.66581 5.43988 0 5.43988 0C5.932 3.85186 4.45633 4.7393 0.999618 12.0507C-2.45709 19.3607 4.16078 24 4.16078 24Z" fill="white"/>
</svg>
