<svg width="16" height="16" viewBox="0 0 16 16" fill="none" xmlns="http://www.w3.org/2000/svg">
<circle cx="8" cy="8" r="8" fill="white"/>
<path fill-rule="evenodd" clip-rule="evenodd" d="M6.19539 4.7813C5.80487 4.39077 5.17171 4.39077 4.78118 4.78129C4.39065 5.17181 4.39065 5.80498 4.78117 6.19551L6.58573 8.00009L4.78125 9.80459C4.39073 10.1951 4.39074 10.8283 4.78126 11.2188C5.17179 11.6093 5.80495 11.6093 6.19548 11.2188L7.99994 9.41431L9.8044 11.2188C10.1949 11.6093 10.8281 11.6093 11.2186 11.2188C11.6091 10.8283 11.6091 10.1951 11.2186 9.80459L9.41414 8.00009L11.2187 6.19551C11.6092 5.80498 11.6092 5.17181 11.2187 4.78129C10.8282 4.39077 10.195 4.39077 9.80448 4.7813L7.99994 6.58587L6.19539 4.7813Z" fill="#E62739"/>
</svg>
