<svg width="15" height="16" viewBox="0 0 15 16" fill="none" xmlns="http://www.w3.org/2000/svg">
<path fill-rule="evenodd" clip-rule="evenodd" d="M12.9908 3.10244H13.8908C14.4671 3.10244 14.9343 3.56963 14.9343 4.14591V5.89954C14.9343 6.1877 14.7007 6.42129 14.4126 6.42129H1.02175C0.733594 6.42129 0.5 6.18766 0.5 5.89954V4.14591C0.5 3.56963 0.967156 3.10244 1.54347 3.10244H2.4364C2.2828 2.85944 2.18149 2.58666 2.15252 2.29825C2.0599 1.37588 2.54577 0.548721 3.37259 0.182096C4.13243 -0.154686 4.98637 -0.0174669 5.60252 0.540471L7.7029 3.1025L9.82459 0.540627C10.4397 -0.0173107 11.294 -0.155061 12.0542 0.181908C12.8812 0.548502 13.367 1.37538 13.2747 2.29778C13.2458 2.58641 13.1444 2.85931 12.9908 3.10244ZM6.28503 3.10244V2.92853C6.28503 2.92555 6.28515 2.92261 6.28526 2.91965C6.28535 2.9175 6.28543 2.91534 6.28547 2.91316L4.90218 1.31372C4.58202 1.02394 4.15977 0.967377 3.77859 1.14356C3.50099 1.27188 3.28637 1.52535 3.21502 1.82269C3.05305 2.49788 3.56343 3.10244 4.21193 3.10244H6.28503ZM11.167 3.1025C11.7106 3.1025 12.2005 2.70153 12.2393 2.15925C12.2756 1.65316 11.9842 1.23122 11.4881 1.08322C11.1423 0.980096 10.7683 1.09319 10.501 1.33547C10.2563 1.55731 10.0085 1.87653 9.77079 2.18277C9.55167 2.46508 9.34111 2.73637 9.14936 2.91019C9.14942 2.91635 9.1498 2.92244 9.1498 2.9286V3.1025H11.167ZM14.3016 14.9565V8H8.70103V16H13.2581C13.8344 16 14.3016 15.5328 14.3016 14.9565ZM7.1 16V8H1.5V14.9565C1.5 15.5328 1.96716 16 2.54347 16H7.1Z" fill="#E62739"/>
</svg>
