<svg width="49" height="48" viewBox="0 0 49 48" fill="none" xmlns="http://www.w3.org/2000/svg">
<circle cx="24.5" cy="24" r="22.5" stroke="#4F4F4F" stroke-width="3"/>
<path fill-rule="evenodd" clip-rule="evenodd" d="M33.5783 15.2354H35.0971C36.0696 15.2354 36.858 16.0238 36.858 16.9963V19.9555C36.858 20.4418 36.4638 20.836 35.9776 20.836H13.3805C12.8942 20.836 12.5 20.4417 12.5 19.9555V16.9963C12.5 16.0238 13.2883 15.2354 14.2609 15.2354H15.7677C15.5085 14.8253 15.3375 14.365 15.2886 13.8783C15.1323 12.3218 15.9523 10.926 17.3475 10.3073C18.6298 9.73897 20.0708 9.97052 21.1105 10.912L24.655 15.2355L28.2353 10.9123C29.2734 9.97079 30.715 9.73833 31.9978 10.307C33.3934 10.9256 34.2132 12.321 34.0574 13.8775C34.0086 14.3646 33.8375 14.8251 33.5783 15.2354ZM22.2623 15.2354V14.9419C22.2623 14.9369 22.2625 14.9319 22.2627 14.9269C22.2628 14.9233 22.263 14.9196 22.263 14.916L19.9287 12.2169C19.3884 11.7279 18.6759 11.6325 18.0326 11.9298C17.5642 12.1463 17.202 12.574 17.0816 13.0758C16.8083 14.2152 17.6696 15.2354 18.7639 15.2354H22.2623ZM30.5006 15.2355C31.418 15.2355 32.2446 14.5589 32.3102 13.6438C32.3714 12.7897 31.8797 12.0777 31.0425 11.8279C30.459 11.6539 29.8278 11.8448 29.3768 12.2536C28.9638 12.628 28.5457 13.1667 28.1445 13.6834C27.7748 14.1598 27.4194 14.6176 27.0959 14.911C27.0959 14.9157 27.0961 14.9204 27.0962 14.9251C27.0964 14.9307 27.0966 14.9364 27.0966 14.942V15.2355H30.5006ZM35.4577 35.2392V23.5H26.0068V37.0001H33.6968C34.6694 37.0001 35.4577 36.2117 35.4577 35.2392ZM23.305 37.0001V23.5H13.855V35.2392C13.855 36.2117 14.6433 37.0001 15.6158 37.0001H23.305Z" fill="#4F4F4F"/>
</svg>
