<svg width="13" height="14" viewBox="0 0 13 14" fill="none" xmlns="http://www.w3.org/2000/svg">
<path fill-rule="evenodd" clip-rule="evenodd" d="M10.409 2.91868H11.159C11.6393 2.91868 12.0286 3.308 12.0286 3.78824V5.2496C12.0286 5.48973 11.8339 5.68439 11.5938 5.68439H0.434792C0.194661 5.68439 0 5.4897 0 5.2496V3.78824C0 3.308 0.389297 2.91868 0.869557 2.91868H1.61367C1.48567 2.71618 1.40124 2.48886 1.3771 2.24852C1.29992 1.47988 1.70481 0.79058 2.39382 0.485059C3.02702 0.204408 3.73864 0.318757 4.2521 0.783705L6.00242 2.91873L7.77049 0.783835C8.28312 0.318887 8.99502 0.204096 9.62851 0.484903C10.3177 0.790398 10.7225 1.47946 10.6456 2.24813C10.6215 2.48865 10.537 2.71607 10.409 2.91868ZM4.82086 2.91868V2.77376C4.82086 2.77127 4.82096 2.76882 4.82105 2.76635C4.82112 2.76456 4.82119 2.76276 4.82122 2.76094L3.66848 1.42808C3.40169 1.1866 3.04981 1.13946 2.73215 1.28628C2.50083 1.39321 2.32197 1.60443 2.26252 1.85222C2.12755 2.41488 2.55286 2.91868 3.09327 2.91868H4.82086ZM8.88914 2.91873C9.34218 2.91873 9.75039 2.58459 9.78278 2.13269C9.81302 1.71094 9.57021 1.35933 9.15674 1.236C8.86862 1.15006 8.55692 1.2443 8.33416 1.44621C8.13022 1.63107 7.92374 1.89709 7.72566 2.15229C7.54306 2.38755 7.36759 2.61362 7.2078 2.75847C7.20783 2.7608 7.2079 2.76312 7.20798 2.76544C7.20807 2.76823 7.20817 2.77101 7.20817 2.77381V2.91873H8.88914ZM11.337 12.7971V6.99998H6.66989V13.6666H10.4674C10.9477 13.6666 11.337 13.2773 11.337 12.7971ZM5.33569 13.6666V6.99998H0.669026V12.7971C0.669026 13.2773 1.05832 13.6666 1.53858 13.6666H5.33569Z" fill="white"/>
</svg>
