<svg width="16" height="15" viewBox="0 0 16 15" fill="none" xmlns="http://www.w3.org/2000/svg">
<path fill-rule="evenodd" clip-rule="evenodd" d="M8.5129 3.02008L13.8465 0.69873L14.9091 6.41778L12.5269 5.15235C12.5208 5.16395 12.5145 5.17549 12.508 5.18694L9.52866 10.3888C9.39354 10.6247 9.16817 10.7954 8.90447 10.8617C8.64077 10.9279 8.36148 10.8839 8.13092 10.7398L4.98742 8.77513L2.0767 13.5382C1.78871 14.0095 1.17323 14.1581 0.701968 13.8701C0.230711 13.5821 0.0821388 12.9666 0.370123 12.4953L3.80755 6.87034C3.94676 6.64255 4.17126 6.47987 4.43108 6.41854C4.69089 6.3572 4.96445 6.40229 5.19083 6.54378L8.30965 8.493L10.7604 4.21398L8.5129 3.02008Z" fill="white"/>
<path d="M13.8465 0.69873L13.994 0.671331C13.9857 0.626388 13.9573 0.587705 13.9169 0.566261C13.8765 0.544816 13.8286 0.54295 13.7867 0.561192L13.8465 0.69873ZM8.5129 3.02008L8.45304 2.88254C8.40024 2.90553 8.36525 2.95671 8.36301 3.01425C8.36077 3.07179 8.39167 3.12554 8.44253 3.15255L8.5129 3.02008ZM14.9091 6.41778L14.8387 6.55025C14.8896 6.57727 14.9514 6.57278 14.9978 6.53871C15.0443 6.50464 15.0671 6.447 15.0566 6.39038L14.9091 6.41778ZM12.5269 5.15235L12.5973 5.01988C12.562 5.00114 12.5207 4.99725 12.4825 5.00908C12.4443 5.02091 12.4125 5.04748 12.3939 5.08291L12.5269 5.15235ZM12.508 5.18694L12.6381 5.26149L12.6381 5.26149L12.508 5.18694ZM9.52866 10.3888L9.65882 10.4633H9.65883L9.52866 10.3888ZM8.90447 10.8617L8.941 11.0071H8.94101L8.90447 10.8617ZM8.13092 10.7398L8.05142 10.867L8.05142 10.867L8.13092 10.7398ZM4.98742 8.77513L5.06692 8.64793C5.03296 8.62671 4.99193 8.61994 4.95295 8.62914C4.91398 8.63834 4.88031 8.66274 4.85942 8.69691L4.98742 8.77513ZM2.0767 13.5382L1.9487 13.46H1.9487L2.0767 13.5382ZM0.701968 13.8701L0.623752 13.9981H0.623752L0.701968 13.8701ZM0.370123 12.4953L0.498116 12.5736H0.498116L0.370123 12.4953ZM3.80755 6.87034L3.93555 6.94856L3.80755 6.87034ZM4.43108 6.41854L4.46554 6.56452L4.43108 6.41854ZM5.19083 6.54378L5.11133 6.67098H5.11133L5.19083 6.54378ZM8.30965 8.493L8.23015 8.6202C8.26473 8.64181 8.30663 8.64841 8.34618 8.63848C8.38574 8.62855 8.41954 8.60294 8.43981 8.56755L8.30965 8.493ZM10.7604 4.21398L10.8906 4.28853C10.9108 4.25329 10.9158 4.21138 10.9045 4.17236C10.8933 4.13334 10.8667 4.10057 10.8308 4.08151L10.7604 4.21398ZM13.7867 0.561192L8.45304 2.88254L8.57276 3.15762L13.9064 0.836269L13.7867 0.561192ZM15.0566 6.39038L13.994 0.671331L13.6991 0.72613L14.7616 6.44518L15.0566 6.39038ZM12.4565 5.28482L14.8387 6.55025L14.9794 6.28531L12.5973 5.01988L12.4565 5.28482ZM12.3939 5.08291C12.3888 5.09278 12.3834 5.10262 12.3778 5.1124L12.6381 5.26149C12.6457 5.24836 12.6529 5.23512 12.6599 5.2218L12.3939 5.08291ZM12.3778 5.11239L9.3985 10.3142L9.65883 10.4633L12.6381 5.26149L12.3778 5.11239ZM9.3985 10.3142C9.28364 10.5148 9.09208 10.6599 8.86794 10.7162L8.94101 11.0071C9.24426 10.931 9.50343 10.7346 9.65882 10.4633L9.3985 10.3142ZM8.86794 10.7162C8.64379 10.7725 8.40639 10.7351 8.21042 10.6126L8.05142 10.867C8.31657 11.0327 8.63775 11.0833 8.941 11.0071L8.86794 10.7162ZM8.21042 10.6126L5.06692 8.64793L4.90792 8.90233L8.05142 10.867L8.21042 10.6126ZM4.85942 8.69691L1.9487 13.46L2.20469 13.6164L5.11541 8.85335L4.85942 8.69691ZM1.9487 13.46C1.70392 13.8606 1.18075 13.9869 0.780184 13.7421L0.623752 13.9981C1.1657 14.3292 1.87351 14.1584 2.20469 13.6164L1.9487 13.46ZM0.780184 13.7421C0.379616 13.4973 0.25333 12.9741 0.498116 12.5736L0.24213 12.4171C-0.0890521 12.9591 0.0818061 13.6669 0.623752 13.9981L0.780184 13.7421ZM0.498116 12.5736L3.93555 6.94856L3.67956 6.79213L0.24213 12.4171L0.498116 12.5736ZM3.93555 6.94856C4.05387 6.75493 4.2447 6.61666 4.46554 6.56452L4.39661 6.27255C4.09782 6.34309 3.83964 6.53016 3.67956 6.79213L3.93555 6.94856ZM4.46554 6.56452C4.68639 6.51239 4.91891 6.55072 5.11133 6.67098L5.27033 6.41658C5.00999 6.25387 4.6954 6.20201 4.39661 6.27255L4.46554 6.56452ZM5.11133 6.67098L8.23015 8.6202L8.38914 8.3658L5.27033 6.41658L5.11133 6.67098ZM8.43981 8.56755L10.8906 4.28853L10.6303 4.13943L8.17948 8.41845L8.43981 8.56755ZM8.44253 3.15255L10.6901 4.34645L10.8308 4.08151L8.58327 2.88761L8.44253 3.15255Z" fill="white"/>
</svg>
