<svg width="21" height="20" viewBox="0 0 21 20" fill="none" xmlns="http://www.w3.org/2000/svg">
<path d="M9.41102 11.0114H11.5739L11.9077 5.35718H9.05054L9.41102 11.0114ZM9.07724 13.3028C9.07724 14.0234 9.71809 14.6429 10.4925 14.6429C11.2668 14.6429 11.9077 14.0234 11.9077 13.3028C11.9077 12.5696 11.2668 11.9501 10.4925 11.9501C9.71809 11.9501 9.07724 12.5696 9.07724 13.3028Z" fill="#4F4F4F"/>
<path fill-rule="evenodd" clip-rule="evenodd" d="M10.5 0C16.0025 0 20.4999 4.49738 20.4999 9.99996C20.4999 15.5025 16.0025 20 10.5 20C4.99737 20 0.5 15.5026 0.5 10C0.5 4.49738 4.99737 0 10.5 0ZM10.5 2.521C6.38905 2.521 3.021 5.88905 3.021 9.99996C3.021 14.1109 6.38905 17.4789 10.5 17.4789C14.6109 17.4789 17.9789 14.1109 17.9789 9.99996C17.9789 5.88914 14.6109 2.521 10.5 2.521Z" fill="#4F4F4F"/>
</svg>
