<svg width="21" height="18" viewBox="0 0 21 18" fill="none" xmlns="http://www.w3.org/2000/svg">
<path d="M4.4072 18C3.31644 18 2.39256 17.6872 1.63553 17.0617C0.878506 16.4362 0.5 15.5885 0.5 14.5185C0.5 13.7778 0.727918 13.0206 1.18376 12.2469L7.19109 2.09877C8.00509 0.699581 9.11212 0 10.5122 0C11.896 0 12.9949 0.699581 13.8089 2.09877L19.8407 12.2469C20.2802 12.9712 20.5 13.7366 20.5 14.5432C20.5 15.1687 20.3616 15.7119 20.0849 16.1728C19.3848 17.391 18.2289 18 16.6172 18H4.4072ZM10.5122 5.08642C10.0726 5.08642 9.69821 5.2428 9.38889 5.55556C9.07957 5.86831 8.92491 6.24691 8.92491 6.69136C8.92491 7.11934 9.08364 7.48971 9.4011 7.80247C9.71856 8.11523 10.0889 8.2716 10.5122 8.2716C10.9518 8.2716 11.3221 8.11523 11.6233 7.80247C11.9245 7.48971 12.0751 7.11934 12.0751 6.69136C12.0751 6.26337 11.9204 5.88889 11.6111 5.5679C11.3018 5.24691 10.9355 5.08642 10.5122 5.08642ZM12.2216 13.8025C12.3193 13.6872 12.3193 13.5844 12.2216 13.4938C12.1239 13.4033 12.0263 13.3827 11.9286 13.4321C11.603 13.5638 11.3588 13.6296 11.196 13.6296L11.0495 13.6049C10.8215 13.5062 10.789 13.2181 10.9518 12.7407L11.3669 11.4815C11.5786 10.8066 11.5541 10.2222 11.2937 9.72839C11.0332 9.23456 10.6099 8.97119 10.0238 8.93827C9.61681 8.92181 9.22609 8.99177 8.85165 9.14815C8.47721 9.30453 8.21266 9.45267 8.058 9.59259C7.90334 9.73251 7.80973 9.82716 7.77717 9.87654C7.67949 9.99177 7.67542 10.0988 7.76496 10.1975C7.8545 10.2963 7.95625 10.321 8.07021 10.2716C8.39581 10.1399 8.64001 10.0741 8.80281 10.0741L8.94933 10.0988C9.17725 10.1975 9.20981 10.4856 9.04701 10.963L8.63187 12.2222C8.40395 12.8971 8.4243 13.4774 8.69292 13.963C8.96154 14.4486 9.38889 14.7078 9.97497 14.7407H10.1215C10.5122 14.7407 10.8826 14.6626 11.2326 14.5062C11.5826 14.3498 11.8309 14.2058 11.9774 14.0741C12.1239 13.9424 12.2053 13.8519 12.2216 13.8025Z" fill="#4F4F4F"/>
</svg>
