<svg width="21" height="24" viewBox="0 0 21 24" fill="none" xmlns="http://www.w3.org/2000/svg">
<path d="M1 0V5H0V7H3V2H19V22H3V19H1V24H21V0H1ZM11 6C8.80078 6 7 7.80078 7 10C7 11.1133 7.47656 12.1172 8.21875 12.8438C6.88672 13.7461 6 15.2852 6 17H8C8 15.3438 9.34375 14 11 14C12.6562 14 14 15.3438 14 17H16C16 15.2852 15.1133 13.7461 13.7812 12.8438C14.5234 12.1172 15 11.1133 15 10C15 7.80078 13.1992 6 11 6ZM1 8V10H0V12H3V8H1ZM11 8C12.1172 8 13 8.88281 13 10C13 11.1172 12.1172 12 11 12C9.88281 12 9 11.1172 9 10C9 8.88281 9.88281 8 11 8ZM1 13.5V15.5H0V17.5H3V13.5H1Z" fill="#2C2C2C"/>
</svg>
