<svg width="24" height="24" viewBox="0 0 24 24" fill="none" xmlns="http://www.w3.org/2000/svg">
<path fill-rule="evenodd" clip-rule="evenodd" d="M22.7031 10.2032V22.5938H24V24H0V22.5938H1.29694V7.79681H5.39062V11.3124H4.03125V13.3125H5.39062V15.3124H4.03125V17.3124H5.39062V22.5938H6.79688V5.56549L8.79694 4.56537V2.29688H11.2969V0H12.7031V2.29688H15.2031V4.56555L17.2031 5.56549V22.5938H18.6094V14.8517H19.9688V12.8516H18.6094V10.2032H22.7031ZM9.79688 14.8515H11.2031V12.8514H9.79688V14.8515ZM11.2031 10.8516V8.85168H9.79688V10.8516H11.2031ZM11.2031 16.8516H9.79688V18.8516H11.2031V16.8516ZM12.7969 18.8516H14.2031V16.8516H12.7969V18.8516ZM12.7969 12.8514V14.8515H14.2031V12.8514H12.7969ZM12.7969 10.8516H14.2031V8.85168H12.7969V10.8516ZM20.2031 5.29688H18.6094V8.79694H20.2031V5.29688Z" fill="white"/>
</svg>
