<svg width="20" height="26" viewBox="0 0 20 26" fill="none" xmlns="http://www.w3.org/2000/svg">
<path fill-rule="evenodd" clip-rule="evenodd" d="M19 8.54237H16V5.69492C16 2.5497 13.3137 0 10 0C6.68629 0 4 2.5497 4 5.69492V8.54237H1C0.447715 8.54237 0 8.96732 0 9.49153V23.7288C0 24.7772 0.89543 25.6271 2 25.6271H18C19.1046 25.6271 20 24.7772 20 23.7288V9.49153C20 8.96732 19.5523 8.54237 19 8.54237ZM6 5.69491C6 3.59811 7.79086 1.8983 10 1.8983C12.2091 1.8983 14 3.59811 14 5.69491V8.54237H6V5.69491ZM18 22.7797C18 23.3036 17.55 23.7288 17 23.7288H3C2.44772 23.7288 2 23.3039 2 22.7797V21.8305H18V22.7797ZM18 21.8305H2V10.4407H4V11.3898C4 11.914 4.44772 12.339 5 12.339C5.55228 12.339 6 11.914 6 11.3898V10.4407H14V11.3898C14 11.914 14.4477 12.339 15 12.339C15.5523 12.339 16 11.914 16 11.3898V10.4407H18V21.8305Z" fill="white"/>
</svg>
