<svg width="17" height="20" viewBox="0 0 17 20" fill="none" xmlns="http://www.w3.org/2000/svg">
<path d="M11.875 13.75H4.375C4.20573 13.75 4.05925 13.8118 3.93555 13.9355C3.81185 14.0592 3.75 14.2057 3.75 14.375C3.75 14.5443 3.81185 14.6908 3.93555 14.8145C4.05925 14.9382 4.20573 15 4.375 15H11.875C12.0443 15 12.1908 14.9382 12.3145 14.8145C12.4382 14.6908 12.5 14.5443 12.5 14.375C12.5 14.2057 12.4382 14.0592 12.3145 13.9355C12.1908 13.8118 12.0443 13.75 11.875 13.75ZM11.875 10H4.375C4.20573 10 4.05925 10.0618 3.93555 10.1855C3.81185 10.3092 3.75 10.4557 3.75 10.625C3.75 10.7943 3.81185 10.9408 3.93555 11.0645C4.05925 11.1882 4.20573 11.25 4.375 11.25H11.875C12.0443 11.25 12.1908 11.1882 12.3145 11.0645C12.4382 10.9408 12.5 10.7943 12.5 10.625C12.5 10.4557 12.4382 10.3092 12.3145 10.1855C12.1908 10.0618 12.0443 10 11.875 10ZM11.25 0V0.0195312C11.2109 0.0195312 11.097 0.0162763 10.9082 0.00976558C10.7194 0.00325535 10.4167 0 10 0H2.5C1.80989 0 1.22071 0.244138 0.732422 0.732422C0.244138 1.22071 0 1.80989 0 2.5V17.5C0 18.1901 0.244138 18.7793 0.732422 19.2676C1.22071 19.7559 1.80989 20 2.5 20H13.75C14.4401 20 15.0293 19.7559 15.5176 19.2676C16.0059 18.7793 16.25 18.1901 16.25 17.5V5L11.25 0ZM15 17.5C15 17.8516 14.8763 18.1478 14.6289 18.3887C14.3815 18.6296 14.0885 18.75 13.75 18.75H2.5C2.16146 18.75 1.86849 18.6296 1.62109 18.3887C1.3737 18.1478 1.25 17.8516 1.25 17.5V2.5C1.25 2.16146 1.3737 1.86849 1.62109 1.62109C1.86849 1.3737 2.16146 1.25 2.5 1.25H9.98047C9.98047 2.00521 9.98372 2.61067 9.99023 3.06641C9.99675 3.52214 10 3.75 10 3.75C10 4.44011 10.2441 5.02929 10.7324 5.51758C11.2207 6.00586 11.8099 6.25 12.5 6.25C12.5 6.25 12.7344 6.25 13.2031 6.25C13.6719 6.25 14.2708 6.25 15 6.25V17.5ZM12.5 5C12.1615 5 11.8685 4.87956 11.6211 4.63867C11.3737 4.39779 11.25 4.10156 11.25 3.75C11.25 3.75 11.25 3.51888 11.25 3.05664C11.25 2.5944 11.25 1.99219 11.25 1.25L15 5H12.5Z" fill="#E62739"/>
</svg>
