<svg width="26" height="24" viewBox="0 0 26 24" fill="none" xmlns="http://www.w3.org/2000/svg">
<path d="M16.625 0C17.2917 0 17.8542 0.229165 18.3125 0.6875C18.7708 1.14584 19 1.70833 19 2.375V14.375C19 15.0417 18.7708 15.6042 18.3125 16.0625L10.4375 24L9.1875 22.75C8.8125 22.375 8.625 21.9583 8.625 21.5L8.6875 21.125L9.8125 16H2.375C1.75 16 1.19792 15.6979 0.71875 15.0938C0.239581 14.4896 0 13.8542 0 13.1875V10.8125C0 10.4792 0.0624997 10.1875 0.1875 9.9375L3.75 1.4375C4.16667 0.479162 4.875 0 5.875 0H16.625ZM22 14V0H26V14H22Z" fill="#4F4F4F"/>
</svg>
