<svg width="26" height="24" viewBox="0 0 26 24" fill="none" xmlns="http://www.w3.org/2000/svg">
<path d="M9.27198 24C8.61263 24 8.05632 23.7708 7.60302 23.3125C7.14972 22.8542 6.92308 22.2917 6.92308 21.625V9.625C6.92308 8.95833 7.14972 8.39583 7.60302 7.9375L15.3915 0L16.6277 1.25C16.9986 1.625 17.1841 2.04166 17.1841 2.5L17.1223 2.875L16.0096 8H23.3654C23.9835 8 24.5295 8.30208 25.0034 8.90625C25.4773 9.51042 25.7143 10.1458 25.7143 10.8125V13.1875C25.7143 13.5208 25.6525 13.8125 25.5288 14.0625L22.0055 22.5625C21.5934 23.5208 20.8929 24 19.9038 24H9.27198ZM0 24V10H3.95604V24H0Z" fill="#4F4F4F"/>
</svg>
