<svg width="62" height="62" viewBox="0 0 62 62" fill="none" xmlns="http://www.w3.org/2000/svg">
<path d="M10.3606 54.0381H51.6366C52.307 54.038 52.9659 53.8639 53.5489 53.533C54.1319 53.202 54.6191 52.7255 54.9628 52.1499C55.3066 51.5743 55.4951 50.9194 55.51 50.2492C55.5249 49.579 55.3657 48.9164 55.0479 48.3261L34.4111 9.99992C32.947 7.28258 29.0502 7.28258 27.5862 9.99992L6.94942 48.3261C6.63162 48.9164 6.47238 49.579 6.48729 50.2492C6.50219 50.9194 6.69071 51.5743 7.03444 52.1499C7.37817 52.7255 7.86534 53.202 8.44835 53.533C9.03135 53.8639 9.69024 54.038 10.3606 54.0381V54.0381Z" stroke="white" stroke-width="4" stroke-linecap="round" stroke-linejoin="round"/>
<path d="M30.3052 23.6605L31.0002 38.4339L31.6941 23.6666C31.6984 23.5722 31.6834 23.4779 31.65 23.3895C31.6166 23.3011 31.5655 23.2204 31.4999 23.1524C31.4343 23.0844 31.3555 23.0305 31.2683 22.994C31.1812 22.9574 31.0875 22.9391 30.993 22.94V22.94C30.9001 22.9409 30.8084 22.9604 30.7232 22.9973C30.638 23.0343 30.5611 23.0879 30.497 23.1551C30.4329 23.2222 30.3829 23.3016 30.3499 23.3884C30.317 23.4752 30.3018 23.5677 30.3052 23.6605V23.6605Z" stroke="white" stroke-width="4" stroke-linecap="round" stroke-linejoin="round"/>
<path d="M31 48.1045C30.521 48.1045 30.0528 47.9625 29.6545 47.6963C29.2562 47.4302 28.9458 47.052 28.7625 46.6094C28.5792 46.1669 28.5312 45.6799 28.6247 45.2101C28.7181 44.7403 28.9488 44.3088 29.2875 43.9701C29.6262 43.6314 30.0577 43.4007 30.5275 43.3073C30.9973 43.2138 31.4843 43.2618 31.9268 43.4451C32.3694 43.6284 32.7476 43.9388 33.0137 44.3371C33.2798 44.7354 33.4219 45.2036 33.4219 45.6826C33.4219 46.3249 33.1667 46.941 32.7125 47.3951C32.2583 47.8493 31.6423 48.1045 31 48.1045Z" fill="white"/>
</svg>
