<svg width="24" height="24" viewBox="0 0 24 24" fill="none" xmlns="http://www.w3.org/2000/svg">
<path d="M5.3089 8.6544V0.848145H18.691V8.6544" stroke="#4F4F4F" stroke-width="1.5" stroke-linecap="round" stroke-linejoin="round"/>
<path d="M5.30892 18.6913H3.07856C2.48704 18.6913 1.91974 18.4563 1.50146 18.038C1.08319 17.6197 0.848206 17.0524 0.848206 16.4609V10.885C0.848206 10.2935 1.08319 9.72619 1.50146 9.30792C1.91974 8.88965 2.48704 8.65466 3.07856 8.65466H20.9214C21.513 8.65466 22.0803 8.88965 22.4985 9.30792C22.9168 9.72619 23.1518 10.2935 23.1518 10.885V16.4609C23.1518 17.0524 22.9168 17.6197 22.4985 18.038C22.0803 18.4563 21.513 18.6913 20.9214 18.6913H18.6911" stroke="#4F4F4F" stroke-width="1.5" stroke-linecap="round" stroke-linejoin="round"/>
<path d="M18.691 14.2306H5.3089V23.152H18.691V14.2306Z" stroke="#4F4F4F" stroke-width="1.5" stroke-linecap="round" stroke-linejoin="round"/>
</svg>
