<svg width="20" height="28" viewBox="0 0 20 28" fill="none" xmlns="http://www.w3.org/2000/svg">
<path d="M13.8791 10.7816C13.1748 10.2274 12.5054 9.65753 12.0596 9.21174C11.48 8.63221 10.9636 8.07051 10.5149 7.53555C11.2148 5.3727 11.5217 4.2575 11.5217 3.66306C11.5217 1.13766 10.6093 0.619751 9.23921 0.619751C8.19827 0.619751 6.95675 1.16062 6.95675 3.73589C6.95675 4.8712 7.57865 6.24945 8.81125 7.85132C8.50961 8.77187 8.15519 9.83364 7.75697 11.0306C7.56524 11.6049 7.35725 12.1369 7.13728 12.6287C6.95825 12.7083 6.78435 12.7892 6.61645 12.8732C6.01166 13.1756 5.43734 13.4475 4.90459 13.7001C2.47498 14.8503 0.870117 15.6111 0.870117 17.1134C0.870117 18.2042 2.05522 18.8795 3.15259 18.8795C4.56722 18.8795 6.70332 16.99 8.2636 13.8071C9.8833 13.1681 11.8969 12.6948 13.4861 12.3983C14.7596 13.3776 16.1661 14.3145 16.8474 14.3145C18.7339 14.3145 19.1299 13.2238 19.1299 12.3092C19.1299 10.5104 17.0747 10.5104 16.0865 10.5104C15.7797 10.5105 14.9565 10.6011 13.8791 10.7816ZM3.15259 17.3579C2.71792 17.3579 2.42369 17.1528 2.39174 17.1134C2.39174 16.574 4.00031 15.8117 5.55617 15.0747C5.65496 15.0279 5.75531 14.981 5.8571 14.9327C4.71437 16.5897 3.58426 17.3579 3.15259 17.3579ZM8.47837 3.73589C8.47837 2.14144 8.97324 2.14144 9.23921 2.14144C9.77716 2.14144 10.0001 2.14144 10.0001 3.66306C10.0001 3.98404 9.78608 4.78646 9.39449 6.03918C8.79706 5.11935 8.47837 4.33104 8.47837 3.73589ZM9.06161 11.9133C9.10919 11.781 9.15526 11.6473 9.19984 11.512C9.48215 10.665 9.73629 9.90418 9.9629 9.21916C10.2787 9.56688 10.619 9.9228 10.9838 10.2876C11.1265 10.4302 11.4801 10.7512 11.9512 11.1531C11.0134 11.3575 10.0156 11.6108 9.06161 11.9133ZM17.6082 12.3093C17.6082 12.6511 17.6082 12.7929 16.9024 12.7974C16.6951 12.7528 16.2159 12.4705 15.6244 12.0678C15.8391 12.0441 15.9974 12.0322 16.0865 12.0322C17.2107 12.0322 17.5295 12.1421 17.6082 12.3093Z" fill="#4F4F4F"/>
<path d="M1.7648 27.3802H3.12211V25.0957H4.74706C6.12348 25.0957 6.88817 24.1685 6.88817 23.0597C6.88817 21.9414 6.13304 21.0046 4.74706 21.0046H1.7648V27.3802ZM5.50218 23.0502C5.50218 23.5854 5.10072 23.9295 4.56545 23.9295H3.12211V22.1708H4.56545C5.10072 22.1708 5.50218 22.5244 5.50218 23.0502Z" fill="#4F4F4F"/>
<path d="M7.72954 27.3802H10.2434C12.2412 27.3802 13.6271 26.1184 13.6271 24.1972C13.6271 22.2759 12.2412 21.0046 10.2434 21.0046H7.72954V27.3802ZM9.08685 26.1854V22.1995H10.2434C11.5529 22.1995 12.2412 23.0693 12.2412 24.1972C12.2412 25.2773 11.5052 26.1854 10.2434 26.1854H9.08685Z" fill="#4F4F4F"/>
<path d="M14.5904 27.3802H15.9477V24.7229H19.0351V23.5568H15.9477V22.1708H19.102V21.0046H14.5904V27.3802Z" fill="#4F4F4F"/>
</svg>
