<svg width="17" height="16" viewBox="0 0 17 16" fill="none" xmlns="http://www.w3.org/2000/svg">
<path d="M8.80979 0.500857C6.77278 0.472039 4.80725 1.245 3.34352 2.65051C1.87979 4.05602 1.03712 5.97956 1 8C1.03712 10.0204 1.87979 11.944 3.34352 13.3495C4.80725 14.755 6.77278 15.528 8.80979 15.4991C10.8477 15.5294 12.8146 14.7571 14.2796 13.3514C15.7445 11.9458 16.5879 10.0214 16.625 8C16.5879 5.97861 15.7445 4.05425 14.2796 2.64859C12.8146 1.24292 10.8477 0.470601 8.80979 0.500857ZM8.80979 14.4978C7.04007 14.5281 5.33046 13.8611 4.05571 12.6431C2.78097 11.425 2.04512 9.75534 2.00947 8C2.04512 6.24466 2.78097 4.57496 4.05571 3.35692C5.33046 2.13888 7.04007 1.4719 8.80979 1.50218C10.5804 1.47045 12.2914 2.1368 13.5674 3.35499C14.8433 4.57318 15.5799 6.24371 15.6155 8C15.5785 9.75583 14.8414 11.4255 13.5658 12.6434C12.2902 13.8613 10.58 14.5281 8.80979 14.4978ZM9.76498 7.49934L8.25078 7.16018C8.01947 7.11517 7.81116 6.99169 7.66163 6.81094C7.51209 6.63019 7.43064 6.40345 7.43127 6.16963C7.43785 6.00677 7.47794 5.84698 7.54908 5.70006C7.62021 5.55314 7.72089 5.42221 7.84492 5.31532C7.96896 5.20842 8.11372 5.12782 8.27032 5.07847C8.42691 5.02911 8.59203 5.01205 8.75551 5.02834C9.13309 5.02303 9.50163 5.14306 9.80254 5.36936C10.1034 5.59566 10.3195 5.91524 10.4162 6.2773L11.3877 5.90045C11.2329 5.33469 10.8883 4.83815 10.4108 4.4927C9.93327 4.14724 9.35135 3.9735 8.76094 4.0001C7.51268 4.0001 6.26984 4.76455 6.26984 6.20193C6.27793 6.68361 6.45362 7.14772 6.76715 7.51563C7.08069 7.88354 7.51279 8.13263 7.99027 8.22072L9.32537 8.51681C9.58396 8.54363 9.82425 8.66164 10.0025 8.84935C10.1808 9.03707 10.2853 9.28202 10.2968 9.53967C10.2833 9.72192 10.233 9.89963 10.1491 10.0623C10.0651 10.2249 9.94908 10.3693 9.80792 10.4867C9.66676 10.6041 9.5033 10.6923 9.32721 10.746C9.15111 10.7997 8.96594 10.8179 8.78265 10.7994C8.39517 10.805 8.01645 10.6849 7.70398 10.4576C7.39152 10.2302 7.16238 9.90795 7.05136 9.53967L6.0419 9.95419C6.25122 10.5137 6.63279 10.9937 7.13251 11.3261C7.63223 11.6585 8.22475 11.8264 8.82607 11.8061C9.1561 11.8318 9.48794 11.7906 9.80144 11.6851C10.1149 11.5797 10.4035 11.4121 10.6497 11.1926C10.8959 10.973 11.0945 10.7061 11.2335 10.4081C11.3725 10.1101 11.449 9.78715 11.4583 9.45891C11.4575 8.98577 11.2866 8.52843 10.9762 8.1692C10.6657 7.80996 10.2362 7.57242 9.76498 7.49934Z" fill="white" stroke="white" stroke-width="0.3"/>
</svg>
