<svg width="16" height="18" viewBox="0 0 16 18" fill="none" xmlns="http://www.w3.org/2000/svg">
<path fill-rule="evenodd" clip-rule="evenodd" d="M7.77273 0C4.86573 0 2.7544 0.319119 1.49645 0.949119C0.107996 1.64048 0 2.58955 0 2.86364V8.30457C0.00112608 9.97407 0.445808 11.6133 1.28853 13.0545C2.13126 14.4957 3.34177 15.6871 4.79618 16.5069L7.17095 17.8405C7.35427 17.9451 7.56168 18 7.77273 18C7.98377 18 8.19118 17.9451 8.3745 17.8405L10.7493 16.5069C12.2037 15.6871 13.4142 14.4957 14.2569 13.0545C15.0996 11.6133 15.5443 9.97407 15.5455 8.30457V2.86364C15.5456 2.76295 15.5332 2.66265 15.5086 2.56501C15.2693 1.60774 13.9455 0 7.77273 0ZM7.36364 11.25C7.20088 11.2496 7.04489 11.1849 6.92959 11.07L4.06595 8.20639C3.95756 8.09006 3.89855 7.9362 3.90136 7.77722C3.90416 7.61825 3.96857 7.46658 4.081 7.35415C4.19343 7.24172 4.3451 7.17728 4.50407 7.17447C4.66304 7.17167 4.8169 7.23067 4.93322 7.33907L7.36322 9.76904L11.4296 5.7027C11.4858 5.64241 11.5535 5.59412 11.6288 5.56058C11.7041 5.52704 11.7853 5.509 11.8677 5.50755C11.9501 5.50609 12.0319 5.52123 12.1084 5.55209C12.1848 5.58295 12.2542 5.62885 12.3124 5.68712C12.3707 5.74539 12.4166 5.81486 12.4475 5.89127C12.4784 5.96768 12.4935 6.04948 12.4921 6.13187C12.4906 6.21426 12.4726 6.2955 12.439 6.37077C12.4055 6.44604 12.3571 6.51385 12.2969 6.57002L7.79686 11.07C7.68176 11.1847 7.52611 11.2493 7.36364 11.25Z" fill="#2C2C2C"/>
</svg>
