<svg width="29" height="20" viewBox="0 0 29 20" fill="none" xmlns="http://www.w3.org/2000/svg">
<path d="M3.54547 0C1.90094 0 0.545471 1.35547 0.545471 3V17C0.545471 18.6445 1.90094 20 3.54547 20H25.5455C27.19 20 28.5455 18.6445 28.5455 17V3C28.5455 1.35547 27.19 0 25.5455 0H3.54547ZM3.54547 2H25.5455C26.1119 2 26.5455 2.43359 26.5455 3V17C26.5455 17.5664 26.1119 18 25.5455 18H3.54547C2.97907 18 2.54547 17.5664 2.54547 17V3C2.54547 2.43359 2.97907 2 3.54547 2ZM6.70172 5C5.47516 5 4.54547 5.77734 4.54547 7.125V15H8.48297C9.44391 15 10.5455 14.1055 10.5455 12.9375V5H6.70172ZM13.7017 5C12.4791 5 11.5455 5.78125 11.5455 7.125V14.9375H15.483C16.44 14.9375 17.5455 14.0391 17.5455 12.875V5H13.7017ZM20.7017 5C19.4791 5 18.5455 5.78125 18.5455 7.125V14.9375H22.4517C23.4048 14.9375 24.5455 14.0391 24.5455 12.875V5H20.7017ZM13.9205 8H16.7955V8.625C16.108 8.46484 15.4361 8.375 15.108 8.375C14.3892 8.375 13.8267 8.99219 13.8267 9.75C13.8267 10.5078 14.3892 11.0938 15.108 11.0938C15.4361 11.0938 16.108 11.0352 16.7955 10.875V11.4688H13.9205C13.0259 11.4688 12.2642 10.6953 12.2642 9.75C12.2642 8.80469 13.0259 8 13.9205 8ZM19.3892 8H23.0767C23.5259 8 23.8892 8.39453 23.8892 8.84375C23.8892 9.28906 23.5884 9.71875 23.1392 9.71875C23.647 9.71875 24.0455 10.1172 24.0455 10.5625C24.0455 11.0117 23.647 11.4375 23.1392 11.4375H19.3892V8ZM8.01422 8.03125H9.73297V9.96875C9.73297 11.0469 8.34625 11.625 7.32672 11.625C6.21735 11.625 5.22516 10.9648 5.01422 10.125H5.76422C5.85407 10.6367 6.35016 11 6.92047 11C7.54938 11 8.01422 10.5391 8.01422 9.96875V8.03125ZM20.7955 8.34375V9.5H21.983C22.2798 9.5 22.5455 9.23438 22.5455 8.9375C22.5455 8.64062 22.2798 8.34375 21.983 8.34375H20.7955ZM20.7955 9.9375V11.0938H22.0142C22.315 11.0938 22.5767 10.8281 22.5767 10.5312C22.5767 10.2305 22.315 9.9375 22.0142 9.9375H20.7955Z" fill="#4F4F4F"/>
</svg>
