<svg width="29" height="20" viewBox="0 0 29 20" fill="none" xmlns="http://www.w3.org/2000/svg">
<path fill-rule="evenodd" clip-rule="evenodd" d="M0.545471 3C0.545471 1.355 1.90047 0 3.54547 0H25.5455C27.1905 0 28.5455 1.355 28.5455 3V17C28.5455 18.645 27.1905 20 25.5455 20H3.54547C1.90047 20 0.545471 18.645 0.545471 17V3ZM25.5455 2H3.54547C2.97947 2 2.54547 2.434 2.54547 3V17C2.54547 17.566 2.97947 18 3.54547 18H25.5455C26.1115 18 26.5455 17.566 26.5455 17V3C26.5455 2.434 26.1115 2 25.5455 2ZM8.30518 8.04409C8.74404 8.03692 9.16809 8.20273 9.48569 8.50569L10.364 7.62736C9.80707 7.10424 9.06923 6.81704 8.30518 6.82596C7.73476 6.82599 7.17557 6.98456 6.69005 7.28396C6.20453 7.58336 5.81178 8.01182 5.55564 8.52149C5.34017 8.95025 5.22795 9.42345 5.22795 9.90331C5.22795 10.3832 5.34017 10.8564 5.55563 11.2851V11.2852C5.81177 11.7949 6.20452 12.2233 6.69005 12.5227C7.17557 12.8221 7.73476 12.9807 8.30518 12.9807C9.13564 12.9807 9.83488 12.708 10.3448 12.2379L10.3441 12.2374H10.3448C10.9256 11.7018 11.2603 10.9098 11.2603 9.97337C11.2606 9.76366 11.2428 9.55432 11.2073 9.34764H8.30518V10.5329H9.96739C9.93337 10.7221 9.86138 10.9026 9.75575 11.0633C9.65012 11.224 9.51304 11.3617 9.35277 11.468V11.4686C9.07666 11.6558 8.72105 11.7626 8.30518 11.7626C7.5025 11.7626 6.8212 11.2215 6.57758 10.4923L6.57758 10.4923C6.44879 10.1102 6.44879 9.69644 6.57758 9.31436C6.8212 8.58519 7.5025 8.04409 8.30518 8.04409ZM14.0411 12.6101V10.441V10.4406H15.178C15.6467 10.4409 16.0406 10.2889 16.3598 9.98456C16.5191 9.84184 16.6458 9.66634 16.731 9.47011C16.8162 9.27387 16.858 9.06153 16.8534 8.84764C16.8566 8.63489 16.8142 8.42393 16.729 8.22893C16.6439 8.03394 16.518 7.85943 16.3598 7.71713C16.2031 7.56564 16.0181 7.44667 15.8152 7.36707C15.6124 7.28748 15.3958 7.24884 15.178 7.25339H13.3529V12.6101H14.0411ZM14.0411 9.78282V7.91289V7.91246H15.1951C15.3222 7.90889 15.4487 7.93238 15.5661 7.98138C15.6834 8.03038 15.7891 8.10377 15.8759 8.19669C15.9634 8.28177 16.033 8.38354 16.0805 8.49597C16.128 8.6084 16.1525 8.72922 16.1525 8.85127C16.1525 8.97333 16.128 9.09414 16.0805 9.20657C16.033 9.31901 15.9634 9.42077 15.8759 9.50585C15.788 9.59685 15.682 9.66849 15.5647 9.71618C15.4475 9.76387 15.3216 9.78657 15.1951 9.78282H14.0411ZM19.6436 9.23314C19.3492 8.96131 18.9477 8.82539 18.4391 8.82539C17.7857 8.82539 17.2924 9.06474 16.959 9.54344L17.5651 9.92512C17.789 9.60086 18.0932 9.43873 18.4776 9.43873C18.7227 9.43586 18.9598 9.52544 19.1418 9.68962C19.2314 9.76369 19.3034 9.85678 19.3525 9.96212C19.4017 10.0675 19.4268 10.1824 19.426 10.2987V10.456C19.1616 10.3064 18.8251 10.2316 18.4165 10.2316C17.9378 10.2321 17.5551 10.3444 17.2684 10.5684C16.9818 10.7923 16.8385 11.094 16.8385 11.4732C16.8354 11.6437 16.8704 11.8128 16.9409 11.9681C17.0115 12.1233 17.1158 12.2609 17.2462 12.3708C17.518 12.6101 17.8558 12.7298 18.2596 12.7298C18.7326 12.7298 19.1116 12.5204 19.3965 12.1015H19.4264V12.6101H20.0847V10.3513C20.0849 9.87768 19.9379 9.50498 19.6436 9.23314ZM17.6085 11.7402C17.5688 11.6622 17.5484 11.5757 17.5488 11.4882C17.5488 11.2886 17.6424 11.1223 17.8309 10.9855C18.0175 10.8508 18.2506 10.7834 18.5302 10.7834C18.914 10.7834 19.2132 10.8688 19.4277 11.0398C19.4277 11.3287 19.3137 11.5805 19.0858 11.795C18.8805 12.0004 18.6021 12.116 18.3118 12.1165C18.1182 12.1201 17.9292 12.0567 17.7771 11.937C17.706 11.8857 17.6482 11.8183 17.6085 11.7402ZM23.863 8.94508L21.5652 14.2258H20.8549L21.7075 12.3781L20.1966 8.94508H20.9446L22.0366 11.5779H22.0516L23.1137 8.94508H23.863Z" fill="#4F4F4F"/>
</svg>
