<svg width="29" height="20" viewBox="0 0 29 20" fill="none" xmlns="http://www.w3.org/2000/svg">
<path d="M3.54547 0C1.90094 0 0.545471 1.35547 0.545471 3V17C0.545471 18.6445 1.90094 20 3.54547 20H25.5455C27.19 20 28.5455 18.6445 28.5455 17V3C28.5455 1.35547 27.19 0 25.5455 0H3.54547ZM3.54547 2H25.5455C26.1119 2 26.5455 2.43359 26.5455 3V17C26.5455 17.5664 26.1119 18 25.5455 18H3.54547C2.97907 18 2.54547 17.5664 2.54547 17V3C2.54547 2.43359 2.97907 2 3.54547 2ZM17.9517 6.375C16.0259 6.375 15.0142 7.32422 15.0142 8.53125C15.0142 10.7109 17.5767 10.4102 17.5767 11.5312C17.5767 11.7227 17.4166 12.1562 16.358 12.1562C15.2994 12.1562 14.608 11.7812 14.608 11.7812L14.2955 13.2188C14.2955 13.2188 14.9517 13.625 16.2642 13.625C17.5767 13.625 19.4205 12.6172 19.4205 11.1562C19.4205 9.39844 16.858 9.28125 16.858 8.5C16.858 8.10156 17.1978 7.78125 18.108 7.78125C18.7017 7.78125 19.358 8.25 19.358 8.25L19.6705 6.71875C19.6705 6.71875 18.7994 6.375 17.9517 6.375ZM9.73297 6.5L8.04547 11.4375C8.04547 11.4375 7.95953 11.0117 7.92047 10.75C6.96735 8.60938 5.42047 7.8125 5.42047 7.8125L6.88922 13.4062H8.88922L11.7017 6.5H9.73297ZM12.4205 6.5L11.3267 13.4062H13.1705L14.2642 6.5H12.4205ZM22.358 6.5L19.358 13.4062H21.1705L21.5455 12.4375H23.858L24.0455 13.4062H25.7017L24.2955 6.5H22.358ZM3.38922 6.53125C3.38922 6.53125 6.98688 7.63281 7.82672 10.3438L7.20172 7.21875C7.20172 7.21875 6.92828 6.53125 6.20172 6.53125H3.38922ZM23.0455 8.5L23.5767 11.0938H22.0767L23.0455 8.5Z" fill="#4F4F4F"/>
</svg>
