<svg width="29" height="20" viewBox="0 0 29 20" fill="none" xmlns="http://www.w3.org/2000/svg">
<path d="M3.54547 0C1.90047 0 0.545471 1.355 0.545471 3V17C0.545471 18.645 1.90047 20 3.54547 20H25.5455C27.1905 20 28.5455 18.645 28.5455 17V3C28.5455 1.355 27.1905 0 25.5455 0H3.54547ZM3.54547 2H25.5455C26.1115 2 26.5455 2.434 26.5455 3V17C26.5455 17.566 26.1115 18 25.5455 18H3.54547C2.97947 18 2.54547 17.566 2.54547 17V3C2.54547 2.434 2.97947 2 3.54547 2ZM9.54352 5C9.07852 5 8.54767 5.26534 8.20367 5.65234C7.93767 5.97334 7.6486 6.48319 7.7486 6.99219C8.2256 7.04819 8.74647 6.74933 9.04547 6.36133C9.37747 6.00733 9.56552 5.509 9.54352 5ZM11.5455 7V13H12.4771V10.9453H13.774C14.949 10.9453 15.7798 10.1367 15.7798 8.97266C15.7798 7.79766 14.9595 7 13.7955 7H11.5455ZM6.38336 7.52344C5.34436 7.52344 4.54547 8.43328 4.54547 9.73828C4.54547 11.4383 5.73992 13 6.48492 13C6.93492 13 7.09981 12.6973 7.69781 12.6973C8.24881 12.6973 8.42217 13 8.89117 13C9.78217 13 10.5175 11.1901 10.5455 11.0801C10.3985 11.0061 9.54252 10.6029 9.54352 9.62891C9.54352 8.68291 10.3249 8.25823 10.3619 8.24023C9.92988 7.59723 9.24974 7.52344 8.99274 7.52344C8.39574 7.52344 7.87344 7.8457 7.58844 7.8457C7.29444 7.8457 6.86136 7.52344 6.38336 7.52344ZM12.4771 7.78711H13.5513C14.3603 7.78711 14.8267 8.21866 14.8267 8.97266C14.8267 9.72666 14.3603 10.1699 13.5513 10.1699H12.4771V7.78711ZM17.9752 8.53125C16.9892 8.53125 16.2569 9.09705 16.2349 9.87305H17.0767C17.1437 9.50705 17.4857 9.26367 17.9517 9.26367C18.5277 9.26367 18.8404 9.52958 18.8404 10.0176V10.3496L17.6763 10.4277C16.6013 10.4947 16.0123 10.9381 16.0123 11.7031C16.0123 12.4791 16.6112 13 17.4752 13C18.0622 13 18.6072 12.7004 18.8502 12.2344H18.8716V12.9551H19.7369V9.96289C19.7369 9.09789 19.0392 8.53125 17.9752 8.53125ZM20.1197 8.58789L21.6939 12.9668L21.6158 13.2324C21.4718 13.6764 21.2387 13.8535 20.8287 13.8535C20.7517 13.8535 20.6083 13.8418 20.5533 13.8418V14.5625C20.6093 14.5735 20.8398 14.584 20.9068 14.584C21.8158 14.584 22.2485 14.2295 22.6255 13.1875L24.2545 8.58789H23.3111L22.2154 12.1348H22.192L21.0963 8.58789H20.1197ZM18.8404 10.9805V11.3145H18.8384C18.8384 11.8795 18.362 12.2773 17.731 12.2773C17.232 12.2773 16.9224 12.0457 16.9224 11.6797C16.9224 11.3027 17.2211 11.0799 17.8091 11.0469L18.8404 10.9805Z" fill="#4F4F4F"/>
</svg>
