<svg width="29" height="20" viewBox="0 0 29 20" fill="none" xmlns="http://www.w3.org/2000/svg">
<path d="M17.0732 4.81195C16.1892 4.8116 15.3201 5.03867 14.5492 5.47134C13.7596 5.03001 12.8683 4.80279 11.9638 4.81224C11.0593 4.82169 10.173 5.06747 9.39276 5.5252C8.61255 5.98293 7.96557 6.6367 7.51602 7.42165C7.06647 8.2066 6.82996 9.09545 6.82996 10C6.82996 10.9046 7.06647 11.7934 7.51602 12.5784C7.96557 13.3633 8.61255 14.0171 9.39276 14.4748C10.173 14.9326 11.0593 15.1783 11.9638 15.1878C12.8683 15.1972 13.7596 14.97 14.5492 14.5287C15.2413 14.9145 16.0125 15.1365 16.8037 15.1779C17.5949 15.2193 18.3851 15.0788 19.1136 14.7673C19.8421 14.4558 20.4895 13.9815 21.0062 13.3809C21.5229 12.7803 21.8952 12.0693 22.0944 11.3024C22.2936 10.5356 22.3144 9.7333 22.1553 8.95714C21.9963 8.18098 21.6615 7.45158 21.1767 6.82492C20.6919 6.19826 20.07 5.69099 19.3586 5.34206C18.6473 4.99313 17.8655 4.8118 17.0732 4.81199V4.81195ZM13.1961 13.4356C12.8202 13.5701 12.4245 13.6411 12.0252 13.6458C11.0583 13.6458 10.131 13.2617 9.44731 12.5779C8.76361 11.8942 8.37951 10.9669 8.37951 10C8.37951 9.03313 8.76361 8.10582 9.44731 7.42212C10.131 6.73841 11.0583 6.35431 12.0252 6.35431C12.4245 6.35892 12.8202 6.42995 13.1961 6.56447C12.3518 7.50966 11.8852 8.73266 11.8852 10C11.8852 11.2674 12.3518 12.4904 13.1961 13.4356V13.4356ZM14.5492 12.6202C14.1947 12.282 13.9125 11.8755 13.7197 11.4251C13.5269 10.9747 13.4275 10.4899 13.4275 10C13.4275 9.51011 13.5269 9.02529 13.7197 8.57493C13.9125 8.12456 14.1947 7.718 14.5492 7.37986C14.9037 7.718 15.1859 8.12456 15.3787 8.57493C15.5715 9.02529 15.671 9.51011 15.671 10C15.671 10.4899 15.5715 10.9747 15.3787 11.4251C15.1859 11.8755 14.9037 12.282 14.5492 12.6202ZM17.0732 13.6457C16.674 13.6411 16.2782 13.5701 15.9023 13.4356C16.7466 12.4904 17.2133 11.2674 17.2133 10C17.2133 8.73266 16.7466 7.50966 15.9023 6.56447C16.2782 6.42995 16.6739 6.35892 17.0732 6.35431C18.0401 6.35431 18.9674 6.73841 19.6511 7.42212C20.3348 8.10582 20.7189 9.03313 20.7189 10C20.7189 10.9669 20.3348 11.8942 19.6511 12.5779C18.9674 13.2617 18.0401 13.6458 17.0732 13.6458V13.6457Z" fill="#4F4F4F"/>
<path d="M3.54547 0C1.90047 0 0.545471 1.355 0.545471 3V17C0.545471 18.645 1.90047 20 3.54547 20H25.5455C27.1905 20 28.5455 18.645 28.5455 17V3C28.5455 1.355 27.1905 0 25.5455 0H3.54547ZM3.54547 2H25.5455C26.1115 2 26.5455 2.434 26.5455 3V17C26.5455 17.566 26.1115 18 25.5455 18H3.54547C2.97947 18 2.54547 17.566 2.54547 17V3C2.54547 2.434 2.97947 2 3.54547 2Z" fill="#4F4F4F"/>
</svg>
