<svg width="20" height="18" viewBox="0 0 20 18" fill="none" xmlns="http://www.w3.org/2000/svg">
<path d="M3.9072 18C2.81644 18 1.89256 17.6872 1.13553 17.0617C0.378506 16.4362 0 15.5885 0 14.5185C0 13.7778 0.227918 13.0206 0.683761 12.2469L6.69109 2.09877C7.50509 0.699581 8.61212 0 10.0122 0C11.396 0 12.4949 0.699581 13.3089 2.09877L19.3407 12.2469C19.7802 12.9712 20 13.7366 20 14.5432C20 15.1687 19.8616 15.7119 19.5849 16.1728C18.8848 17.391 17.7289 18 16.1172 18H3.9072ZM10.0122 5.08642C9.57265 5.08642 9.19821 5.2428 8.88889 5.55556C8.57957 5.86831 8.42491 6.24691 8.42491 6.69136C8.42491 7.11934 8.58364 7.48971 8.9011 7.80247C9.21856 8.11523 9.58893 8.2716 10.0122 8.2716C10.4518 8.2716 10.8221 8.11523 11.1233 7.80247C11.4245 7.48971 11.5751 7.11934 11.5751 6.69136C11.5751 6.26337 11.4204 5.88889 11.1111 5.5679C10.8018 5.24691 10.4355 5.08642 10.0122 5.08642ZM11.7216 13.8025C11.8193 13.6872 11.8193 13.5844 11.7216 13.4938C11.6239 13.4033 11.5263 13.3827 11.4286 13.4321C11.103 13.5638 10.8588 13.6296 10.696 13.6296L10.5495 13.6049C10.3215 13.5062 10.289 13.2181 10.4518 12.7407L10.8669 11.4815C11.0786 10.8066 11.0541 10.2222 10.7937 9.72839C10.5332 9.23456 10.1099 8.97119 9.52381 8.93827C9.11681 8.92181 8.72609 8.99177 8.35165 9.14815C7.97721 9.30453 7.71266 9.45267 7.558 9.59259C7.40334 9.73251 7.30973 9.82716 7.27717 9.87654C7.17949 9.99177 7.17542 10.0988 7.26496 10.1975C7.3545 10.2963 7.45625 10.321 7.57021 10.2716C7.89581 10.1399 8.14001 10.0741 8.30281 10.0741L8.44933 10.0988C8.67725 10.1975 8.70981 10.4856 8.54701 10.963L8.13187 12.2222C7.90395 12.8971 7.9243 13.4774 8.19292 13.963C8.46154 14.4486 8.88889 14.7078 9.47497 14.7407H9.62149C10.0122 14.7407 10.3826 14.6626 10.7326 14.5062C11.0826 14.3498 11.3309 14.2058 11.4774 14.0741C11.6239 13.9424 11.7053 13.8519 11.7216 13.8025Z" fill="#4F4F4F"/>
</svg>
