<svg width="32" height="32" viewBox="0 0 32 32" fill="none" xmlns="http://www.w3.org/2000/svg">
<circle cx="16" cy="16" r="15" stroke="#E62739" stroke-width="2"/>
<path fill-rule="evenodd" clip-rule="evenodd" d="M11.6837 10.2697C11.2932 9.87918 10.66 9.87917 10.2695 10.2697C9.87893 10.6602 9.87893 11.2934 10.2695 11.6839L14.5857 16.0003L10.2698 20.3163C9.87925 20.7068 9.87926 21.34 10.2698 21.7305C10.6603 22.121 11.2935 22.121 11.684 21.7305L15.9999 17.4145L20.3159 21.7305C20.7064 22.121 21.3396 22.121 21.7301 21.7305C22.1206 21.34 22.1206 20.7068 21.7301 20.3163L17.4142 16.0003L21.7304 11.6839C22.121 11.2934 22.121 10.6602 21.7304 10.2697C21.3399 9.87918 20.7067 9.87918 20.3162 10.2697L15.9999 14.586L11.6837 10.2697Z" fill="#E62739"/>
</svg>
