<svg width="20" height="20" viewBox="0 0 20 20" fill="none" xmlns="http://www.w3.org/2000/svg">
<path d="M0.665564 0.0261931L19.654 6.34076C19.7523 6.37326 19.8381 6.43512 19.9 6.51797C19.9619 6.60081 19.9967 6.70062 19.9998 6.80388C20.0029 6.90714 19.9741 7.00884 19.9173 7.09522C19.8605 7.18159 19.7784 7.24845 19.6822 7.28673L10.8641 10.8057L6.39591 19.7214C6.35044 19.8122 6.27855 19.8872 6.18965 19.9365C6.10074 19.9858 5.99898 20.0072 5.89769 19.9979C5.7964 19.9885 5.7003 19.9488 5.622 19.884C5.5437 19.8192 5.48683 19.7324 5.45886 19.6348L0.0193217 0.641732C-0.005875 0.553496 -0.0064385 0.46007 0.0176919 0.371538C0.0418223 0.283006 0.0897301 0.20273 0.156244 0.139376C0.222759 0.0760214 0.305353 0.0319952 0.395112 0.0120486C0.484872 -0.00789803 0.578387 -0.00300732 0.665564 0.0261931Z" fill="white"/>
</svg>
