<svg width="11" height="16" viewBox="0 0 11 16" fill="none" xmlns="http://www.w3.org/2000/svg">
<path d="M4.43486 6.44395C3.43838 6.22292 2.92152 5.41284 2.92152 4.603C2.92152 3.24079 4.08428 2.48609 5.3571 2.48609C6.61165 2.48609 7.95872 3.20411 8.41984 4.80557L10.2098 4.10601C9.60062 1.71293 7.4606 0.571533 5.3756 0.571533C3.0508 0.571533 0.781499 1.98888 0.781499 4.65837C0.781499 6.31521 1.90678 7.95336 3.95501 8.41342L6.40885 8.96578C7.6449 9.2235 8.19853 10.0336 8.19853 10.8619C8.19853 12.3344 6.85146 13.1998 5.41237 13.1998C4.12081 13.1998 2.73722 12.4816 2.22036 10.8619L0.357147 11.635C1.18735 14.0466 3.43838 15.1139 5.48637 15.1139C8.64138 15.1139 10.3388 12.8865 10.3388 10.7516C10.3388 9.11298 9.34231 7.52998 7.22055 7.06968L4.43486 6.44395Z" fill="white"/>
</svg>
