<svg width="21" height="21" viewBox="0 0 21 21" fill="none" xmlns="http://www.w3.org/2000/svg">
<path d="M12.8232 0C8.34555 0 4.69824 3.64731 4.69824 8.125C4.69824 10.0709 5.37993 11.8523 6.52637 13.2539L0.0517578 19.7285L1.21973 20.8981L7.69434 14.4235C9.09509 15.5691 10.8773 16.25 12.8232 16.25C17.3009 16.25 20.9482 12.6027 20.9482 8.125C20.9482 3.64731 17.3009 0 12.8232 0ZM12.8232 1.625C16.4226 1.625 19.3232 4.52563 19.3232 8.125C19.3232 11.7244 16.4226 14.625 12.8232 14.625C9.22387 14.625 6.32324 11.7244 6.32324 8.125C6.32324 4.52563 9.22387 1.625 12.8232 1.625ZM12.8232 4.0625C11.0284 4.0625 9.57324 5.51769 9.57324 7.3125C9.57324 9.75 12.8232 13 12.8232 13C12.8232 13 16.0732 9.75 16.0732 7.3125C16.0732 5.51769 14.6181 4.0625 12.8232 4.0625ZM12.8232 5.6875C13.7211 5.6875 14.4482 6.41469 14.4482 7.3125C14.4482 8.2095 13.7211 8.9375 12.8232 8.9375C11.9254 8.9375 11.1982 8.2095 11.1982 7.3125C11.1982 6.41469 11.9254 5.6875 12.8232 5.6875Z" fill="#4F4F4F"/>
</svg>
