<svg width="48" height="48" viewBox="0 0 48 48" fill="none" xmlns="http://www.w3.org/2000/svg">
<circle cx="24" cy="24" r="24" fill="#3EBD6B"/>
<path d="M30.0019 18.3978C30.132 18.5289 30.2868 18.6331 30.4574 18.7041C30.628 18.7752 30.8109 18.8118 30.9957 18.8118C31.1805 18.8118 31.3634 18.7752 31.534 18.7041C31.7046 18.6331 31.8594 18.5289 31.9895 18.3978L37.5884 12.7989C37.8519 12.5353 38 12.1778 38 11.8051C38 11.4324 37.8519 11.0749 37.5884 10.8113C37.3248 10.5477 36.9673 10.3997 36.5946 10.3997C36.2218 10.3997 35.8643 10.5477 35.6008 10.8113L30.9957 15.4304L29.1901 13.6107C29.0596 13.4802 28.9046 13.3767 28.7341 13.3061C28.5636 13.2354 28.3808 13.1991 28.1963 13.1991C27.8235 13.1991 27.4661 13.3472 27.2025 13.6107C27.072 13.7412 26.9684 13.8962 26.8978 14.0667C26.8272 14.2372 26.7908 14.42 26.7908 14.6045C26.7908 14.9773 26.9389 15.3348 27.2025 15.5983L30.0019 18.3978ZM36.5946 17.404C36.2233 17.404 35.8673 17.5514 35.6048 17.8139C35.3423 18.0764 35.1948 18.4324 35.1948 18.8037V31.4011C35.1948 31.7723 35.0474 32.1283 34.7849 32.3908C34.5224 32.6533 34.1664 32.8008 33.7951 32.8008H14.1991C13.8279 32.8008 13.4719 32.6533 13.2094 32.3908C12.9469 32.1283 12.7994 31.7723 12.7994 31.4011V17.9778L21.0297 26.2222C21.8153 27.0013 22.8767 27.4389 23.9831 27.4399C25.1174 27.4341 26.2037 26.9815 27.0065 26.1802L29.414 23.7727C29.6776 23.5091 29.8257 23.1516 29.8257 22.7789C29.8257 22.4061 29.6776 22.0486 29.414 21.7851C29.1505 21.5215 28.793 21.3734 28.4202 21.3734C28.0475 21.3734 27.69 21.5215 27.4264 21.7851L24.9769 24.2346C24.7153 24.491 24.3635 24.6347 23.9971 24.6347C23.6308 24.6347 23.279 24.491 23.0173 24.2346L14.773 16.0042H22.5974C22.9686 16.0042 23.3247 15.8568 23.5872 15.5943C23.8497 15.3318 23.9971 14.9758 23.9971 14.6045C23.9971 14.2333 23.8497 13.8773 23.5872 13.6148C23.3247 13.3523 22.9686 13.2048 22.5974 13.2048H14.1991C13.0855 13.2048 12.0174 13.6472 11.2299 14.4347C10.4424 15.2222 10 16.2903 10 17.404V31.4011C10 32.5148 10.4424 33.5828 11.2299 34.3703C12.0174 35.1578 13.0855 35.6002 14.1991 35.6002H33.7951C34.9088 35.6002 35.9769 35.1578 36.7644 34.3703C37.5519 33.5828 37.9943 32.5148 37.9943 31.4011V18.8037C37.9943 18.4324 37.8468 18.0764 37.5843 17.8139C37.3218 17.5514 36.9658 17.404 36.5946 17.404Z" fill="white"/>
</svg>
