<svg width="40" height="40" viewBox="0 0 40 40" fill="none" xmlns="http://www.w3.org/2000/svg">
<circle cx="20" cy="20" r="19" stroke="#CDCDCD" stroke-width="2"/>
<path fill-rule="evenodd" clip-rule="evenodd" d="M14.4279 13.0138C14.0374 12.6233 13.4042 12.6233 13.0137 13.0138C12.6232 13.4044 12.6232 14.0375 13.0137 14.428L18.5858 20.0003L13.0141 25.5721C12.6236 25.9626 12.6236 26.5957 13.0141 26.9863C13.4046 27.3768 14.0378 27.3768 14.4283 26.9863L20 21.4145L25.5717 26.9863C25.9623 27.3768 26.5954 27.3768 26.986 26.9863C27.3765 26.5957 27.3765 25.9626 26.986 25.5721L21.4142 20.0003L26.9864 14.4281C27.3769 14.0375 27.3769 13.4044 26.9864 13.0138C26.5958 12.6233 25.9627 12.6233 25.5721 13.0138L20 18.586L14.4279 13.0138Z" fill="#CDCDCD"/>
</svg>
