<svg width="9" height="14" viewBox="0 0 9 14" fill="none" xmlns="http://www.w3.org/2000/svg">
<path d="M8.19591 6.28476L2.2076 0.281407C2.00487 0.0938014 1.77096 0 1.50585 0C1.24074 0 1.00682 0.0938014 0.804093 0.281407C0.601363 0.484646 0.5 0.71915 0.5 0.984925C0.5 1.2507 0.601363 1.4852 0.804093 1.68844L6.09064 6.98827L0.804093 12.2881C0.601363 12.4913 0.5 12.7259 0.5 12.9916C0.5 13.2574 0.601363 13.4919 0.804093 13.6951C0.913256 13.8046 1.01852 13.8827 1.11988 13.9296C1.22125 13.9766 1.3499 14 1.50585 14C1.66179 14 1.79045 13.9766 1.89181 13.9296C1.99318 13.8827 2.09844 13.8046 2.2076 13.6951L8.19591 7.69179C8.39864 7.48855 8.5 7.25405 8.5 6.98827C8.5 6.7225 8.39864 6.488 8.19591 6.28476Z" fill="white"/>
</svg>
