<svg width="20" height="18" viewBox="0 0 20 18" fill="none" xmlns="http://www.w3.org/2000/svg">
<path d="M7.24091 14.1827C7.13284 14.9646 6.75474 15.68 6.17607 16.1975C5.5974 16.7151 4.85702 17 4.09091 17C3.3248 17 2.58442 16.7151 2.00575 16.1975C1.42708 15.68 1.04898 14.9646 0.940909 14.1827H0V2.93713C0 2.68859 0.0957789 2.45023 0.266267 2.27448C0.436754 2.09873 0.667985 2 0.909091 2H13.6364C13.8775 2 14.1087 2.09873 14.2792 2.27448C14.4497 2.45023 14.5455 2.68859 14.5455 2.93713V4.8114H17.2727L20 8.61241V14.1827H18.15C18.0419 14.9646 17.6638 15.68 17.0852 16.1975C16.5065 16.7151 15.7661 17 15 17C14.2339 17 13.4935 16.7151 12.9148 16.1975C12.3362 15.68 11.9581 14.9646 11.85 14.1827H7.24091ZM12.7273 3.87427H1.81818V11.4182C2.17687 11.0407 2.61873 10.7581 3.10614 10.5946C3.59355 10.431 4.11209 10.3912 4.61762 10.4786C5.12315 10.566 5.6007 10.7781 6.00964 11.0967C6.41859 11.4153 6.7468 11.831 6.96636 12.3085H12.1245C12.2773 11.9777 12.4818 11.6768 12.7273 11.4182V3.87427ZM14.5455 9.49706H18.1818V9.22998L16.3564 6.68567H14.5455V9.49706ZM15 15.1199C15.3618 15.1199 15.7087 14.9717 15.9646 14.708C16.2204 14.4443 16.3641 14.0866 16.3641 13.7137C16.3641 13.3408 16.2204 12.9831 15.9646 12.7194C15.7087 12.4557 15.3618 12.3075 15 12.3075C14.6382 12.3075 14.2913 12.4557 14.0354 12.7194C13.7796 12.9831 13.6359 13.3408 13.6359 13.7137C13.6359 14.0866 13.7796 14.4443 14.0354 14.708C14.2913 14.9717 14.6382 15.1199 15 15.1199ZM5.45455 13.7142C5.45455 13.5296 5.41927 13.3468 5.35075 13.1762C5.28222 13.0057 5.18177 12.8507 5.05515 12.7202C4.92852 12.5897 4.77819 12.4861 4.61275 12.4155C4.44731 12.3448 4.26998 12.3085 4.09091 12.3085C3.91183 12.3085 3.73451 12.3448 3.56907 12.4155C3.40362 12.4861 3.2533 12.5897 3.12667 12.7202C3.00005 12.8507 2.8996 13.0057 2.83107 13.1762C2.76254 13.3468 2.72727 13.5296 2.72727 13.7142C2.72727 14.087 2.87094 14.4445 3.12667 14.7081C3.3824 14.9718 3.72925 15.1199 4.09091 15.1199C4.45257 15.1199 4.79941 14.9718 5.05515 14.7081C5.31088 14.4445 5.45455 14.087 5.45455 13.7142Z" fill="#4F4F4F"/>
</svg>
