<svg width="18" height="26" viewBox="0 0 18 26" fill="none" xmlns="http://www.w3.org/2000/svg">
<path d="M9 0C13.9624 0 18 3.96369 18 8.83554C18 12.943 15.098 16.4876 11.1126 17.4275L11.6474 18.6802C11.7283 18.8708 11.6857 19.0797 11.5318 19.2418C11.3778 19.4039 11.1317 19.5 10.8697 19.5H9.81871V19.3615C9.81871 19.0158 9.45224 18.736 9.00053 18.736C8.5483 18.736 8.18235 19.0158 8.18235 19.3615V19.5H7.13086C6.86879 19.5 6.62269 19.4039 6.46875 19.2418C6.31481 19.0797 6.27219 18.8708 6.35316 18.6802L6.88796 17.4275C2.90252 16.488 0 12.9434 0 8.83554C0 3.96369 4.03764 0 9 0ZM9 2C8.44771 2 8 2.44772 8 3C8 3.55228 8.44771 4 9 4C11.7614 4 14 6.23858 14 9C14 9.67495 13.8667 10.3295 13.6113 10.9368C13.3972 11.4459 13.6363 12.0321 14.1454 12.2463C14.6545 12.4604 15.2408 12.2213 15.4549 11.7122C15.8131 10.8606 16 9.94246 16 9C16 5.13401 12.866 2 9 2Z" fill="white"/>
<path d="M8.18182 24.7671C8.18182 25.2188 8.5483 25.5853 9.00001 25.5853C9.45224 25.5853 9.81819 25.2188 9.81819 24.7671V19.5H8.18182V24.7671Z" fill="white"/>
</svg>
