<svg width="9" height="14" viewBox="0 0 9 14" fill="none" xmlns="http://www.w3.org/2000/svg">
<path d="M0.804094 7.71524L6.7924 13.7186C6.99513 13.9062 7.22904 14 7.49415 14C7.75926 14 7.99318 13.9062 8.19591 13.7186C8.39864 13.5154 8.5 13.2809 8.5 13.0151C8.5 12.7493 8.39864 12.5148 8.19591 12.3116L2.90936 7.01173L8.19591 1.71189C8.39864 1.50865 8.5 1.27415 8.5 1.00838C8.5 0.7426 8.39864 0.508098 8.19591 0.304857C8.08674 0.195421 7.98148 0.117252 7.88012 0.0703516C7.77875 0.0234499 7.6501 0 7.49415 0C7.33821 0 7.20955 0.0234499 7.10819 0.0703516C7.00682 0.117252 6.90156 0.195421 6.7924 0.304857L0.804094 6.30821C0.601364 6.51145 0.5 6.74595 0.5 7.01173C0.5 7.2775 0.601364 7.512 0.804094 7.71524Z" fill="white"/>
</svg>
