<svg width="32" height="24" viewBox="0 0 32 24" fill="none" xmlns="http://www.w3.org/2000/svg">
<path d="M2 3.00012V20.0001H30V3.00012H2ZM6 5.00012H26C26 6.10512 26.895 7.00012 28 7.00012V16.0001C26.895 16.0001 26 16.8951 26 18.0001H6C6 16.8951 5.105 16.0001 4 16.0001V7.00012C5.105 7.00012 6 6.10512 6 5.00012ZM8.5 10.0001C7.672 10.0001 7 10.6721 7 11.5001C7 12.3281 7.672 13.0001 8.5 13.0001C9.328 13.0001 10 12.3281 10 11.5001C10 10.6721 9.328 10.0001 8.5 10.0001ZM23.5 10.0001C22.672 10.0001 22 10.6721 22 11.5001C22 12.3281 22.672 13.0001 23.5 13.0001C24.328 13.0001 25 12.3281 25 11.5001C25 10.6721 24.328 10.0001 23.5 10.0001Z" fill="#4F4F4F"/>
<path d="M17.1389 12.5863C19.0417 12.5863 20 11.3045 20 9.80672C20 8.29547 19.0417 7.00012 17.1389 7.00012H13.7222V11.156H13V12.5863H13.7222V13.6388H13V14.6913H13.7222V16.0001H15.5833V14.6913H18.1806V13.6388H15.5833V12.5863H17.1389ZM15.5833 8.59233H16.9167C17.625 8.59233 18.0972 9.09158 18.0972 9.87419C18.0972 10.6568 17.625 11.156 16.9167 11.156H15.5833V8.59233Z" fill="#4F4F4F"/>
</svg>
