<svg width="37" height="39" viewBox="0 0 37 39" fill="none" xmlns="http://www.w3.org/2000/svg">
<path fill-rule="evenodd" clip-rule="evenodd" d="M36.085 15.7855L33.459 18.4454C33.495 18.8754 33.524 19.3055 33.524 19.7355C33.4865 22.6938 32.575 25.575 30.9042 28.0166C29.2334 30.4582 26.8778 32.3513 24.1338 33.4575C21.3898 34.5637 18.38 34.8338 15.4829 34.2337C12.5858 33.6337 9.93088 32.1902 7.85206 30.0851C5.77324 27.9799 4.36338 25.3071 3.79983 22.4027C3.23628 19.4983 3.54422 16.492 4.6849 13.7622C5.82558 11.0323 7.74808 8.70074 10.2105 7.06077C12.673 5.4208 15.5654 4.54575 18.524 4.54551C21.7686 4.4035 24.9532 5.45265 27.478 7.49546L23.312 8.10545C22.9357 8.16364 22.5949 8.36101 22.3572 8.65855C22.1196 8.95609 22.0024 9.33213 22.0288 9.71202C22.0552 10.0919 22.2233 10.448 22.4999 10.7098C22.7764 10.9716 23.1412 11.1199 23.522 11.1255C23.5935 11.1271 23.665 11.1238 23.736 11.1155L30.736 10.0954C31.1323 10.0349 31.4886 9.82015 31.7271 9.4979C31.9656 9.17566 32.0669 8.77216 32.009 8.37547L31.009 1.2855C30.9808 1.09049 30.9144 0.902865 30.8137 0.733501C30.713 0.564137 30.5799 0.416251 30.422 0.29832C30.2642 0.18039 30.0846 0.0947883 29.8936 0.0462451C29.7027 -0.00229815 29.504 -0.0127508 29.309 0.0154834C29.114 0.0437176 28.9264 0.110083 28.7571 0.210796C28.5877 0.311509 28.4398 0.444538 28.3219 0.602397C28.204 0.760257 28.1183 0.939867 28.0698 1.13084C28.0212 1.32181 28.0108 1.52042 28.039 1.71543L28.449 4.62547C25.5852 2.49979 22.0889 1.40071 18.524 1.50547C14.7303 1.45104 11.0138 2.57955 7.89091 4.73423C4.76801 6.88892 2.39376 9.96281 1.098 13.5288C-0.197754 17.0948 -0.35066 20.9758 0.660517 24.6327C1.67169 28.2895 3.79675 31.5406 6.74044 33.9343C9.68414 36.328 13.3003 37.7455 17.0865 37.9897C20.8728 38.2339 24.6411 37.2928 27.8679 35.2971C31.0947 33.3014 33.6198 30.3502 35.0924 26.8535C36.565 23.3568 36.9119 19.4884 36.085 15.7855Z" fill="white"/>
</svg>
