<svg width="15" height="16" viewBox="0 0 15 16" fill="none" xmlns="http://www.w3.org/2000/svg">
<path d="M5.22473 5.7895L6.14232 3.98666C3.83759 4.47546 2.10726 6.48651 2.10726 8.88873C2.10726 11.6545 4.39959 13.9098 7.22222 13.9098C10.0449 13.9098 12.3372 11.6545 12.3372 8.88873V8.73873H12.4872L13.4444 8.73873H13.5944V8.88873C13.5944 12.3438 10.7333 15.15 7.22222 15.15C3.71111 15.15 0.85 12.3438 0.85 8.88873C0.85 5.96113 2.90461 3.50153 5.66641 2.81796L4.43724 1.85224L4.31718 1.75791L4.41362 1.63954L5.01191 0.905251L5.10499 0.791005L5.22087 0.882054L7.61404 2.76246L7.6142 2.76259C7.76707 2.88304 7.85085 3.06302 7.85085 3.24755C7.85085 3.34157 7.82925 3.4367 7.78449 3.52532L7.78427 3.52574L6.34836 6.34632L6.28127 6.47812L6.14854 6.4129L5.29226 5.99216L5.15572 5.92507L5.22473 5.7895Z" fill="white" stroke="white" stroke-width="0.3"/>
<path d="M11.889 6.4445C13.1777 6.4445 14.2223 5.39983 14.2223 4.11117C14.2223 2.8225 13.1777 1.77783 11.889 1.77783C10.6003 1.77783 9.55566 2.8225 9.55566 4.11117C9.55566 5.39983 10.6003 6.4445 11.889 6.4445Z" fill="white"/>
</svg>
