<svg width="18" height="23" viewBox="0 0 18 23" fill="none" xmlns="http://www.w3.org/2000/svg">
<path d="M0 13.0537C0 15.6695 3.06331 19.4409 8.86976 22.3441C15.0802 19.2285 18 15.7027 18 13.0537V3.45855C18 0.856392 11.6008 -3.74997e-05 8.86976 -3.75343e-05C6.13872 -3.75688e-05 0 0.856392 0 4.0392V13.0537Z" fill="#4F4F4F"/>
<path d="M10.5025 9.47367L8.25983 8.96726C7.91723 8.90005 7.60871 8.71568 7.38724 8.4458C7.16576 8.17592 7.04513 7.83736 7.04606 7.48823C7.0558 7.24507 7.11518 7.00647 7.22054 6.78711C7.3259 6.56774 7.47501 6.37224 7.65872 6.21263C7.84242 6.05302 8.05683 5.93267 8.28876 5.85898C8.52069 5.7853 8.76524 5.75982 9.00738 5.78414C9.5666 5.77621 10.1124 5.95544 10.5581 6.29333C11.0038 6.63123 11.3237 7.1084 11.4671 7.649L12.9059 7.08632C12.6765 6.24156 12.1662 5.50017 11.459 4.98436C10.7517 4.46855 9.88986 4.20912 9.01542 4.24884C7.16663 4.24884 5.32589 5.39026 5.32589 7.53646C5.33786 8.25568 5.59807 8.94865 6.06245 9.49798C6.52682 10.0473 7.1668 10.4193 7.87399 10.5508L9.85139 10.9929C10.2344 11.0329 10.5903 11.2091 10.8543 11.4894C11.1184 11.7697 11.2731 12.1354 11.2902 12.5201C11.2701 12.7923 11.1957 13.0576 11.0713 13.3005C10.947 13.5434 10.7752 13.7588 10.5661 13.9342C10.357 14.1095 10.1149 14.2412 9.8541 14.3214C9.59328 14.4016 9.31904 14.4287 9.04757 14.4011C8.47368 14.4094 7.91276 14.2302 7.44997 13.8907C6.98718 13.5512 6.64781 13.07 6.48338 12.5201L4.98828 13.1391C5.29831 13.9745 5.86344 14.6912 6.60357 15.1875C7.3437 15.6838 8.22127 15.9346 9.11187 15.9042C9.60067 15.9425 10.0922 15.8811 10.5565 15.7236C11.0208 15.5661 11.4482 15.3159 11.8129 14.9881C12.1775 14.6603 12.4717 14.2618 12.6775 13.8169C12.8834 13.3719 12.9966 12.8897 13.0104 12.3996C13.0093 11.6931 12.7561 11.0102 12.2963 10.4738C11.8366 9.93746 11.2005 9.58279 10.5025 9.47367Z" fill="white"/>
</svg>
