<svg width="12" height="13" viewBox="0 0 12 13" fill="none" xmlns="http://www.w3.org/2000/svg">
<g clip-path="url(#clip0)">
<path d="M10.6771 1.7997C10.417 1.53958 9.99524 1.53958 9.73512 1.7997L0.943137 10.5917C0.683017 10.8519 0.683017 11.2736 0.943137 11.5337C1.0732 11.6638 1.24368 11.7288 1.41411 11.7288C1.58455 11.7288 1.75508 11.6638 1.88509 11.5337L10.6771 2.74175C10.9373 2.48158 10.9373 2.05987 10.6771 1.7997Z" fill="white"/>
<path d="M3.14549 0.671906C1.79878 0.671906 0.703125 1.76756 0.703125 3.11427C0.703125 4.46097 1.79878 5.55663 3.14549 5.55663C4.49219 5.55663 5.58785 4.46097 5.58785 3.11427C5.58785 1.76756 4.49219 0.671906 3.14549 0.671906ZM3.14549 4.2244C2.53335 4.2244 2.03535 3.7264 2.03535 3.11422C2.03535 2.50209 2.53335 2.00409 3.14549 2.00409C3.75762 2.00409 4.25567 2.50209 4.25567 3.11422C4.25562 3.7264 3.75762 4.2244 3.14549 4.2244Z" fill="white"/>
<path d="M8.47459 7.77689C7.12788 7.77689 6.03223 8.87254 6.03223 10.2192C6.03223 11.566 7.12788 12.6616 8.47459 12.6616C9.82129 12.6616 10.9169 11.566 10.9169 10.2192C10.9169 8.87254 9.82129 7.77689 8.47459 7.77689ZM8.47459 11.3294C7.86245 11.3294 7.36441 10.8314 7.36441 10.2192C7.36441 9.60711 7.86241 9.10911 8.47459 9.10911C9.08672 9.10911 9.58472 9.60711 9.58472 10.2192C9.58472 10.8314 9.08672 11.3294 8.47459 11.3294Z" fill="white"/>
</g>
<defs>
<clipPath id="clip0">
<rect x="0.666992" y="0.666656" width="10.6667" height="12" fill="white"/>
</clipPath>
</defs>
</svg>
