<svg width="33" height="32" viewBox="0 0 33 32" fill="none" xmlns="http://www.w3.org/2000/svg">
<path d="M16.6196 1.00177C12.5456 0.94414 8.61451 2.49006 5.68704 5.30108C2.75958 8.1121 1.07424 11.9592 1 16.0001C1.07424 20.0409 2.75958 23.888 5.68704 26.699C8.61451 29.5101 12.5456 31.056 16.6196 30.9983C20.6954 31.0589 24.6293 29.5142 27.5591 26.7029C30.4889 23.8916 32.1758 20.0428 32.25 16.0001C32.1758 11.9573 30.4889 8.10856 27.5591 5.29723C24.6293 2.48591 20.6954 0.941264 16.6196 1.00177ZM16.6196 28.9957C13.0801 29.0563 9.66091 27.7223 7.11143 25.2862C4.56194 22.8501 3.09024 19.5107 3.01893 16.0001C3.09024 12.4894 4.56194 9.14997 7.11143 6.7139C9.66091 4.27782 13.0801 2.94385 16.6196 3.00442C20.1609 2.94097 23.5829 4.27366 26.1347 6.71004C28.6866 9.14642 30.1598 12.4875 30.2311 16.0001C30.1569 19.5117 28.6828 22.8511 26.1316 25.2869C23.5804 27.7227 20.16 29.0563 16.6196 28.9957ZM18.53 14.9987L15.5016 14.3204C15.0389 14.2304 14.6223 13.9834 14.3233 13.6219C14.0242 13.2604 13.8613 12.807 13.8625 12.3393C13.8757 12.0136 13.9559 11.694 14.0982 11.4002C14.2404 11.1063 14.4418 10.8445 14.6898 10.6307C14.9379 10.4169 15.2274 10.2557 15.5406 10.157C15.8538 10.0583 16.1841 10.0242 16.511 10.0567C17.2662 10.0461 18.0033 10.2862 18.6051 10.7388C19.2069 11.1914 19.6389 11.8305 19.8325 12.5547L21.7754 11.801C21.4657 10.6694 20.7766 9.67636 19.8216 8.98546C18.8665 8.29455 17.7027 7.94705 16.5219 8.00026C14.0254 8.00026 11.5397 9.52916 11.5397 12.4039C11.5559 13.3673 11.9072 14.2955 12.5343 15.0313C13.1614 15.7671 14.0256 16.2653 14.9805 16.4415L17.6507 17.0337C18.1679 17.0873 18.6485 17.3233 19.0051 17.6988C19.3616 18.0742 19.5705 18.5641 19.5937 19.0794C19.5666 19.4439 19.4661 19.7993 19.2981 20.1246C19.1302 20.45 18.8982 20.7386 18.6158 20.9735C18.3335 21.2083 18.0066 21.3847 17.6544 21.4921C17.3022 21.5995 16.9319 21.6358 16.5653 21.5988C15.7903 21.61 15.0329 21.37 14.408 20.9152C13.783 20.4605 13.3248 19.816 13.1027 19.0794L11.0838 19.9084C11.5024 21.0275 12.2656 21.9875 13.265 22.6523C14.2645 23.317 15.4495 23.6529 16.6521 23.6123C17.3122 23.6636 17.9759 23.5813 18.6029 23.3703C19.2299 23.1594 19.8071 22.8242 20.2995 22.3852C20.7918 21.9461 21.1891 21.4123 21.4671 20.8163C21.7451 20.2203 21.898 19.5744 21.9166 18.9179C21.9151 17.9716 21.5731 17.0569 20.9523 16.3385C20.3315 15.62 19.4725 15.1449 18.53 14.9987Z" fill="#2C2C2C" stroke="#2C2C2C" stroke-width="0.3"/>
</svg>
