<svg width="43" height="42" viewBox="0 0 43 42" fill="none" xmlns="http://www.w3.org/2000/svg">
<path d="M21.8261 1.00228C16.3941 0.925438 11.1527 2.98667 7.24939 6.73469C3.34611 10.4827 1.09899 15.6122 1 21C1.09899 26.3878 3.34611 31.5173 7.24939 35.2653C11.1527 39.0133 16.3941 41.0746 21.8261 40.9977C27.2606 41.0784 32.5057 39.0189 36.4121 35.2704C40.3186 31.522 42.5677 26.3904 42.6667 21C42.5677 15.6096 40.3186 10.478 36.4121 6.72956C32.5057 2.98113 27.2606 0.921604 21.8261 1.00228ZM21.8261 38.3275C17.1069 38.4083 12.5479 36.6297 9.14857 33.3816C5.74926 30.1335 3.78698 25.6809 3.69191 21C3.78698 16.3191 5.74926 11.8665 9.14857 8.61845C12.5479 5.37035 17.1069 3.59172 21.8261 3.67247C26.5478 3.58788 31.1105 5.36479 34.513 8.6133C37.9154 11.8618 39.8797 16.3166 39.9748 21C39.8759 25.6822 37.9104 30.1347 34.5088 33.3824C31.1072 36.6301 26.5467 38.4083 21.8261 38.3275ZM24.3733 19.6649L20.3354 18.7605C19.7186 18.6405 19.1631 18.3112 18.7643 17.8292C18.3656 17.3472 18.1484 16.7425 18.1501 16.119C18.1676 15.6847 18.2745 15.2586 18.4642 14.8668C18.6539 14.4751 18.9224 14.1259 19.2531 13.8408C19.5839 13.5558 19.9699 13.3408 20.3875 13.2092C20.8051 13.0776 21.2454 13.0321 21.6814 13.0756C22.6882 13.0614 23.671 13.3815 24.4734 13.985C25.2758 14.5884 25.8519 15.4406 26.11 16.4061L28.7006 15.4012C28.2876 13.8925 27.3687 12.5684 26.0954 11.6472C24.8221 10.726 23.2703 10.2627 21.6958 10.3336C18.3671 10.3336 15.0529 12.3721 15.0529 16.2051C15.0745 17.4896 15.543 18.7272 16.3791 19.7083C17.2152 20.6894 18.3675 21.3537 19.6407 21.5886L23.201 22.3782C23.8906 22.4497 24.5313 22.7644 25.0068 23.2649C25.4822 23.7655 25.7607 24.4187 25.7916 25.1058C25.7554 25.5918 25.6214 26.0657 25.3975 26.4994C25.1735 26.9332 24.8642 27.318 24.4878 27.6312C24.1114 27.9444 23.6755 28.1795 23.2059 28.3227C22.7363 28.4659 22.2425 28.5143 21.7537 28.465C20.7205 28.4799 19.7105 28.1599 18.8773 27.5536C18.044 26.9473 17.433 26.0879 17.137 25.1058L14.4451 26.2112C15.0033 27.7033 16.0208 28.9832 17.3534 29.8696C18.6859 30.756 20.266 31.2038 21.8695 31.1496C22.7496 31.218 23.6345 31.1083 24.4705 30.827C25.3065 30.5458 26.0761 30.0989 26.7326 29.5135C27.3891 28.9281 27.9188 28.2164 28.2894 27.4216C28.6601 26.6269 28.864 25.7657 28.8887 24.8904C28.8868 23.6287 28.4309 22.4092 27.6031 21.4512C26.7753 20.4932 25.63 19.8598 24.3733 19.6649Z" fill="#2C2C2C" stroke="#2C2C2C" stroke-width="0.3"/>
</svg>
