<svg width="17" height="17" viewBox="0 0 17 17" fill="none" xmlns="http://www.w3.org/2000/svg">
<path fill-rule="evenodd" clip-rule="evenodd" d="M0 1.5C0 0.671573 0.671573 0 1.5 0C2.32843 0 3 0.671573 3 1.5C3 2.32843 2.32843 3 1.5 3C0.671573 3 0 2.32843 0 1.5ZM0 8.5C0 7.67157 0.671573 7 1.5 7C2.32843 7 3 7.67157 3 8.5C3 9.32843 2.32843 10 1.5 10C0.671573 10 0 9.32843 0 8.5ZM1.5 14C0.671573 14 0 14.6716 0 15.5C0 16.3284 0.671573 17 1.5 17C2.32843 17 3 16.3284 3 15.5C3 14.6716 2.32843 14 1.5 14ZM7 1.5C7 0.671573 7.67157 0 8.5 0C9.32843 0 10 0.671573 10 1.5C10 2.32843 9.32843 3 8.5 3C7.67157 3 7 2.32843 7 1.5ZM15.5 0C14.6716 0 14 0.671573 14 1.5C14 2.32843 14.6716 3 15.5 3C16.3284 3 17 2.32843 17 1.5C17 0.671573 16.3284 0 15.5 0ZM14 8.5C14 7.67157 14.6716 7 15.5 7C16.3284 7 17 7.67157 17 8.5C17 9.32843 16.3284 10 15.5 10C14.6716 10 14 9.32843 14 8.5ZM15.5 14C14.6716 14 14 14.6716 14 15.5C14 16.3284 14.6716 17 15.5 17C16.3284 17 17 16.3284 17 15.5C17 14.6716 16.3284 14 15.5 14ZM7 8.5C7 7.67157 7.67157 7 8.5 7C9.32843 7 10 7.67157 10 8.5C10 9.32843 9.32843 10 8.5 10C7.67157 10 7 9.32843 7 8.5ZM8.5 14C7.67157 14 7 14.6716 7 15.5C7 16.3284 7.67157 17 8.5 17C9.32843 17 10 16.3284 10 15.5C10 14.6716 9.32843 14 8.5 14Z" fill="white"/>
</svg>
