<svg width="17" height="16" viewBox="0 0 17 16" fill="none" xmlns="http://www.w3.org/2000/svg">
<path d="M8.18479 0.502321C6.14778 0.473504 4.18225 1.24646 2.71852 2.65197C1.25479 4.05748 0.41212 5.98102 0.375 8.00146C0.41212 10.0219 1.25479 11.9454 2.71852 13.351C4.18225 14.7565 6.14778 15.5294 8.18479 15.5006C10.2227 15.5309 12.1896 14.7585 13.6546 13.3529C15.1195 11.9472 15.9629 10.0229 16 8.00146C15.9629 5.98008 15.1195 4.05571 13.6546 2.65005C12.1896 1.24439 10.2227 0.472066 8.18479 0.502321ZM8.18479 14.4993C6.41507 14.5296 4.70546 13.8626 3.43071 12.6445C2.15597 11.4265 1.42012 9.75681 1.38447 8.00146C1.42012 6.24612 2.15597 4.57642 3.43071 3.35838C4.70546 2.14034 6.41507 1.47336 8.18479 1.50364C9.95543 1.47192 11.6664 2.13826 12.9424 3.35645C14.2183 4.57465 14.9549 6.24517 14.9905 8.00146C14.9535 9.75729 14.2164 11.427 12.9408 12.6449C11.6652 13.8628 9.95502 14.5296 8.18479 14.4993ZM9.13998 7.5008L7.62578 7.16165C7.39447 7.11663 7.18616 6.99316 7.03663 6.81241C6.88709 6.63166 6.80564 6.40491 6.80627 6.17109C6.81285 6.00824 6.85294 5.84844 6.92408 5.70153C6.99521 5.55461 7.09589 5.42368 7.21992 5.31678C7.34396 5.20989 7.48872 5.12928 7.64532 5.07993C7.80191 5.03058 7.96703 5.01352 8.13051 5.0298C8.50809 5.02449 8.87663 5.14453 9.17754 5.37083C9.47844 5.59713 9.69446 5.9167 9.79125 6.27876L10.7627 5.90192C10.6079 5.33615 10.2633 4.83962 9.78578 4.49416C9.30827 4.14871 8.72635 3.97496 8.13594 4.00156C6.88768 4.00156 5.64484 4.76601 5.64484 6.20339C5.65293 6.68508 5.82862 7.14918 6.14215 7.51709C6.45569 7.885 6.88779 8.1341 7.36527 8.22219L8.70037 8.51828C8.95896 8.5451 9.19925 8.6631 9.37754 8.85081C9.55582 9.03853 9.66026 9.28349 9.67185 9.54113C9.65829 9.72338 9.60803 9.90109 9.52405 10.0638C9.44008 10.2264 9.32408 10.3707 9.18292 10.4882C9.04176 10.6056 8.8783 10.6938 8.70221 10.7475C8.52611 10.8012 8.34094 10.8193 8.15765 10.8009C7.77017 10.8064 7.39145 10.6864 7.07898 10.4591C6.76652 10.2317 6.53738 9.90941 6.42636 9.54113L5.4169 9.95566C5.62622 10.5152 6.00779 10.9952 6.50751 11.3276C7.00723 11.66 7.59975 11.8279 8.20107 11.8076C8.5311 11.8332 8.86294 11.7921 9.17644 11.6866C9.48993 11.5811 9.77854 11.4135 10.0247 11.194C10.2709 10.9745 10.4695 10.7076 10.6085 10.4096C10.7475 10.1116 10.824 9.78862 10.8333 9.46038C10.8325 8.98724 10.6616 8.5299 10.3512 8.17066C10.0407 7.81143 9.61124 7.57389 9.13998 7.5008Z" fill="#E62739" stroke="#E62739" stroke-width="0.3"/>
</svg>
