<svg width="28" height="28" viewBox="0 0 28 28" fill="none" xmlns="http://www.w3.org/2000/svg">
<path d="M17.146 16.9734C16.2547 17.692 15.1443 18.0839 13.9994 18.0839C12.8544 18.0839 11.744 17.692 10.8527 16.9734C10.5804 16.7471 10.2294 16.6382 9.87679 16.6707C9.52422 16.7032 9.19901 16.8745 8.97269 17.1467C8.74637 17.419 8.63749 17.7701 8.66999 18.1226C8.7025 18.4752 8.87373 18.8004 9.14602 19.0267C10.5078 20.1636 12.2254 20.7863 13.9994 20.7863C15.7733 20.7863 17.4909 20.1636 18.8527 19.0267C19.125 18.8004 19.2962 18.4752 19.3287 18.1226C19.3612 17.7701 19.2523 17.419 19.026 17.1467C18.914 17.0119 18.7764 16.9005 18.6213 16.8188C18.4662 16.7371 18.2965 16.6868 18.1219 16.6707C17.7694 16.6382 17.4183 16.7471 17.146 16.9734ZM9.99936 12.6667C10.2631 12.6667 10.5209 12.5885 10.7401 12.442C10.9594 12.2955 11.1303 12.0873 11.2312 11.8437C11.3321 11.6 11.3585 11.3319 11.3071 11.0733C11.2556 10.8147 11.1286 10.5771 10.9422 10.3906C10.7557 10.2041 10.5181 10.0771 10.2595 10.0257C10.0008 9.97425 9.73275 10.0007 9.48911 10.1016C9.24547 10.2025 9.03724 10.3734 8.89073 10.5927C8.74422 10.8119 8.66602 11.0697 8.66602 11.3334C8.66602 11.687 8.8065 12.0262 9.05655 12.2762C9.30659 12.5263 9.64573 12.6667 9.99936 12.6667ZM17.9994 10.0001C17.7356 10.0001 17.4779 10.0783 17.2586 10.2248C17.0393 10.3713 16.8684 10.5795 16.7675 10.8232C16.6666 11.0668 16.6402 11.3349 16.6916 11.5935C16.7431 11.8522 16.8701 12.0898 17.0565 12.2762C17.243 12.4627 17.4806 12.5897 17.7392 12.6411C17.9979 12.6926 18.266 12.6662 18.5096 12.5653C18.7532 12.4643 18.9615 12.2934 19.108 12.0742C19.2545 11.8549 19.3327 11.5971 19.3327 11.3334C19.3327 10.9798 19.1922 10.6407 18.9422 10.3906C18.6921 10.1406 18.353 10.0001 17.9994 10.0001ZM13.9994 0.666748C11.3623 0.666748 8.78441 1.44873 6.59175 2.91382C4.3991 4.37891 2.69013 6.46129 1.68096 8.89764C0.671793 11.334 0.407748 14.0149 0.922218 16.6013C1.43669 19.1877 2.70656 21.5635 4.57126 23.4282C6.43597 25.2929 8.81174 26.5627 11.3982 27.0772C13.9846 27.5917 16.6655 27.3276 19.1018 26.3185C21.5382 25.3093 23.6205 23.6003 25.0856 21.4077C26.5507 19.215 27.3327 16.6372 27.3327 14.0001C27.3327 12.2491 26.9878 10.5153 26.3177 8.89764C25.6477 7.27996 24.6656 5.81011 23.4274 4.57199C22.1893 3.33388 20.7195 2.35175 19.1018 1.68169C17.4841 1.01162 15.7503 0.666748 13.9994 0.666748ZM13.9994 24.6667C11.8897 24.6667 9.8274 24.0412 8.07327 22.8691C6.31915 21.697 4.95198 20.0311 4.14464 18.082C3.33731 16.133 3.12607 13.9882 3.53765 11.9191C3.94922 9.84999 4.96512 7.94937 6.45688 6.45761C7.94864 4.96585 9.84926 3.94995 11.9184 3.53837C13.9875 3.1268 16.1322 3.33803 18.0813 4.14537C20.0304 4.9527 21.6963 6.31987 22.8684 8.074C24.0404 9.82812 24.666 11.8904 24.666 14.0001C24.666 16.8291 23.5422 19.5422 21.5418 21.5426C19.5414 23.5429 16.8283 24.6667 13.9994 24.6667Z" fill="#A1A1A1"/>
</svg>
