<svg width="16" height="16" viewBox="0 0 16 16" fill="none" xmlns="http://www.w3.org/2000/svg">
<path d="M0 8C0 3.58172 3.58172 0 8 0C12.4183 0 16 3.58172 16 8C16 12.4183 12.4183 16 8 16C3.58172 16 0 12.4183 0 8Z" fill="#3EBD6B"/>
<path d="M11.6914 9.48151L9.12547 8L11.6914 6.51849C11.8206 6.44386 11.9148 6.321 11.9534 6.17691C11.9919 6.03283 11.9717 5.87933 11.8972 5.75014C11.8226 5.62096 11.6998 5.52668 11.5557 5.48802C11.4117 5.44937 11.2581 5.46951 11.1289 5.54401L8.56279 7.02562V4.0625C8.56279 3.91332 8.50353 3.77024 8.39804 3.66475C8.29255 3.55926 8.14948 3.5 8.00029 3.5C7.85111 3.5 7.70804 3.55926 7.60255 3.66475C7.49706 3.77024 7.43779 3.91332 7.43779 4.0625V7.02562L4.87167 5.54399C4.74245 5.46949 4.58893 5.44935 4.44487 5.48801C4.30081 5.52666 4.17799 5.62095 4.10342 5.75013C4.02886 5.87931 4.00864 6.03281 4.04722 6.1769C4.08581 6.32098 4.18003 6.44384 4.30917 6.51848L6.87512 8L4.30917 9.48151C4.18003 9.55614 4.08581 9.679 4.04722 9.82309C4.00864 9.96717 4.02886 10.1207 4.10342 10.2499C4.17799 10.379 4.30081 10.4733 4.44487 10.512C4.58893 10.5506 4.74245 10.5305 4.87167 10.456L7.43779 8.97438V11.9375C7.43779 12.0867 7.49706 12.2298 7.60255 12.3352C7.70804 12.4407 7.85111 12.5 8.00029 12.5C8.14948 12.5 8.29255 12.4407 8.39804 12.3352C8.50353 12.2298 8.56279 12.0867 8.56279 11.9375V8.97438L11.1289 10.456C11.2581 10.5305 11.4117 10.5506 11.5557 10.512C11.6998 10.4733 11.8226 10.3791 11.8972 10.2499C11.9717 10.1207 11.9919 9.96719 11.9534 9.8231C11.9148 9.67902 11.8206 9.55616 11.6914 9.48152V9.48151Z" fill="white"/>
</svg>
