<svg width="84" height="20" viewBox="0 0 84 20" fill="none" xmlns="http://www.w3.org/2000/svg">
    <g clip-path="url(#clip0)">
        <path d="M43.6702 5.37721H41.0006L39.1113 8.69064H38.1388L38.1078 1.51978H35.5804V14.4706H38.1078L38.1388 10.9161H39.1051L41.6137 14.4706H44.4136L41.1429 9.7601L43.6702 5.37721Z" fill="#4F4F4F"/>
        <path d="M62.7983 9.64267C62.2848 9.31108 61.7282 9.0511 61.1442 8.86997L60.5867 8.65977L60.4381 8.60413C60.0913 8.47433 59.7258 8.33833 59.7134 7.98595C59.7103 7.88159 59.7333 7.77809 59.7811 7.68513C59.8287 7.59218 59.8992 7.51274 59.9859 7.45434C60.169 7.32845 60.3834 7.25569 60.6053 7.24415C61.0892 7.21081 61.5691 7.35354 61.9557 7.64596L62.0238 7.68926L63.3741 6.13763L63.3061 6.08198C63.1379 5.93242 62.9555 5.79989 62.761 5.68634C62.4126 5.4875 62.034 5.34756 61.6399 5.27216C61.0721 5.15163 60.4854 5.15163 59.9179 5.27216C59.369 5.34464 58.8485 5.55763 58.4065 5.89034C58.1237 6.11104 57.8875 6.38513 57.711 6.69697C57.5348 7.00883 57.4216 7.3523 57.3781 7.70777C57.3007 8.3493 57.4639 8.99673 57.8365 9.52524C58.3313 10.0721 58.9784 10.4595 59.6947 10.6379L59.8063 10.675L60.0602 10.7616C60.977 11.0707 61.2372 11.1943 61.3857 11.3798C61.455 11.4731 61.4939 11.5852 61.4973 11.7012C61.4973 12.1401 60.9584 12.3194 60.5929 12.4307C60.3374 12.4786 60.0748 12.4736 59.8212 12.4162C59.5676 12.3588 59.3286 12.2501 59.1188 12.0969C58.7792 11.8702 58.4886 11.5781 58.2639 11.2376C58.1215 11.3859 56.7214 12.7645 56.7463 12.7892L56.7898 12.851C57.4642 13.6938 58.4093 14.2789 59.4657 14.5078C59.7069 14.5543 59.9511 14.5853 60.1967 14.6005H60.4506C61.285 14.6179 62.1024 14.3641 62.7796 13.8772C63.2377 13.5539 63.5889 13.1021 63.7893 12.579C63.9112 12.2279 63.9541 11.8544 63.9155 11.4849C63.877 11.1153 63.758 10.7587 63.5662 10.4401C63.3704 10.1225 63.1084 9.8505 62.7983 9.64267Z" fill="#4F4F4F"/>
        <path d="M70.9622 9.6426C70.451 9.31104 69.8968 9.05104 69.3147 8.86987L68.7509 8.65971L68.6086 8.60407C68.2556 8.47423 67.8963 8.33823 67.8776 7.98589C67.8792 7.88171 67.9053 7.77938 67.9538 7.68705C68.0023 7.59475 68.0716 7.515 68.1564 7.45424C68.3395 7.32835 68.5539 7.25562 68.7758 7.24408C69.2597 7.21186 69.7389 7.35447 70.1262 7.64589L70.188 7.68916L71.5384 6.13753L71.4765 6.08188C71.3072 5.93087 71.1226 5.79824 70.9252 5.68628C70.579 5.48765 70.2023 5.34768 69.8101 5.27209C69.2404 5.15141 68.6518 5.15141 68.0821 5.27209C67.5339 5.34672 67.0136 5.55945 66.5705 5.89027C66.2861 6.10887 66.0477 6.38144 65.869 6.69228C65.6906 7.00312 65.5753 7.34609 65.53 7.70153C65.4488 8.34328 65.6123 8.99201 65.9884 9.51897C66.4831 10.0659 67.1302 10.4532 67.8466 10.6317L67.9519 10.6688L68.2058 10.7553C69.1289 11.0644 69.389 11.1881 69.5375 11.3735C69.609 11.4652 69.6463 11.5789 69.6429 11.695C69.6429 12.1339 69.1102 12.3131 68.7447 12.4244C68.4883 12.4724 68.2245 12.4676 67.9699 12.4102C67.7154 12.3528 67.4752 12.244 67.2645 12.0906C66.9276 11.8607 66.6376 11.5691 66.4095 11.2313C66.2734 11.3797 64.8733 12.7582 64.8919 12.783L64.9413 12.8448C65.616 13.6876 66.5611 14.2727 67.6175 14.5015C67.8587 14.5484 68.103 14.5794 68.3485 14.5942H68.6024C69.4369 14.6117 70.2542 14.3578 70.9314 13.8709C71.3895 13.5476 71.7407 13.0958 71.9412 12.5728C72.0627 12.2217 72.1059 11.8482 72.0674 11.4786C72.0288 11.1091 71.9098 10.7524 71.718 10.4339C71.5247 10.12 71.2671 9.85041 70.9622 9.6426Z" fill="#4F4F4F"/>
        <path d="M51.9704 5.37724V6.26743H51.8592C51.1674 5.57614 50.23 5.18519 49.2514 5.17942C48.6512 5.1676 48.0551 5.28202 47.5026 5.51529C46.9497 5.74853 46.4521 6.09538 46.0425 6.53323C45.2164 7.45642 44.7735 8.65881 44.8037 9.89613C44.7717 11.1542 45.2136 12.3785 46.0425 13.327C46.4425 13.7651 46.932 14.1123 47.4783 14.3448C48.0244 14.5773 48.6142 14.6898 49.2078 14.6746C50.1881 14.6563 51.1307 14.2953 51.8713 13.6546H51.9704V14.4521H54.5969V5.37724H51.9704ZM52.1007 9.94557C52.1271 10.6769 51.8822 11.3922 51.4129 11.9547C51.1882 12.2059 50.9106 12.4048 50.6002 12.5373C50.29 12.6698 49.954 12.7326 49.6168 12.7212C49.2896 12.7267 48.9651 12.6584 48.668 12.5214C48.3709 12.3844 48.1086 12.1822 47.901 11.9299C47.4373 11.3558 47.1995 10.6327 47.2319 9.89613C47.2107 9.18168 47.4531 8.48438 47.9131 7.93651C48.1251 7.68804 48.3892 7.48939 48.687 7.35472C48.9847 7.22008 49.3085 7.15274 49.6352 7.15758C49.9705 7.14719 50.3037 7.21108 50.6111 7.3447C50.9184 7.47832 51.1925 7.67834 51.4129 7.93031C51.8822 8.49523 52.1268 9.21241 52.1007 9.94557Z" fill="#4F4F4F"/>
        <path d="M80.5385 5.37727V6.26743H80.427C79.7367 5.57767 78.8022 5.18684 77.8254 5.17945C77.2246 5.16829 76.6279 5.28302 76.0741 5.51619C75.5206 5.74937 75.0218 6.09585 74.6106 6.53327C73.7845 7.45645 73.3417 8.65882 73.3718 9.89616C73.3398 11.1542 73.7817 12.3785 74.6106 13.327C75.0106 13.7652 75.5001 14.1123 76.0461 14.3448C76.5925 14.5774 77.1824 14.6899 77.776 14.6747C78.7562 14.6563 79.6985 14.2953 80.4394 13.6547H80.5385V14.4521H83.165V5.37727H80.5385ZM80.6688 9.9456C80.698 10.6774 80.4528 11.3937 79.981 11.9547C79.7563 12.206 79.4788 12.4049 79.1683 12.5374C78.8578 12.6698 78.5222 12.7326 78.1846 12.7212C77.8574 12.7267 77.5332 12.6584 77.2361 12.5214C76.939 12.3844 76.6767 12.1822 76.4688 11.93C76.0054 11.3559 75.7673 10.6328 75.8 9.89616C75.7788 9.18171 76.0213 8.48441 76.4812 7.93652C76.6932 7.68808 76.9573 7.48939 77.2551 7.35475C77.5528 7.22008 77.8766 7.15278 78.2033 7.15762C78.5386 7.14719 78.8718 7.21112 79.1792 7.34473C79.4865 7.47835 79.7603 7.67837 79.981 7.93035C80.4528 8.49381 80.6977 9.21201 80.6688 9.9456Z" fill="#4F4F4F"/>
        <path d="M18.3284 0C12.8759 0 8.53864 4.39033 8.53864 9.77C8.53864 15.2115 12.9378 19.54 18.3284 19.54C23.719 19.54 28.1182 15.1497 28.1182 9.77C28.1182 4.39033 23.719 0 18.3284 0ZM18.3284 13.3565C16.3457 13.3565 14.6728 11.6869 14.6728 9.70816C14.6728 7.72944 16.3457 6.05988 18.3284 6.05988C20.3112 6.05988 21.9841 7.72944 21.9841 9.70816C21.9221 11.7487 20.3112 13.3565 18.3284 13.3565Z" fill="#4F4F4F"/>
        <path d="M8.47643 2.78259V17.0047H5.00663L0.545471 2.78259H8.47643Z" fill="#4F4F4F"/>
    </g>
    <defs>
        <clipPath id="clip0">
            <rect width="82.6692" height="19.54" fill="white" transform="translate(0.545471)"/>
        </clipPath>
    </defs>
</svg>
