<svg width="32" height="32" viewBox="0 0 32 32" fill="none" xmlns="http://www.w3.org/2000/svg">
<path fill-rule="evenodd" clip-rule="evenodd" d="M13.46 24.45C7.16999 24.45 2.07001 19.44 2.07001 13.25C2.07001 7.06 7.16999 2.04004 13.46 2.04004C19.75 2.04004 24.85 7.06 24.85 13.25C24.85 19.44 19.75 24.45 13.46 24.45ZM31.688 30.25L23.429 22.12C25.592 19.77 26.92 16.67 26.92 13.25C26.92 5.93 20.894 0 13.46 0C6.02599 0 0 5.93 0 13.25C0 20.56 6.02599 26.49 13.46 26.49C16.672 26.49 19.618 25.38 21.932 23.53L30.225 31.6899C30.629 32.0899 31.284 32.0899 31.688 31.6899C32.093 31.2999 32.093 30.65 31.688 30.25ZM18.519 12.41H14.522V8.41003C14.522 7.85003 14.075 7.41003 13.523 7.41003C12.972 7.41003 12.524 7.85003 12.524 8.41003V12.41H8.52899C7.97799 12.41 7.53 12.86 7.53 13.41C7.53 13.97 7.97799 14.41 8.52899 14.41H12.524V18.41C12.524 18.97 12.972 19.41 13.523 19.41C14.075 19.41 14.522 18.97 14.522 18.41V14.41H18.519C19.07 14.41 19.518 13.96 19.518 13.41C19.518 12.86 19.07 12.41 18.519 12.41Z" fill="black"/>
</svg>
