<svg width="26" height="24" viewBox="0 0 26 24" fill="none" xmlns="http://www.w3.org/2000/svg">
<path d="M5.07937 23.9998C3.66137 23.9998 2.46032 23.5828 1.47619 22.7487C0.492058 21.9147 0 20.7844 0 19.3578C0 18.3701 0.296293 17.3605 0.888889 16.329L8.69841 2.79811C9.75662 0.932531 11.1958 -0.000244141 13.0159 -0.000244141C14.8148 -0.000244141 16.2434 0.932531 17.3016 2.79811L25.1429 16.329C25.7143 17.2947 26 18.3153 26 19.3907C26 20.2247 25.8201 20.949 25.4603 21.5635C24.5503 23.1877 23.0476 23.9998 20.9524 23.9998H5.07937ZM13.0159 6.78165C12.4444 6.78165 11.9577 6.99015 11.5556 7.40716C11.1534 7.82417 10.9524 8.32897 10.9524 8.92157C10.9524 9.49221 11.1587 9.98604 11.5714 10.403C11.9841 10.8201 12.4656 11.0286 13.0159 11.0286C13.5873 11.0286 14.0688 10.8201 14.4603 10.403C14.8519 9.98604 15.0476 9.49221 15.0476 8.92157C15.0476 8.35092 14.8466 7.85161 14.4444 7.42362C14.0423 6.99564 13.5661 6.78165 13.0159 6.78165ZM15.2381 18.403C15.3651 18.2494 15.3651 18.1122 15.2381 17.9915C15.1111 17.8708 14.9841 17.8434 14.8571 17.9092C14.4339 18.0848 14.1164 18.1726 13.9048 18.1726L13.7143 18.1397C13.418 18.008 13.3757 17.6239 13.5873 16.9874L14.127 15.3084C14.4021 14.4085 14.3704 13.6294 14.0317 12.9709C13.6931 12.3125 13.1429 11.9613 12.381 11.9175C11.8518 11.8955 11.3439 11.9888 10.8571 12.1973C10.3704 12.4058 10.0265 12.6033 9.8254 12.7899C9.62434 12.9764 9.50265 13.1026 9.46032 13.1685C9.33333 13.3221 9.32804 13.4648 9.44444 13.5965C9.56085 13.7282 9.69312 13.7611 9.84127 13.6952C10.2646 13.5196 10.582 13.4319 10.7937 13.4319L10.9841 13.4648C11.2804 13.5965 11.3228 13.9805 11.1111 14.617L10.5714 16.2961C10.2751 17.1959 10.3016 17.9696 10.6508 18.617C11 19.2645 11.5556 19.6102 12.3175 19.6541H12.5079C13.0159 19.6541 13.4974 19.5498 13.9524 19.3413C14.4074 19.1328 14.7302 18.9408 14.9206 18.7652C15.1111 18.5896 15.2169 18.4689 15.2381 18.403Z" fill="#4F4F4F"/>
</svg>
