<svg width="21" height="20" viewBox="0 0 21 20" fill="none" xmlns="http://www.w3.org/2000/svg">
<path d="M10.4967 1.00103C8.0197 0.966447 5.62962 1.894 3.84972 3.58061C2.06983 5.26722 1.04514 7.57547 1 10C1.04514 12.4245 2.06983 14.7328 3.84972 16.4194C5.62962 18.106 8.0197 19.0336 10.4967 18.999C12.9748 19.0353 15.3666 18.1085 17.1479 16.4217C18.9293 14.7349 19.9549 12.4257 20 10C19.9549 7.57434 18.9293 5.2651 17.1479 3.5783C15.3666 1.89151 12.9748 0.964722 10.4967 1.00103ZM10.4967 17.7974C8.34473 17.8337 6.26584 17.0333 4.71575 15.5717C3.16566 14.1101 2.27086 12.1064 2.22751 10C2.27086 7.89359 3.16566 5.88995 4.71575 4.4283C6.26584 2.96666 8.34473 2.16627 10.4967 2.20261C12.6498 2.16454 14.7304 2.96416 16.2819 4.42599C17.8334 5.88782 18.7291 7.89245 18.7725 10C18.7274 12.107 17.8312 14.1106 16.28 15.5721C14.7289 17.0336 12.6493 17.8337 10.4967 17.7974ZM11.6582 9.39921L9.81695 8.99222C9.53567 8.9382 9.28237 8.79003 9.10054 8.57313C8.9187 8.35623 8.81966 8.08414 8.82042 7.80355C8.82842 7.60813 8.87717 7.41637 8.96368 7.24007C9.05018 7.06377 9.1726 6.90666 9.32343 6.77838C9.47425 6.6501 9.65028 6.55338 9.8407 6.49416C10.0311 6.43494 10.2319 6.41446 10.4307 6.434C10.8898 6.42763 11.338 6.57167 11.7039 6.84323C12.0698 7.11479 12.3325 7.49829 12.4502 7.93276L13.6315 7.48055C13.4432 6.80163 13.0241 6.20578 12.4435 5.79124C11.8629 5.37669 11.1552 5.1682 10.4373 5.20012C8.91942 5.20012 7.40813 6.11746 7.40813 7.84231C7.41796 8.42033 7.6316 8.97726 8.01286 9.41875C8.39412 9.86024 8.91956 10.1592 9.50017 10.2649L11.1237 10.6202C11.4381 10.6524 11.7303 10.794 11.9471 11.0192C12.1639 11.2445 12.2909 11.5384 12.305 11.8476C12.2885 12.0663 12.2274 12.2796 12.1252 12.4747C12.0231 12.6699 11.8821 12.8431 11.7104 12.984C11.5388 13.125 11.34 13.2308 11.1259 13.2952C10.9117 13.3597 10.6866 13.3815 10.4637 13.3593C9.99253 13.3659 9.532 13.2219 9.15204 12.9491C8.77208 12.6763 8.49345 12.2895 8.35846 11.8476L7.13095 12.345C7.38549 13.0165 7.84947 13.5925 8.45713 13.9913C9.06479 14.3902 9.78529 14.5917 10.5165 14.5673C10.9178 14.5981 11.3213 14.5487 11.7025 14.4222C12.0838 14.2956 12.4347 14.0945 12.7341 13.8311C13.0334 13.5676 13.275 13.2474 13.444 12.8897C13.613 12.5321 13.706 12.1446 13.7173 11.7507C13.7164 11.1829 13.5085 10.6341 13.131 10.203C12.7535 9.77195 12.2313 9.48691 11.6582 9.39921Z" fill="#4F4F4F" stroke="#4F4F4F" stroke-width="0.3"/>
</svg>
