<svg width="12" height="16" viewBox="0 0 12 16" fill="none" xmlns="http://www.w3.org/2000/svg">
<path d="M3.44084 16C1.66799 10.1392 5.41398 7.9993 5.41398 7.9993C4.88346 11.2572 6.49187 14.0498 6.49187 14.0498C7.14338 13.8526 8.81841 12.4442 8.81841 12.4442C8.81841 13.5631 8.16225 15.9986 8.16225 15.9986C8.16225 15.9986 10.4593 14.2167 11.1824 11.2572C11.9045 8.29768 9.80684 5.3265 9.80684 5.3265C9.93324 7.4212 9.22689 9.48139 7.843 11.0553C7.91224 10.9751 7.97033 10.8861 8.01494 10.7896C8.26355 10.2907 8.66274 8.9942 8.42899 5.99178C8.09998 1.77721 4.29358 0 4.29358 0C4.62166 2.56791 3.63788 3.15953 1.3334 8.0338C-0.971069 12.9071 3.44084 16 3.44084 16Z" fill="white"/>
</svg>
