<svg width="23" height="23" viewBox="0 0 23 23" fill="none" xmlns="http://www.w3.org/2000/svg">
<path fill-rule="evenodd" clip-rule="evenodd" d="M20.7588 18.5551C20.7588 19.7716 19.7704 20.7588 18.5545 20.7588H4.4449C3.22903 20.7588 2.2412 19.7716 2.2412 18.5551V9.13902H5.67469C5.37768 9.86915 5.21072 10.6658 5.21072 11.5C5.21072 14.968 8.03203 17.7893 11.5 17.7893C14.968 17.7893 17.7887 14.968 17.7887 11.5C17.7887 10.6658 17.6211 9.86915 17.3253 9.13902H20.7588V18.5551ZM8.21774 9.13902C8.95332 8.11914 10.1492 7.45132 11.5 7.45132C12.8508 7.45132 14.0461 8.11914 14.7817 9.13902C15.262 9.80443 15.5493 10.618 15.5493 11.5C15.5493 13.7321 13.7315 15.5475 11.5 15.5475C9.26787 15.5475 7.45192 13.7321 7.45192 11.5C7.45192 10.618 7.73926 9.80443 8.21774 9.13902ZM19.8303 2.65194L20.339 2.64952V3.15644V6.54758L16.4518 6.56089L16.4391 2.66222L19.8303 2.65194ZM18.5545 0H4.4449C1.99379 0 0 1.9944 0 4.44551V9.13902V18.5551C0 21.0062 1.99379 23 4.4449 23H18.5545C21.0056 23 23 21.0062 23 18.5551V9.13902V4.44551C23 1.9944 21.0056 0 18.5545 0Z" fill="white"/>
</svg>
