<svg width="216" height="48" viewBox="0 0 216 48" fill="none" xmlns="http://www.w3.org/2000/svg">
<path d="M195.87 11.2348V14.5424H203.771V36.3518H207.599V14.5424H215.5V11.2348H195.87ZM77.0085 29.2887L69.5972 11.2348H64.126V36.3518H67.9366V16.3857L76.2045 36.3518H77.8126L86.1504 16.3857V36.3518H89.9785V11.2348H84.4024L77.0085 29.2887ZM25.6533 0.00274093C19.0926 -0.0894741 12.7622 2.384 8.04786 6.88163C3.33357 11.3793 0.619554 17.5346 0.5 24C0.619554 30.4654 3.33357 36.6207 8.04786 41.1184C12.7622 45.616 19.0926 48.0895 25.6533 47.9973C32.2169 48.0941 38.5518 45.6226 43.2699 41.1245C47.988 36.6264 50.7044 30.4684 50.824 24C50.7044 17.5316 47.988 11.3736 43.2699 6.87548C38.5518 2.37735 32.2169 -0.0940752 25.6533 0.00274093ZM25.6533 44.793C19.9535 44.8899 14.4473 42.7556 10.3416 38.8579C6.23604 34.9601 3.86605 29.6171 3.75122 24C3.86605 18.3829 6.23604 13.0399 10.3416 9.14214C14.4473 5.24442 19.9535 3.11006 25.6533 3.20697C31.356 3.10545 36.8667 5.23775 40.9761 9.13597C45.0855 13.0342 47.458 18.3799 47.5728 24C47.4534 29.6186 45.0795 34.9617 40.9711 38.8589C36.8628 42.7562 31.3547 44.89 25.6533 44.793ZM28.7297 22.3979L23.8528 21.3126C23.1078 21.1685 22.437 20.7734 21.9553 20.195C21.4737 19.6166 21.2114 18.891 21.2134 18.1428C21.2346 17.6217 21.3637 17.1103 21.5928 16.6402C21.8219 16.1701 22.1462 15.7511 22.5457 15.409C22.9452 15.0669 23.4114 14.809 23.9158 14.6511C24.4201 14.4932 24.9519 14.4386 25.4785 14.4907C26.6945 14.4737 27.8815 14.8578 28.8506 15.582C29.8198 16.3061 30.5155 17.3288 30.8272 18.4873L33.9561 17.2815C33.4573 15.471 32.3475 13.8821 30.8096 12.7766C29.2717 11.6712 27.3975 11.1152 25.4959 11.2003C21.4756 11.2003 17.4728 13.6466 17.4728 18.2462C17.4988 19.7876 18.0647 21.2727 19.0745 22.45C20.0843 23.6273 21.476 24.4244 23.0138 24.7063L27.3138 25.6538C28.1467 25.7396 28.9206 26.1172 29.4948 26.7179C30.069 27.3186 30.4054 28.1025 30.4427 28.9269C30.399 29.5101 30.2371 30.0788 29.9667 30.5993C29.6962 31.1198 29.3226 31.5816 28.868 31.9574C28.4133 32.3332 27.8869 32.6154 27.3197 32.7873C26.7526 32.9591 26.1562 33.0172 25.5659 32.9581C24.3179 32.9759 23.0981 32.5918 22.0918 31.8643C21.0854 31.1367 20.3474 30.1054 19.9898 28.9269L16.7386 30.2534C17.4128 32.0439 18.6417 33.5799 20.2512 34.6435C21.8607 35.7072 23.769 36.2446 25.7057 36.1795C26.7686 36.2617 27.8374 36.13 28.8471 35.7925C29.8568 35.4549 30.7863 34.9187 31.5792 34.2162C32.3721 33.5137 33.0118 32.6596 33.4595 31.706C33.9072 30.7523 34.1534 29.7189 34.1833 28.6685C34.181 27.1545 33.6303 25.691 32.6305 24.5414C31.6308 23.3919 30.2475 22.6318 28.7297 22.3979ZM174.108 36.3518H191.238V33.0442H177.936V25.2059H191.028V21.8983H178.006V14.5424H191.308V11.2348H174.178L174.108 36.3518ZM142.994 18.9525C143.029 17.9 142.839 16.852 142.435 15.877C142.032 14.9019 141.425 14.0215 140.653 13.2933C139.881 12.5651 138.962 12.0055 137.956 11.6508C136.95 11.2961 135.879 11.1543 134.814 11.2348H124.064V36.3518H127.892V26.6702H132.664L138.747 36.3518H143.169L136.649 26.3084C138.46 26.1129 140.126 25.2419 141.306 23.874C142.486 22.5062 143.09 20.7453 142.994 18.9525ZM127.892 23.3626V14.5424H134.307C134.895 14.5424 135.476 14.6564 136.019 14.8781C136.562 15.0997 137.056 15.4245 137.471 15.8341C137.887 16.2436 138.216 16.7297 138.441 17.2648C138.666 17.7999 138.782 18.3733 138.782 18.9525C138.782 19.5316 138.666 20.1051 138.441 20.6402C138.216 21.1752 137.887 21.6614 137.471 22.0709C137.056 22.4804 136.562 22.8053 136.019 23.0269C135.476 23.2485 134.895 23.3626 134.307 23.3626H127.892ZM168.445 11.3037H163.708L153.535 23.1903L164.547 36.4207H169.284L157.939 23.2076L168.445 11.3037ZM149.707 11.3037V36.3518H153.535V11.2348L149.707 11.3037ZM104.591 11.3037L94.4533 36.3518H98.6659L101.428 29.7366H112.44L115.289 36.4207H119.502L109.363 11.2348L104.591 11.3037ZM102.843 26.3601L106.934 16.0239L111.024 26.3601H102.843Z" fill="#E62739"/>
</svg>
