<svg width="32" height="24" viewBox="0 0 32 24" fill="none" xmlns="http://www.w3.org/2000/svg">
<path d="M2 3V20H30V3H2ZM6 5H26C26 6.105 26.895 7 28 7V16C26.895 16 26 16.895 26 18H6C6 16.895 5.105 16 4 16V7C5.105 7 6 6.105 6 5ZM8.5 10C7.672 10 7 10.672 7 11.5C7 12.328 7.672 13 8.5 13C9.328 13 10 12.328 10 11.5C10 10.672 9.328 10 8.5 10ZM23.5 10C22.672 10 22 10.672 22 11.5C22 12.328 22.672 13 23.5 13C24.328 13 25 12.328 25 11.5C25 10.672 24.328 10 23.5 10Z" fill="#4F4F4F"/>
<path d="M17.1389 12.5862C19.0417 12.5862 20 11.3043 20 9.8066C20 8.29535 19.0417 7 17.1389 7H13.7222V11.1559H13V12.5862H13.7222V13.6387H13V14.6912H13.7222V16H15.5833V14.6912H18.1806V13.6387H15.5833V12.5862H17.1389ZM15.5833 8.5922H16.9167C17.625 8.5922 18.0972 9.09145 18.0972 9.87406C18.0972 10.6567 17.625 11.1559 16.9167 11.1559H15.5833V8.5922Z" fill="#4F4F4F"/>
</svg>
