<svg width="30" height="30" viewBox="0 0 30 30" fill="none" xmlns="http://www.w3.org/2000/svg">
<path fill-rule="evenodd" clip-rule="evenodd" d="M22.8978 24.5389C19.2738 26.2944 11.7789 25.0778 8.63776 19.6372C5.49704 14.1973 8.11189 7.21326 11.5228 4.83681C12.5493 4.12215 11.9807 4.45512 13.03 3.96661C11.5367 6.80274 11.2293 12.4762 13.6822 16.7248C16.1351 20.9734 20.3572 23.7719 24.405 23.6687C23.5073 24.3043 23.9738 24.0171 22.8978 24.5389ZM15.1176 15.896C12.3145 11.0409 13.0839 5.09512 16.5802 0.970282C15.088 1.24077 13.6114 1.75454 12.2175 2.55932C5.85513 6.23263 3.60778 14.2514 7.1974 20.4688C10.7874 26.6869 18.8551 28.7493 25.2175 25.076C26.6114 24.2712 27.7946 23.2494 28.775 22.0923C23.4546 23.0577 17.9212 20.7519 15.1176 15.896Z" fill="#4F4F4F"/>
</svg>
