<svg width="14" height="14" viewBox="0 0 14 14" fill="none" xmlns="http://www.w3.org/2000/svg">
<path d="M5.13607 4.94259L5.97791 3.28858C3.85349 3.74955 2.26154 5.60764 2.26154 7.82531C2.26154 10.3874 4.38515 12.477 7.00043 12.477C9.61572 12.477 11.7393 10.3874 11.7393 7.82531V7.67531H11.8893H12.7782H12.9282V7.82531C12.9282 11.0396 10.2665 13.6501 7.00043 13.6501C3.73438 13.6501 1.07266 11.0396 1.07266 7.82531C1.07266 5.10917 2.97356 2.82627 5.53192 2.18307L4.40776 1.29985L4.2877 1.20552L4.38414 1.08715L4.93969 0.405312L5.03278 0.291066L5.14866 0.382115L7.37088 2.1282L7.37105 2.12833C7.5156 2.24224 7.59487 2.41248 7.59487 2.58707C7.59487 2.67602 7.57443 2.76602 7.5321 2.84983L7.53189 2.85025L6.19854 5.46937L6.13145 5.60116L5.99872 5.53594L5.2036 5.14526L5.06706 5.07817L5.13607 4.94259Z" fill="white" stroke="white" stroke-width="0.3"/>
<path d="M11.3337 5.55562C12.5303 5.55562 13.5003 4.58557 13.5003 3.38896C13.5003 2.19234 12.5303 1.22229 11.3337 1.22229C10.137 1.22229 9.16699 2.19234 9.16699 3.38896C9.16699 4.58557 10.137 5.55562 11.3337 5.55562Z" fill="white"/>
</svg>
