<svg width="34" height="32" viewBox="0 0 34 32" fill="none" xmlns="http://www.w3.org/2000/svg">
<path d="M16.9944 0.501754C12.8227 0.442737 8.79725 2.02576 5.79953 4.90424C2.80181 7.78273 1.07602 11.7221 1 15.86C1.07602 19.9979 2.80181 23.9373 5.79953 26.8158C8.79725 29.6942 12.8227 31.2773 16.9944 31.2182C21.1681 31.2802 25.1964 29.6985 28.1965 26.8197C31.1967 23.9409 32.924 19.9998 33 15.86C32.924 11.7202 31.1967 7.7791 28.1965 4.9003C25.1964 2.02151 21.1681 0.439792 16.9944 0.501754ZM16.9944 29.1675C13.3701 29.2296 9.86878 27.8636 7.2581 25.369C4.64743 22.8745 3.1404 19.4549 3.06738 15.86C3.1404 12.2651 4.64743 8.84551 7.2581 6.35097C9.86878 3.85643 13.3701 2.49044 16.9944 2.55246C20.6207 2.48749 24.1249 3.85216 26.738 6.34702C29.351 8.84188 30.8596 12.2631 30.9326 15.86C30.8567 19.4559 29.3472 22.8755 26.7348 25.3697C24.1223 27.8639 20.6199 29.2296 16.9944 29.1675ZM18.9507 14.8346L15.8496 14.1401C15.3759 14.0479 14.9493 13.795 14.643 13.4248C14.3368 13.0546 14.17 12.5903 14.1712 12.1114C14.1847 11.7779 14.2668 11.4506 14.4125 11.1497C14.5582 10.8488 14.7644 10.5807 15.0184 10.3618C15.2724 10.1428 15.5689 9.97777 15.8896 9.8767C16.2103 9.77562 16.5485 9.74069 16.8833 9.77403C17.6566 9.76316 18.4113 10.009 19.0276 10.4725C19.6439 10.9359 20.0863 11.5904 20.2845 12.3319L22.2741 11.5601C21.9569 10.4014 21.2512 9.38454 20.2733 8.67705C19.2953 7.96956 18.1036 7.61372 16.8944 7.6682C14.338 7.6682 11.7926 9.23379 11.7926 12.1775C11.8092 13.164 12.169 14.1145 12.8111 14.868C13.4532 15.6215 14.3382 16.1316 15.3161 16.312L18.0504 16.9184C18.58 16.9734 19.0721 17.215 19.4372 17.5995C19.8023 17.9839 20.0162 18.4856 20.0399 19.0132C20.0122 19.3865 19.9092 19.7504 19.7373 20.0836C19.5653 20.4167 19.3277 20.7122 19.0386 20.9528C18.7495 21.1933 18.4148 21.3739 18.0541 21.4838C17.6935 21.5938 17.3142 21.631 16.9389 21.5932C16.1453 21.6046 15.3697 21.3588 14.7298 20.8931C14.0898 20.4275 13.6206 19.7675 13.3932 19.0132L11.3258 19.8622C11.7545 21.0081 12.536 21.9911 13.5594 22.6719C14.5828 23.3526 15.7963 23.6965 17.0278 23.6549C17.7037 23.7075 18.3833 23.6232 19.0253 23.4072C19.6674 23.1912 20.2585 22.8479 20.7626 22.3983C21.2668 21.9488 21.6736 21.4022 21.9583 20.7918C22.2429 20.1815 22.3995 19.5201 22.4185 18.8479C22.417 17.8789 22.0669 16.9422 21.4312 16.2065C20.7954 15.4708 19.9158 14.9843 18.9507 14.8346Z" fill="white" stroke="white" stroke-width="0.3"/>
</svg>
