<svg width="26" height="32" viewBox="0 0 26 32" fill="none" xmlns="http://www.w3.org/2000/svg">
<path d="M0 18.6949C0 22.441 4.42478 27.8422 12.8119 32C21.7824 27.538 26 22.4886 26 18.6949V4.95315C26 1.22648 16.7567 -5.3705e-05 12.8119 -5.37545e-05C8.86703 -5.3804e-05 0 1.22648 0 5.78472V18.6949Z" fill="#4F4F4F"/>
<path d="M15.1712 13.5677L11.9318 12.8425C11.437 12.7462 10.9913 12.4822 10.6714 12.0957C10.3515 11.7092 10.1773 11.2243 10.1786 10.7243C10.1927 10.3761 10.2784 10.0344 10.4306 9.7202C10.5828 9.40603 10.7982 9.12605 11.0635 8.89747C11.3289 8.66888 11.6386 8.49652 11.9736 8.39099C12.3086 8.28545 12.6619 8.24898 13.0116 8.28379C13.8194 8.27244 14.6078 8.52912 15.2516 9.01304C15.8953 9.49695 16.3574 10.1803 16.5645 10.9545L18.6428 10.1487C18.3115 8.93889 17.5743 7.87711 16.5528 7.1384C15.5312 6.39968 14.2863 6.02814 13.0232 6.08503C10.3528 6.08503 7.6939 7.71971 7.6939 10.7934C7.7112 11.8234 8.08706 12.8158 8.75782 13.6026C9.42859 14.3893 10.353 14.922 11.3745 15.1103L14.2307 15.7435C14.7839 15.8008 15.298 16.0532 15.6794 16.4546C16.0608 16.856 16.2843 17.3798 16.3091 17.9307C16.28 18.3205 16.1725 18.7005 15.9929 19.0483C15.8132 19.3961 15.5651 19.7047 15.2631 19.9558C14.9611 20.207 14.6114 20.3955 14.2347 20.5104C13.8579 20.6252 13.4618 20.664 13.0697 20.6245C12.2407 20.6364 11.4305 20.3798 10.762 19.8936C10.0936 19.4074 9.60335 18.7183 9.36585 17.9307L7.20625 18.8171C7.65407 20.0136 8.47037 21.04 9.53945 21.7508C10.6085 22.4616 11.8761 22.8207 13.1626 22.7772C13.8686 22.8321 14.5785 22.7441 15.2492 22.5186C15.9199 22.293 16.5373 21.9347 17.064 21.4652C17.5907 20.9958 18.0156 20.4251 18.313 19.7878C18.6103 19.1505 18.7739 18.46 18.7938 17.7581C18.7922 16.7463 18.4264 15.7683 17.7623 15.0001C17.0982 14.232 16.1794 13.724 15.1712 13.5677Z" fill="white"/>
</svg>
