<svg width="116" height="26" viewBox="0 0 116 26" fill="none" xmlns="http://www.w3.org/2000/svg">
<path d="M105.409 6.0855V7.87711H109.672V19.6905H111.737V7.87711H116V6.0855H105.409ZM41.279 15.8647L37.2803 6.0855H34.3285V19.6905H36.3844V8.87556L40.8452 19.6905H41.7128L46.2114 8.87556V19.6905H48.2767V6.0855H45.2683L41.279 15.8647ZM13.5711 0.00148467C10.0314 -0.0484651 6.61586 1.29133 4.07234 3.72755C1.52881 6.16377 0.0645037 9.4979 0 13C0.0645037 16.5021 1.52881 19.8362 4.07234 22.2724C6.61586 24.7087 10.0314 26.0485 13.5711 25.9985C17.1124 26.051 20.5303 24.7123 23.0759 22.2758C25.6214 19.8393 27.087 16.5037 27.1515 13C27.087 9.49626 25.6214 6.1607 23.0759 3.72422C20.5303 1.28773 17.1124 -0.0509574 13.5711 0.00148467ZM13.5711 24.2629C10.4958 24.3154 7.52503 23.1593 5.30991 21.048C3.09479 18.9367 1.8161 16.0426 1.75415 13C1.8161 9.95741 3.09479 7.06326 5.30991 4.95199C7.52503 2.84073 10.4958 1.68462 13.5711 1.73711C16.6479 1.68212 19.6211 2.83712 21.8383 4.94865C24.0555 7.06018 25.3355 9.95576 25.3974 13C25.333 16.0434 24.0522 18.9376 21.8356 21.0486C19.619 23.1596 16.6472 24.3154 13.5711 24.2629ZM15.2309 12.1322L12.5997 11.5443C12.1977 11.4663 11.8358 11.2523 11.5759 10.939C11.316 10.6257 11.1745 10.2326 11.1756 9.82735C11.187 9.54508 11.2567 9.26809 11.3803 9.01344C11.5039 8.75878 11.6789 8.53184 11.8944 8.34655C12.1099 8.16126 12.3615 8.02155 12.6336 7.93601C12.9057 7.85046 13.1927 7.82089 13.4767 7.84912C14.1329 7.83991 14.7733 8.04797 15.2962 8.44023C15.819 8.83248 16.1944 9.38641 16.3626 10.014L18.0507 9.36079C17.7816 8.38013 17.1829 7.51946 16.3531 6.92068C15.5233 6.32189 14.5121 6.02073 13.4862 6.06684C11.3171 6.06684 9.1574 7.39188 9.1574 9.88334C9.17145 10.7183 9.47674 11.5227 10.0216 12.1604C10.5664 12.7981 11.3173 13.2299 12.147 13.3826L14.467 13.8958C14.9163 13.9423 15.3339 14.1468 15.6437 14.4722C15.9535 14.7976 16.135 15.2222 16.1551 15.6688C16.1316 15.9847 16.0442 16.2927 15.8983 16.5746C15.7524 16.8566 15.5508 17.1067 15.3055 17.3103C15.0602 17.5138 14.7762 17.6667 14.4702 17.7598C14.1642 17.8529 13.8424 17.8843 13.5239 17.8523C12.8506 17.8619 12.1925 17.6539 11.6495 17.2598C11.1065 16.8657 10.7084 16.3071 10.5154 15.6688L8.7613 16.3873C9.12504 17.3571 9.78809 18.1891 10.6565 18.7652C11.5248 19.3414 12.5544 19.6325 13.5993 19.5972C14.1728 19.6417 14.7495 19.5704 15.2942 19.3876C15.839 19.2048 16.3405 18.9143 16.7683 18.5338C17.1961 18.1532 17.5413 17.6906 17.7828 17.1741C18.0243 16.6575 18.1572 16.0977 18.1733 15.5288C18.1721 14.7087 17.875 13.9159 17.3356 13.2933C16.7961 12.6706 16.0498 12.2589 15.2309 12.1322ZM93.6676 19.6905H102.91V17.8989H95.733V13.6532H102.797V11.8616H95.7707V7.87711H102.948V6.0855H93.7054L93.6676 19.6905ZM76.8806 10.2659C76.8996 9.69583 76.7968 9.12819 76.5791 8.60001C76.3615 8.07184 76.0337 7.59499 75.6173 7.20055C75.2008 6.80612 74.705 6.50295 74.1622 6.31083C73.6194 6.1187 73.0418 6.04192 72.467 6.0855H66.667V19.6905H68.7324V14.4464H71.307L74.5889 19.6905H76.975L73.4572 14.2504C74.4342 14.1445 75.3332 13.6727 75.9698 12.9318C76.6064 12.1909 76.9323 11.237 76.8806 10.2659ZM68.7324 12.6547V7.87711H72.1935C72.5106 7.87711 72.8245 7.9389 73.1174 8.05895C73.4103 8.179 73.6765 8.35496 73.9007 8.57678C74.1249 8.7986 74.3027 9.06194 74.424 9.35177C74.5454 9.64159 74.6078 9.95222 74.6078 10.2659C74.6078 10.5796 74.5454 10.8903 74.424 11.1801C74.3027 11.4699 74.1249 11.7333 73.9007 11.9551C73.6765 12.1769 73.4103 12.3529 73.1174 12.4729C72.8245 12.593 72.5106 12.6547 72.1935 12.6547H68.7324ZM90.612 6.12282H88.0563L82.5675 12.5614L88.5089 19.7279H91.0647L84.9441 12.5708L90.612 6.12282ZM80.5021 6.12282V19.6905H82.5675V6.0855L80.5021 6.12282ZM56.161 6.12282L50.6911 19.6905H52.9639L54.454 16.1073H60.3954L61.9327 19.7279H64.2055L58.7356 6.0855L56.161 6.12282ZM55.2179 14.2784L57.4247 8.6796L59.6315 14.2784H55.2179Z" fill="white"/>
</svg>
