<svg width="14" height="13" viewBox="0 0 14 13" fill="none" xmlns="http://www.w3.org/2000/svg">
<path fill-rule="evenodd" clip-rule="evenodd" d="M8.07472 2.93458L12.5194 1.00012L13.4049 5.766L11.5669 4.78966C11.561 4.80089 11.5549 4.81204 11.5486 4.82313L9.06581 9.15799C8.93069 9.39392 8.70532 9.56466 8.44162 9.63088C8.17792 9.6971 7.89863 9.65309 7.66807 9.50899L5.19125 7.96101L2.85343 11.7866C2.56545 12.2579 1.94996 12.4064 1.4787 12.1185C1.00744 11.8305 0.858872 11.215 1.14686 10.7437L4.01138 6.05622C4.15058 5.82843 4.37509 5.66576 4.63491 5.60442C4.89472 5.54308 5.16828 5.58818 5.39466 5.72966L7.8468 7.26221L9.80039 3.85127L8.07472 2.93458Z" fill="white"/>
<path d="M12.5194 1.00012L12.6669 0.972723C12.6586 0.92778 12.6302 0.889097 12.5898 0.867652C12.5494 0.846208 12.5015 0.844342 12.4596 0.862584L12.5194 1.00012ZM8.07472 2.93458L8.01486 2.79704C7.96205 2.82003 7.92707 2.87121 7.92483 2.92875C7.92259 2.98629 7.95349 3.04004 8.00435 3.06705L8.07472 2.93458ZM13.4049 5.766L13.3345 5.89847C13.3854 5.92548 13.4472 5.921 13.4936 5.88693C13.54 5.85286 13.5629 5.79522 13.5523 5.7386L13.4049 5.766ZM11.5669 4.78966L11.6373 4.65719C11.602 4.63846 11.5607 4.63456 11.5226 4.64636C11.4845 4.65816 11.4526 4.68468 11.4341 4.72004L11.5669 4.78966ZM11.5486 4.82313L11.4184 4.74858L11.4184 4.74858L11.5486 4.82313ZM9.06581 9.15799L9.19597 9.23254H9.19598L9.06581 9.15799ZM8.44162 9.63088L8.40509 9.48539L8.44162 9.63088ZM7.66807 9.50899L7.74757 9.38179L7.66807 9.50899ZM5.19125 7.96101L5.27074 7.83381C5.23679 7.81259 5.19575 7.80583 5.15678 7.81503C5.11781 7.82423 5.08413 7.84863 5.06325 7.8828L5.19125 7.96101ZM2.85343 11.7866L2.98142 11.8648H2.98142L2.85343 11.7866ZM1.4787 12.1185L1.40049 12.2464H1.40049L1.4787 12.1185ZM1.14686 10.7437L1.01886 10.6655H1.01886L1.14686 10.7437ZM4.01138 6.05622L3.88339 5.97801L3.88339 5.97801L4.01138 6.05622ZM4.63491 5.60442L4.60044 5.45843L4.63491 5.60442ZM5.39466 5.72966L5.47416 5.60246H5.47416L5.39466 5.72966ZM7.8468 7.26221L7.7673 7.38942C7.80188 7.41103 7.84377 7.41763 7.88333 7.4077C7.92288 7.39776 7.95669 7.37215 7.97696 7.33676L7.8468 7.26221ZM9.80039 3.85127L9.93055 3.92582C9.95073 3.89058 9.95577 3.84866 9.9445 3.80965C9.93323 3.77063 9.90662 3.73785 9.87076 3.7188L9.80039 3.85127ZM12.4596 0.862584L8.01486 2.79704L8.13458 3.07212L12.5793 1.13766L12.4596 0.862584ZM13.5523 5.7386L12.6669 0.972723L12.372 1.02752L13.2574 5.7934L13.5523 5.7386ZM11.4965 4.92213L13.3345 5.89847L13.4752 5.63353L11.6373 4.65719L11.4965 4.92213ZM11.4341 4.72004C11.429 4.72961 11.4238 4.73912 11.4184 4.74858L11.6787 4.89768C11.686 4.88497 11.693 4.87216 11.6998 4.85928L11.4341 4.72004ZM11.4184 4.74858L8.93565 9.08344L9.19598 9.23254L11.6787 4.89768L11.4184 4.74858ZM8.93565 9.08344C8.82079 9.28398 8.62923 9.42911 8.40509 9.48539L8.47815 9.77636C8.78141 9.70021 9.04058 9.50386 9.19597 9.23254L8.93565 9.08344ZM8.40509 9.48539C8.18094 9.54168 7.94354 9.50428 7.74757 9.38179L7.58857 9.63619C7.85371 9.80191 8.1749 9.85251 8.47815 9.77636L8.40509 9.48539ZM7.74757 9.38179L5.27074 7.83381L5.11175 8.08821L7.58857 9.63619L7.74757 9.38179ZM5.06325 7.8828L2.72544 11.7084L2.98142 11.8648L5.31924 8.03923L5.06325 7.8828ZM2.72544 11.7084C2.48065 12.109 1.95749 12.2353 1.55692 11.9905L1.40049 12.2464C1.94243 12.5776 2.65024 12.4068 2.98142 11.8648L2.72544 11.7084ZM1.55692 11.9905C1.15635 11.7457 1.03006 11.2225 1.27485 10.8219L1.01886 10.6655C0.687682 11.2075 0.858539 11.9153 1.40049 12.2464L1.55692 11.9905ZM1.27485 10.8219L4.13937 6.13444L3.88339 5.97801L1.01886 10.6655L1.27485 10.8219ZM4.13937 6.13444C4.2577 5.94082 4.44853 5.80254 4.66937 5.75041L4.60044 5.45843C4.30165 5.52897 4.04347 5.71605 3.88339 5.97801L4.13937 6.13444ZM4.66937 5.75041C4.89021 5.69827 5.12274 5.7366 5.31516 5.85686L5.47416 5.60246C5.21382 5.43975 4.89923 5.3879 4.60044 5.45843L4.66937 5.75041ZM5.31516 5.85686L7.7673 7.38942L7.92629 7.13501L5.47416 5.60246L5.31516 5.85686ZM7.97696 7.33676L9.93055 3.92582L9.67023 3.77672L7.71663 7.18766L7.97696 7.33676ZM8.00435 3.06705L9.73002 3.98374L9.87076 3.7188L8.14509 2.80211L8.00435 3.06705Z" fill="white"/>
</svg>
