<svg width="28" height="16" viewBox="0 0 28 16" fill="none" xmlns="http://www.w3.org/2000/svg">
<path fill-rule="evenodd" clip-rule="evenodd" d="M13.7004 15.9783H15.3728C15.3728 15.9783 15.8785 15.9216 16.1377 15.6436C16.3747 15.3873 16.3674 14.9066 16.3674 14.9066C16.3674 14.9066 16.3344 12.6292 17.3765 12.2969C18.4043 11.9706 19.7237 14.4741 21.1219 15.4379C22.1797 16.1659 22.9837 15.9783 22.9837 15.9783L26.7224 15.9819C26.7224 15.9819 28.6781 15.8324 27.7502 14.2902C27.675 14.1641 27.2107 13.1491 24.97 11.0641C22.6259 8.88081 22.9392 9.23424 25.7644 5.45932C27.4844 3.15963 28.1723 1.75557 27.957 1.15487C27.752 0.582508 26.4957 0.681419 26.4957 0.681419L22.2771 0.679006C22.2771 0.679006 21.9638 0.649454 21.7329 0.788171C21.5068 0.923872 21.3618 1.27609 21.3618 1.27609C21.3618 1.27609 20.6949 3.08786 19.8061 4.60169C17.9322 7.79399 17.1823 7.96226 16.875 7.76444C16.1624 7.30245 16.341 5.90804 16.341 4.91712C16.341 1.82372 16.8089 0.533052 15.4293 0.199527C14.9717 0.0885537 14.6355 0.0155764 13.464 0.00411715C11.9618 -0.0127702 10.6905 0.00713274 9.97128 0.361766C9.49199 0.597585 9.12215 1.12049 9.34766 1.15125C9.62549 1.18924 10.2563 1.32193 10.5901 1.77789C11.0219 2.36713 11.0068 3.68857 11.0068 3.68857C11.0068 3.68857 11.2552 7.3308 10.4277 7.78314C9.86003 8.09314 9.08125 7.46047 7.41005 4.56369C6.5537 3.07942 5.90722 1.40938 5.90722 1.40938C5.90722 1.40938 5.78274 1.10179 5.56023 0.938347C5.29082 0.739921 4.91376 0.676594 4.91376 0.676594L0.91285 0.6778C0.91285 0.6778 0.312081 0.694084 0.0913787 0.957044C-0.104668 1.18985 0.0757431 1.67174 0.0757431 1.67174C0.0757431 1.67174 3.20828 9.07683 6.75455 12.78C10.0074 16.1761 13.7004 15.9783 13.7004 15.9783Z" fill="white"/>
</svg>
