<svg width="83" height="20" viewBox="0 0 83 20" fill="none" xmlns="http://www.w3.org/2000/svg">
<g clip-path="url(#clip0)">
<path d="M43.1248 5.37721H40.4551L38.5658 8.69064H37.5934L37.5623 1.51978H35.035V14.4706H37.5623L37.5934 10.9161H38.5596L41.0683 14.4706H43.8682L40.5974 9.7601L43.1248 5.37721Z" fill="white"/>
<path d="M62.2528 9.64267C61.7394 9.31108 61.1827 9.0511 60.5988 8.86997L60.0412 8.65977L59.8927 8.60413C59.5458 8.47433 59.1803 8.33833 59.1679 7.98595C59.1648 7.88159 59.1878 7.77809 59.2357 7.68513C59.2832 7.59218 59.3538 7.51274 59.4405 7.45434C59.6235 7.32845 59.838 7.25569 60.0599 7.24415C60.5438 7.21081 61.0236 7.35354 61.4102 7.64596L61.4783 7.68926L62.8287 6.13763L62.7606 6.08198C62.5925 5.93242 62.41 5.79989 62.2155 5.68634C61.8671 5.4875 61.4886 5.34756 61.0945 5.27216C60.5267 5.15163 59.9399 5.15163 59.3724 5.27216C58.8236 5.34464 58.303 5.55763 57.861 5.89034C57.5782 6.11104 57.342 6.38513 57.1655 6.69697C56.9893 7.00883 56.8762 7.3523 56.8327 7.70777C56.7553 8.3493 56.9184 8.99673 57.2911 9.52524C57.7858 10.0721 58.4329 10.4595 59.1493 10.6379L59.2608 10.675L59.5147 10.7616C60.4316 11.0707 60.6917 11.1943 60.8403 11.3798C60.9096 11.4731 60.9484 11.5852 60.9518 11.7012C60.9518 12.1401 60.4129 12.3194 60.0474 12.4307C59.792 12.4786 59.5294 12.4736 59.2758 12.4162C59.0221 12.3588 58.7832 12.2501 58.5734 12.0969C58.2337 11.8702 57.9431 11.5781 57.7184 11.2376C57.5761 11.3859 56.176 12.7645 56.2008 12.7892L56.2443 12.851C56.9187 13.6938 57.8638 14.2789 58.9202 14.5078C59.1614 14.5543 59.4057 14.5853 59.6512 14.6005H59.9051C60.7396 14.6179 61.5569 14.3641 62.2341 13.8772C62.6922 13.5539 63.0434 13.1021 63.2439 12.579C63.3657 12.2279 63.4086 11.8544 63.3701 11.4849C63.3315 11.1153 63.2125 10.7587 63.0207 10.4401C62.8249 10.1225 62.5629 9.8505 62.2528 9.64267Z" fill="white"/>
<path d="M70.4167 9.64266C69.9055 9.3111 69.3513 9.0511 68.7692 8.86993L68.2055 8.65977L68.0631 8.60413C67.7101 8.47429 67.3508 8.33829 67.3322 7.98595C67.3337 7.88177 67.3598 7.77945 67.4083 7.68711C67.4568 7.59481 67.5261 7.51507 67.6109 7.45431C67.794 7.32841 68.0084 7.25568 68.2303 7.24414C68.7142 7.21192 69.1935 7.35453 69.5807 7.64595L69.6426 7.68922L70.9929 6.13759L70.9311 6.08195C70.7617 5.93093 70.5771 5.79831 70.3797 5.68634C70.0335 5.48771 69.6568 5.34774 69.2646 5.27215C68.695 5.15147 68.1063 5.15147 67.5367 5.27215C66.9884 5.34678 66.4682 5.55951 66.025 5.89033C65.7406 6.10893 65.5023 6.3815 65.3235 6.69234C65.1452 7.00318 65.0299 7.34615 64.9845 7.7016C64.9034 8.34334 65.0668 8.99207 65.4429 9.51903C65.9377 10.0659 66.5847 10.4533 67.3011 10.6318L67.4064 10.6689L67.6604 10.7554C68.5834 11.0645 68.8435 11.1881 68.9921 11.3736C69.0636 11.4653 69.1008 11.5789 69.0974 11.695C69.0974 12.1339 68.5647 12.3132 68.1993 12.4245C67.9429 12.4725 67.679 12.4676 67.4245 12.4103C67.1699 12.3529 66.9297 12.2441 66.719 12.0907C66.3821 11.8607 66.0921 11.5692 65.864 11.2314C65.7279 11.3797 64.3278 12.7583 64.3464 12.783L64.3959 12.8448C65.0706 13.6876 66.0157 14.2727 67.072 14.5015C67.3132 14.5485 67.5575 14.5795 67.803 14.5943H68.0569C68.8914 14.6117 69.7088 14.3579 70.386 13.871C70.8441 13.5477 71.1952 13.0958 71.3957 12.5728C71.5172 12.2217 71.5604 11.8482 71.5219 11.4787C71.4833 11.1091 71.3643 10.7525 71.1726 10.4339C70.9792 10.1201 70.7216 9.85047 70.4167 9.64266Z" fill="white"/>
<path d="M51.425 5.37724V6.26743H51.3137C50.6219 5.57614 49.6846 5.18519 48.7059 5.17942C48.1058 5.1676 47.5097 5.28202 46.9571 5.51529C46.4042 5.74853 45.9066 6.09538 45.497 6.53323C44.6709 7.45642 44.2281 8.65881 44.2582 9.89613C44.2262 11.1542 44.6681 12.3785 45.497 13.327C45.897 13.7651 46.3865 14.1123 46.9328 14.3448C47.4789 14.5773 48.0688 14.6898 48.6624 14.6746C49.6426 14.6563 50.5852 14.2953 51.3258 13.6546H51.425V14.4521H54.0514V5.37724H51.425ZM51.5552 9.94557C51.5816 10.6769 51.3367 11.3922 50.8674 11.9547C50.6427 12.2059 50.3652 12.4048 50.0547 12.5373C49.7445 12.6698 49.4086 12.7326 49.0714 12.7212C48.7441 12.7267 48.4197 12.6584 48.1225 12.5214C47.8254 12.3844 47.5631 12.1822 47.3555 11.9299C46.8918 11.3558 46.6541 10.6327 46.6864 9.89613C46.6653 9.18168 46.9077 8.48438 47.3676 7.93651C47.5796 7.68804 47.8438 7.48939 48.1415 7.35472C48.4392 7.22008 48.7631 7.15274 49.0897 7.15758C49.425 7.14719 49.7582 7.21108 50.0656 7.3447C50.3729 7.47832 50.6471 7.67834 50.8674 7.93031C51.3367 8.49523 51.5813 9.21241 51.5552 9.94557Z" fill="white"/>
<path d="M79.9931 5.37727V6.26743H79.8815C79.1912 5.57767 78.2567 5.18684 77.2799 5.17945C76.6791 5.16829 76.0824 5.28302 75.5286 5.51619C74.9751 5.74937 74.4763 6.09585 74.0651 6.53327C73.2391 7.45645 72.7962 8.65882 72.8263 9.89616C72.7943 11.1542 73.2363 12.3785 74.0651 13.327C74.4651 13.7652 74.9546 14.1123 75.5006 14.3448C76.047 14.5774 76.6369 14.6899 77.2305 14.6747C78.2107 14.6563 79.153 14.2953 79.8939 13.6547H79.9931V14.4521H82.6195V5.37727H79.9931ZM80.1233 9.9456C80.1525 10.6774 79.9073 11.3937 79.4355 11.9547C79.2108 12.206 78.9333 12.4049 78.6228 12.5374C78.3123 12.6698 77.9767 12.7326 77.6392 12.7212C77.3119 12.7267 76.9878 12.6584 76.6906 12.5214C76.3935 12.3844 76.1312 12.1822 75.9233 11.93C75.4599 11.3559 75.2219 10.6328 75.2545 9.89616C75.2334 9.18171 75.4758 8.48441 75.9357 7.93652C76.1477 7.68808 76.4119 7.48939 76.7096 7.35475C77.0073 7.22008 77.3312 7.15278 77.6578 7.15762C77.9932 7.14719 78.3263 7.21112 78.6337 7.34473C78.9411 7.47835 79.2149 7.67837 79.4355 7.93035C79.9073 8.49381 80.1522 9.21201 80.1233 9.9456Z" fill="white"/>
<path d="M17.7829 0C12.3304 0 7.99316 4.39033 7.99316 9.77C7.99316 15.2115 12.3924 19.54 17.7829 19.54C23.1735 19.54 27.5727 15.1497 27.5727 9.77C27.5727 4.39033 23.1735 0 17.7829 0ZM17.7829 13.3565C15.8002 13.3565 14.1273 11.6869 14.1273 9.70816C14.1273 7.72944 15.8002 6.05988 17.7829 6.05988C19.7657 6.05988 21.4386 7.72944 21.4386 9.70816C21.3767 11.7487 19.7657 13.3565 17.7829 13.3565Z" fill="white"/>
<path d="M7.93096 2.78259V17.0047H4.46115L0 2.78259H7.93096Z" fill="white"/>
</g>
<defs>
<clipPath id="clip0">
<rect width="82.6692" height="19.54" fill="white"/>
</clipPath>
</defs>
</svg>
